<?xml version="1.0" encoding="utf-8"?>
<!-- Generator: Adobe Illustrator 16.0.0, SVG Export Plug-In . SVG Version: 6.00 Build 0)  -->
<!DOCTYPE svg PUBLIC "-//W3C//DTD SVG 1.1//EN" "http://www.w3.org/Graphics/SVG/1.1/DTD/svg11.dtd">
<svg version="1.1" id="Layer_1" xmlns="http://www.w3.org/2000/svg" xmlns:xlink="http://www.w3.org/1999/xlink" x="0px" y="0px"
	 width="250px" height="250px" viewBox="0 0 250 250" enable-background="new 0 0 250 250" xml:space="preserve">
<g>
	<path fill="#EB5454" d="M176.072,75.696h-6.038c-2.742-0.004-5.132,1.867-5.784,4.529l-2.417,9.833
		c-0.702,2.85-0.14,5.864,1.544,8.269l2.175,3.11c-1.896,3.808-4.979,6.896-8.783,8.796l-3.094-2.163
		c-2.406-1.686-5.423-2.248-8.274-1.543l-9.856,2.432c-2.667,0.647-4.545,3.039-4.54,5.784v6.02c0,2.43,1.477,4.619,3.731,5.527
		c4.192,1.646,8.657,2.484,13.161,2.477c0.451,0,0.905-0.009,1.358-0.026c19.972-0.753,35.55-17.553,34.797-37.524
		c-0.153-4.038-0.98-8.023-2.45-11.79C180.693,77.172,178.505,75.695,176.072,75.696z M149.099,124.215
		c-4.337,0.173-8.662-0.556-12.702-2.141c-0.526-0.221-0.864-0.741-0.855-1.311v-6.021c0.001-0.664,0.459-1.24,1.104-1.391
		l9.849-2.43c0.444-0.11,0.9-0.165,1.358-0.164c1.158,0,2.288,0.355,3.237,1.018l4.164,2.917c0.629,0.439,1.438,0.532,2.15,0.243
		c0.195-0.081,0.39-0.164,0.586-0.262c5.314-2.402,9.571-6.655,11.979-11.965c0.112-0.213,0.203-0.414,0.291-0.628
		c0.298-0.715,0.209-1.532-0.234-2.167l-2.926-4.184c-0.935-1.335-1.245-3.008-0.857-4.59l2.417-9.833
		c0.157-0.637,0.73-1.084,1.387-1.083h6.04c0.57-0.009,1.089,0.329,1.313,0.854c6.352,16.289-1.702,34.643-17.99,40.996
		C156.115,123.359,152.631,124.083,149.099,124.215z"/>
	<path fill="#EB5454" d="M157.541,59.635c-19.235,0.005-36.084,12.897-41.117,31.463H74.95c-5.074,0.008-9.186,4.119-9.195,9.194
		v69.841c0.01,5.075,4.122,9.187,9.195,9.193h0.86v12.417c0,1.251,1.014,2.266,2.265,2.266c0.506,0,0.998-0.169,1.396-0.48
		l18.136-14.191h64.306c5.074-0.011,9.184-4.122,9.193-9.195v-27.529c22.303-7.482,34.318-31.628,26.835-53.931
		C192.117,71.323,175.852,59.627,157.541,59.635z M166.576,170.129c-0.003,2.575-2.089,4.661-4.664,4.663H96.826
		c-0.505,0.001-0.996,0.17-1.395,0.481l-15.098,11.811v-10.021c0-1.251-1.015-2.265-2.266-2.265H74.95
		c-2.575-0.001-4.662-2.088-4.665-4.664v-69.841c0.003-2.575,2.089-4.662,4.665-4.665h40.512c-0.339,2.186-0.51,4.392-0.511,6.604
		c0,23.522,19.068,42.59,42.59,42.591c3.037-0.001,6.066-0.326,9.035-0.966V170.129z M184.454,129.145
		c-4.454,4.473-9.955,7.761-16.005,9.565c-0.135,0.024-0.267,0.062-0.396,0.109c-3.418,0.978-6.956,1.474-10.513,1.474
		c-21.021,0-38.061-17.042-38.061-38.062c0.001-2.752,0.299-5.497,0.888-8.184c0.039-0.126,0.067-0.257,0.086-0.389
		c4.73-20.482,25.169-33.25,45.651-28.521c20.482,4.731,33.253,25.17,28.521,45.654c-1.604,6.948-5.13,13.305-10.173,18.348V129.145
		z"/>
	<path fill="#EB5454" d="M80.641,120.447h17.048c1.251,0,2.265-1.013,2.265-2.264c0-1.252-1.014-2.265-2.265-2.265H80.641
		c-1.25,0-2.265,1.013-2.265,2.265C78.376,119.434,79.391,120.447,80.641,120.447z"/>
	<path fill="#EB5454" d="M80.641,134.219h26.688c1.25,0,2.264-1.012,2.264-2.264c0-1.251-1.014-2.266-2.264-2.266H80.641
		c-1.25,0-2.265,1.015-2.265,2.266C78.376,133.207,79.391,134.219,80.641,134.219z"/>
	<path fill="#EB5454" d="M80.641,147.986h26.688c1.25,0,2.264-1.014,2.264-2.265c0-1.25-1.014-2.265-2.264-2.265H80.641
		c-1.25,0-2.265,1.015-2.265,2.265C78.376,146.973,79.391,147.986,80.641,147.986z"/>
	<path fill="#EB5454" d="M80.641,157.226c-1.25,0-2.265,1.014-2.265,2.265c0,1.25,1.015,2.265,2.265,2.265h75.595
		c1.251,0,2.264-1.015,2.264-2.265c0-1.251-1.013-2.265-2.264-2.265H80.641z"/>
</g>
</svg>
