<?xml version="1.0" encoding="utf-8"?>
<!-- Generator: Adobe Illustrator 16.0.0, SVG Export Plug-In . SVG Version: 6.00 Build 0)  -->
<!DOCTYPE svg PUBLIC "-//W3C//DTD SVG 1.1//EN" "http://www.w3.org/Graphics/SVG/1.1/DTD/svg11.dtd">
<svg version="1.1" id="Layer_1" xmlns="http://www.w3.org/2000/svg" xmlns:xlink="http://www.w3.org/1999/xlink" x="0px" y="0px"
	 width="250px" height="250px" viewBox="0 0 250 250" enable-background="new 0 0 250 250" xml:space="preserve">
<g>
	<path fill="none" stroke="#EB5454" stroke-width="4" stroke-linecap="round" stroke-linejoin="round" stroke-miterlimit="10" d="
		M105.147,191.959l-11.532-15.978l0.793-6.529l37.652-11.254l1.915-28.882l-3.061-10.709l10.761-35.363
		c0.851,0.436,1.826-0.08,2.717-0.165c0.631,2.15,0.037,5.087,0.818,7.037c0.672,1.676,3.354,2.715,4.374,4.718
		c0.462,0.908,0.422,2.548,0.972,3.246c0.638,0.81,1.925,1.017,2.902,1.661c2.307,1.519,4.634,5.482,7.452,5.661
		c0.878,0.056,2.238-0.556,3.311-0.555c1.175,0.003,2.543-0.196,3.7,0.03c1.196,0.232,2.12,1.027,3.41,0.951
		c0.904-0.054,1.675-0.776,2.557-0.793c0.429-0.007,2.569,0.432,2.906,0.599c1.279,0.635,1.122,1.857,1.551,3.343
		c0.446,1.545,1.556,3.424,2.799,4.517c0.728,0.64,1.456,0.865,1.973,1.611c0.507,0.727,0.502,1.898,1.169,2.704
		c1.729,2.085,4.464,2.938,6.686,4.125c1.649,0.881,1.875,2.526,1.175,4.329c-0.269,0.688-0.866,0.931-1.178,1.961
		c-0.095,0.308-0.417,1.097-0.411,1.374c0.006,0.45,0.715,0.829,0.624,1.174c-0.21,0.812-0.913,1.455-1.394,2.156
		c-1.037,1.513-1.66,3.332-2.563,4.942c-0.495,0.885-1.182,2.168-1.825,2.925c-0.737,0.866-1.475,0.786-2.43,1.597
		c-0.955,0.812-1.054,1.941-1.804,3.042c-0.518,0.754-1.271,1.23-1.648,1.83c-0.827,1.318-1.781,4.126-2.175,5.641
		c-0.527-0.45-2.17-0.56-2.455-1.09c-0.488-0.91,1.119-2.093-0.031-2.936c-1.656-1.213-3.381,2.441-3.5,3.658
		c0.853,0.29,0.93,1.178,0.938,2.006c-1.666,0.973-1.701,0.505-2.49,2.195c-0.514,1.103-1.334,2.542-1.667,3.683
		c-0.206,0.698-0.677,2.729-0.501,3.348c0.346,1.22,1.796,1.263,1.698,2.911c-0.188,0.046-0.356,0.012-0.547,0.053
		c0.539,1.31,2.938,3.796,2.95,5.093c0.023,2.18-2.955,2.015-4.295,2.401c-2.043,0.589-3.394,1.301-5.365,0.773
		c-1.818-0.485-2.952-0.59-4.533,1.009c-1.774,1.796-3.791,4.72-4.491,7.002c-0.365,1.19-1.129,4.9-2.946,5.33
		c-0.296,0.069-1.195-0.895-1.953-0.823c-1.132,0.107-1.975,1.249-2.921,1.812c-2.45,1.459-2.996-0.734-5.09-0.28
		c-2.396,0.521-3.077,3.382-2.55,5.353c0.359,1.342,0.671,1.107,0.349,2.548c-0.354,1.573-1.811,3.143-2.386,4.683
		c-0.524,0.11-1.648,0.907-2.13,0.833c-0.997-0.15-1.27-1.362-2.16-1.789c-1.047-0.503-2.995-0.175-4.124-0.035
		c-1.952,0.241-3.545,1.524-5.445,2.051c-1.006,0.278-2.746-0.679-3.029,0.911c-1.933,0.594-2.478,2.759-5.24,2.355
		c-0.513-1.651-0.95-0.003-1.604-0.201c-0.747-0.225-1.108-0.451-1.768-0.987c-2.133-1.729-3.098-3.576-4.865-5.655
		c-1.28-1.505-1.624-1.661-0.877-3.502c0.637-1.565,0.83-3.656,0.83-3.372"/>
	<path fill="none" stroke="#EB5454" stroke-width="4" stroke-linecap="round" stroke-linejoin="round" stroke-miterlimit="10" d="
		M140.694,77.156c0.226-0.669,0.232-2.82,0.166-4.09c-2.289-0.377-1.74-2.055-1.153-3.692c0.242,0.655,0.712,1.015,1.148,1.274
		c0.907-2.795-0.577-5.128,3.54-5.05c0.34,1.161-0.579,1.546-1.527,1.777c1.084,0.825,0.8,4.301,0.422,5.701
		c-0.363,1.346-1.317,4.189-2.4,4.669"/>
</g>
</svg>
