<?xml version="1.0" encoding="utf-8"?>
<!-- Generator: Adobe Illustrator 16.0.0, SVG Export Plug-In . SVG Version: 6.00 Build 0)  -->
<!DOCTYPE svg PUBLIC "-//W3C//DTD SVG 1.1//EN" "http://www.w3.org/Graphics/SVG/1.1/DTD/svg11.dtd">
<svg version="1.1" id="Layer_1" xmlns="http://www.w3.org/2000/svg" xmlns:xlink="http://www.w3.org/1999/xlink" x="0px" y="0px"
	 width="250px" height="250px" viewBox="0 0 250 250" enable-background="new 0 0 250 250" xml:space="preserve">
<g>
	<path fill="none" stroke="#EB5454" stroke-width="4" stroke-linecap="round" stroke-linejoin="round" stroke-miterlimit="10" d="
		M169.952,100.211H80.048V76.908c0-1.933,1.567-3.5,3.5-3.5h82.904c1.934,0,3.5,1.567,3.5,3.5V100.211z"/>
	
		<rect x="80.048" y="100.211" fill="none" stroke="#EB5454" stroke-width="4" stroke-linecap="round" stroke-linejoin="round" stroke-miterlimit="10" width="89.904" height="27.043"/>
	<path fill="none" stroke="#EB5454" stroke-width="4" stroke-linecap="round" stroke-linejoin="round" stroke-miterlimit="10" d="
		M166.452,154.297H83.548c-1.933,0-3.5-1.566-3.5-3.5v-23.543h89.904v23.543C169.952,152.73,168.386,154.297,166.452,154.297z"/>
	
		<line fill="none" stroke="#EB5454" stroke-width="4" stroke-linecap="round" stroke-linejoin="round" stroke-miterlimit="10" x1="106.972" y1="86.81" x2="160.817" y2="86.81"/>
	
		<line fill="none" stroke="#EB5454" stroke-width="4" stroke-linecap="round" stroke-linejoin="round" stroke-miterlimit="10" x1="106.972" y1="113.974" x2="160.817" y2="113.974"/>
	
		<line fill="none" stroke="#EB5454" stroke-width="4" stroke-linecap="round" stroke-linejoin="round" stroke-miterlimit="10" x1="106.972" y1="141.137" x2="160.817" y2="141.137"/>
	
		<line fill="none" stroke="#EB5454" stroke-width="4" stroke-linecap="round" stroke-linejoin="round" stroke-miterlimit="10" x1="125.001" y1="154.297" x2="125.001" y2="167.578"/>
	
		<line fill="none" stroke="#EB5454" stroke-width="4" stroke-linecap="round" stroke-linejoin="round" stroke-miterlimit="10" x1="89.063" y1="172.326" x2="120.372" y2="172.326"/>
	
		<circle fill="none" stroke="#EB5454" stroke-width="4" stroke-linecap="round" stroke-linejoin="round" stroke-miterlimit="10" cx="124.879" cy="172.086" r="4.507"/>
	
		<circle fill="none" stroke="#EB5454" stroke-width="4" stroke-linecap="round" stroke-linejoin="round" stroke-miterlimit="10" cx="84.555" cy="172.086" r="4.507"/>
	
		<circle fill="none" stroke="#EB5454" stroke-width="4" stroke-linecap="round" stroke-linejoin="round" stroke-miterlimit="10" cx="165.324" cy="172.086" r="4.507"/>
	
		<circle fill="none" stroke="#EB5454" stroke-width="4" stroke-linecap="round" stroke-linejoin="round" stroke-miterlimit="10" cx="93.45" cy="140.775" r="4.507"/>
	
		<circle fill="none" stroke="#EB5454" stroke-width="4" stroke-linecap="round" stroke-linejoin="round" stroke-miterlimit="10" cx="93.45" cy="113.732" r="4.507"/>
	
		<circle fill="none" stroke="#EB5454" stroke-width="4" stroke-linecap="round" stroke-linejoin="round" stroke-miterlimit="10" cx="93.45" cy="86.93" r="4.507"/>
	
		<line fill="none" stroke="#EB5454" stroke-width="4" stroke-linecap="round" stroke-linejoin="round" stroke-miterlimit="10" x1="129.387" y1="172.086" x2="160.817" y2="172.086"/>
</g>
</svg>
