<?xml version="1.0" encoding="utf-8"?>
<!-- Generator: Adobe Illustrator 16.0.0, SVG Export Plug-In . SVG Version: 6.00 Build 0)  -->
<!DOCTYPE svg PUBLIC "-//W3C//DTD SVG 1.1//EN" "http://www.w3.org/Graphics/SVG/1.1/DTD/svg11.dtd">
<svg version="1.1" id="Layer_1" xmlns="http://www.w3.org/2000/svg" xmlns:xlink="http://www.w3.org/1999/xlink" x="0px" y="0px"
	 width="250px" height="250px" viewBox="0 0 250 250" enable-background="new 0 0 250 250" xml:space="preserve">
<path fill="#EB5454" d="M166.194,122.868H152.57V107.25c0-0.879-0.713-1.592-1.593-1.592H99.022c-0.88,0-1.593,0.713-1.593,1.592
	v15.619H83.806c-0.879,0-1.593,0.713-1.593,1.593v57.895c0,0.88,0.714,1.593,1.593,1.593h82.389c0.88,0,1.593-0.714,1.593-1.593
	v-57.895C167.787,123.583,167.074,122.868,166.194,122.868z M149.385,108.843v71.919h-15.926v-21.556
	c0-0.88-0.713-1.593-1.594-1.593h-13.73c-0.881,0-1.594,0.715-1.594,1.593v21.556h-15.926v-71.919H149.385z M130.271,180.762
	h-10.544v-19.963h10.544V180.762z M85.399,126.055h12.03v54.707h-12.03V126.055z M164.601,180.762h-12.03v-54.707h12.03V180.762z
	 M109.544,129.996h30.431c0.881,0,1.593-0.714,1.593-1.593v-10.762c0-0.879-0.712-1.593-1.593-1.593h-30.431
	c-0.879,0-1.592,0.713-1.592,1.593v10.762C107.952,129.283,108.665,129.996,109.544,129.996z M111.137,119.234h27.244v7.575h-27.244
	V119.234z M109.544,149.665h30.431c0.881,0,1.593-0.714,1.593-1.593v-10.762c0-0.88-0.712-1.593-1.593-1.593h-30.431
	c-0.879,0-1.592,0.714-1.592,1.593v10.762C107.952,148.952,108.665,149.665,109.544,149.665z M111.137,138.902h27.244v7.577h-27.244
	V138.902z M120.712,96.803c0,2.363,1.925,4.289,4.288,4.289s4.288-1.925,4.288-4.289c0-2.364-1.925-4.288-4.288-4.288
	S120.712,94.439,120.712,96.803z M126.103,96.803c0,0.608-0.495,1.101-1.103,1.101s-1.103-0.493-1.103-1.101
	c0-0.608,0.495-1.101,1.103-1.101S126.103,96.195,126.103,96.803z M103.968,77.017c-0.622-0.623-0.622-1.631,0-2.253
	c5.618-5.619,13.086-8.713,21.032-8.713c7.944,0,15.414,3.094,21.032,8.712c0.622,0.622,0.622,1.631,0,2.251
	c-0.622,0.623-1.631,0.623-2.252,0C138.763,72,132.095,69.238,125,69.238c-7.094,0-13.763,2.764-18.778,7.779
	c-0.312,0.311-0.72,0.466-1.127,0.466C104.687,77.483,104.278,77.328,103.968,77.017z M137.269,83.527
	c-6.766-6.763-17.771-6.765-24.537,0c-0.623,0.622-1.631,0.622-2.252,0c-0.623-0.623-0.623-1.631,0-2.252
	c8.007-8.008,21.035-8.007,29.041,0c0.623,0.622,0.623,1.632,0,2.252c-0.31,0.311-0.718,0.466-1.125,0.466
	C137.987,83.994,137.58,83.838,137.269,83.527z M130.758,90.037c-1.538-1.539-3.583-2.385-5.758-2.385s-4.22,0.846-5.758,2.385
	c-0.621,0.622-1.63,0.622-2.253,0c-0.622-0.622-0.622-1.63,0-2.252c2.14-2.14,4.984-3.319,8.012-3.319s5.871,1.179,8.011,3.319
	c0.622,0.622,0.622,1.631,0,2.252c-0.312,0.311-0.72,0.467-1.127,0.467C131.476,90.505,131.068,90.349,130.758,90.037z"/>
</svg>
