<?xml version="1.0" encoding="utf-8"?>
<!-- Generator: Adobe Illustrator 16.0.0, SVG Export Plug-In . SVG Version: 6.00 Build 0)  -->
<!DOCTYPE svg PUBLIC "-//W3C//DTD SVG 1.1//EN" "http://www.w3.org/Graphics/SVG/1.1/DTD/svg11.dtd">
<svg version="1.1" id="Layer_1" xmlns="http://www.w3.org/2000/svg" xmlns:xlink="http://www.w3.org/1999/xlink" x="0px" y="0px"
	 width="250px" height="250px" viewBox="0 0 250 250" enable-background="new 0 0 250 250" xml:space="preserve">
<g>
	<g id="XMLID_1904_">
		<g id="XMLID_1937_">
			<g id="XMLID_1944_">
				
					<path id="XMLID_1946_" fill="none" stroke="#EB5454" stroke-width="4" stroke-linecap="round" stroke-linejoin="round" stroke-miterlimit="10" d="
					M89.065,81.215c-0.48,0-0.969,0.025-1.453,0.075c-6.863,0.712-12.24,6.693-12.238,13.618c0,2.151,0.49,4.218,1.455,6.138
					c1.555,3.132,12.236,18.25,12.236,18.25s10.686-15.127,12.239-18.256c0.964-1.92,1.452-3.983,1.452-6.135
					C102.757,87.357,96.614,81.215,89.065,81.215z"/>
				
					<circle id="XMLID_1945_" fill="none" stroke="#EB5454" stroke-width="4" stroke-linecap="round" stroke-linejoin="round" stroke-miterlimit="10" cx="89.065" cy="95.586" r="4.353"/>
			</g>
			
				<path id="XMLID_1938_" fill="none" stroke="#EB5454" stroke-width="4" stroke-linecap="round" stroke-linejoin="round" stroke-miterlimit="10" d="
				M98.075,128.309h16.822c5.641,0,10.212,4.57,10.212,10.211v15.09c0,5.895,4.777,10.672,10.671,10.672h16.141"/>
		</g>
	</g>
	<path fill="none" stroke="#EB5454" stroke-width="4" stroke-linecap="round" stroke-linejoin="round" stroke-miterlimit="10" d="
		M89.065,132.801L89.065,132.801c-2.49,0-4.508-2.018-4.508-4.506l0,0c0-2.491,2.018-4.508,4.508-4.508l0,0
		c2.489,0,4.507,2.018,4.507,4.508l0,0C93.572,130.783,91.555,132.801,89.065,132.801z"/>
	<g id="XMLID_00000175280136379158709900000010189804934611680385_">
		
			<path id="XMLID_00000130623820262336096120000015114691263532773514_" fill="none" stroke="#EB5454" stroke-width="4" stroke-linecap="round" stroke-linejoin="round" stroke-miterlimit="10" d="
			M160.935,117.199c-0.48,0-0.969,0.025-1.452,0.076c-6.864,0.711-12.241,6.693-12.239,13.618c0,2.152,0.49,4.219,1.455,6.139
			c1.555,3.131,12.236,18.25,12.236,18.25s10.686-15.127,12.239-18.258c0.964-1.918,1.452-3.982,1.452-6.133
			C174.626,123.34,168.483,117.199,160.935,117.199z"/>
		
			<circle id="XMLID_00000115479683615612446080000005556936695293044381_" fill="none" stroke="#EB5454" stroke-width="4" stroke-linecap="round" stroke-linejoin="round" stroke-miterlimit="10" cx="160.934" cy="131.57" r="4.353"/>
	</g>
	<path fill="none" stroke="#EB5454" stroke-width="4" stroke-linecap="round" stroke-linejoin="round" stroke-miterlimit="10" d="
		M160.935,168.785L160.935,168.785c-2.49,0-4.508-2.018-4.508-4.508l0,0c0-2.488,2.018-4.506,4.508-4.506l0,0
		c2.489,0,4.508,2.018,4.508,4.506l0,0C165.442,166.768,163.424,168.785,160.935,168.785z"/>
</g>
</svg>
