<?xml version="1.0" encoding="utf-8"?>
<!-- Generator: Adobe Illustrator 16.0.0, SVG Export Plug-In . SVG Version: 6.00 Build 0)  -->
<!DOCTYPE svg PUBLIC "-//W3C//DTD SVG 1.1//EN" "http://www.w3.org/Graphics/SVG/1.1/DTD/svg11.dtd">
<svg version="1.1" id="Layer_1" xmlns="http://www.w3.org/2000/svg" xmlns:xlink="http://www.w3.org/1999/xlink" x="0px" y="0px"
	 width="250px" height="250px" viewBox="0 0 250 250" enable-background="new 0 0 250 250" xml:space="preserve">
<g>
	<path fill="#EB5454" d="M64.667,115.033c-0.844,0.161-1.45,0.906-1.435,1.765v52.944c0,0.975,0.79,1.765,1.765,1.765h24.707
		c0.975,0,1.765-0.79,1.765-1.765v-6.618l41.858,11.857c0.463,0.136,0.962,0.075,1.379-0.166l48.366-27.905
		c0.057-0.033,0.112-0.07,0.165-0.11c2.143-1.608,3.53-4.185,3.53-7.06c0-4.853-3.972-8.824-8.824-8.824
		c-0.43,0-0.545,0.059-0.827,0.11c-0.283,0.052-0.643,0.133-1.048,0.221c-0.811,0.177-1.855,0.421-3.089,0.717
		c-2.466,0.593-5.605,1.365-8.713,2.151c-5.965,1.51-11.29,2.914-11.747,3.033c-1.606-1.663-3.858-2.703-6.342-2.703h-17.097
		c-5.866-4.353-14.073-9.931-28.567-11.746c-0.183-0.029-0.369-0.029-0.552,0c-0.975,0.031-1.74,0.845-1.709,1.82
		c0.03,0.975,0.845,1.741,1.819,1.709c14.131,1.77,21.595,7.075,27.409,11.416c0.321,0.23,0.709,0.347,1.104,0.331h17.593
		c2.963,0,5.294,2.331,5.294,5.295c0,2.963-2.331,5.294-5.294,5.294h-26.472c-0.975-0.014-1.776,0.766-1.79,1.74
		s0.765,1.775,1.739,1.79c0.018,0,0.033,0,0.051,0h26.472c4.857,0,8.823-3.966,8.823-8.824c0-1.051-0.212-2.043-0.552-2.979
		c1.249-0.325,5.281-1.386,10.699-2.758c3.1-0.784,6.219-1.564,8.658-2.15c1.221-0.293,2.268-0.55,3.033-0.718
		c0.383-0.083,0.72-0.125,0.938-0.165c0.066-0.012,0.113-0.048,0.165-0.056c2.945,0,5.294,2.35,5.294,5.295
		c0,1.729-0.827,3.224-2.096,4.191c-0.011,0.009,0.012,0.046,0,0.056l-47.538,27.354l-42.135-11.857v-42.686
		c0-0.975-0.79-1.765-1.765-1.765H64.997c-0.055-0.003-0.11-0.003-0.165,0C64.777,115.03,64.722,115.03,64.667,115.033z
		 M66.763,118.562h21.177v49.415H66.763V118.562z"/>
	<path fill="#EB5454" d="M160.333,87.023L139.607,75.18c-0.235-0.148-0.508-0.229-0.786-0.231c-0.248,0.019-0.486,0.098-0.694,0.231
		l-20.726,11.843c-0.451,0.259-0.731,0.733-0.74,1.249v23.686c0.009,0.516,0.289,0.99,0.74,1.25l20.726,11.843
		c0.195,0.126,0.416,0.206,0.647,0.231c0.295,0.006,0.584-0.074,0.833-0.231l20.726-11.843c0.451-0.259,0.731-0.733,0.74-1.25
		V88.272C161.064,87.756,160.784,87.282,160.333,87.023z M137.387,121.257l-17.719-10.131V90.817l17.719,10.131V121.257z
		 M138.867,98.404l-17.719-10.131l17.719-10.132l17.719,10.132L138.867,98.404z M158.066,111.126l-17.719,10.131v-20.309
		l17.719-10.131V111.126z"/>
</g>
</svg>
