<?xml version="1.0" encoding="utf-8"?>
<!-- Generator: Adobe Illustrator 16.0.0, SVG Export Plug-In . SVG Version: 6.00 Build 0)  -->
<!DOCTYPE svg PUBLIC "-//W3C//DTD SVG 1.1//EN" "http://www.w3.org/Graphics/SVG/1.1/DTD/svg11.dtd">
<svg version="1.1" id="Layer_1" xmlns="http://www.w3.org/2000/svg" xmlns:xlink="http://www.w3.org/1999/xlink" x="0px" y="0px"
	 width="250px" height="250px" viewBox="0 0 250 250" enable-background="new 0 0 250 250" xml:space="preserve">
<g>
	<path fill="none" stroke="#EB5454" stroke-width="4" stroke-linecap="round" stroke-linejoin="round" stroke-miterlimit="10" d="
		M-245,41.79L-245,41.79c35.736,20.096,35.736,69.875,0,89.972"/>
	<path fill="none" stroke="#EB5454" stroke-width="4" stroke-linecap="round" stroke-linejoin="round" stroke-miterlimit="10" d="
		M-245,41.79L-245,41.79c-36.059,20.096-36.059,69.875,0,89.972"/>
	
		<line fill="none" stroke="#EB5454" stroke-width="4" stroke-linecap="round" stroke-linejoin="round" stroke-miterlimit="10" x1="-200.014" y1="86.776" x2="-289.986" y2="86.776"/>
	<path fill="none" stroke="#EB5454" stroke-width="4" stroke-linecap="round" stroke-linejoin="round" stroke-miterlimit="10" d="
		M-211.559,56.718c-19.14,16.085-47.745,16.085-66.882,0"/>
	<path fill="none" stroke="#EB5454" stroke-width="4" stroke-linecap="round" stroke-linejoin="round" stroke-miterlimit="10" d="
		M-211.559,116.833c-19.14-16.082-47.746-16.084-66.882,0"/>
	
		<line fill="none" stroke="#EB5454" stroke-width="4" stroke-linecap="round" stroke-linejoin="round" stroke-miterlimit="10" x1="-245" y1="41.79" x2="-245" y2="131.762"/>
	<path fill="none" stroke="#EB5454" stroke-width="4" stroke-linecap="round" stroke-linejoin="round" stroke-miterlimit="10" d="
		M-245,41.79c24.805,0,44.986,20.181,44.986,44.986c0,24.805-20.182,44.986-44.986,44.986c-24.807,0-44.987-20.182-44.987-44.986
		C-289.987,61.971-269.806,41.79-245,41.79"/>
</g>
<circle fill="#EB5454" stroke="#EB5454" stroke-width="4" stroke-linecap="round" stroke-linejoin="round" stroke-miterlimit="10" cx="-118.5" cy="80.109" r="4.508"/>
<circle fill="#EB5454" stroke="#EB5454" stroke-width="4" stroke-linecap="round" stroke-linejoin="round" stroke-miterlimit="10" cx="-141.5" cy="11.008" r="4.508"/>
<g>
	<path fill="#EB5454" d="M-71.081,290.93c-2.418,0-4.069-0.766-5.603-1.887c-2.301-1.77-4.07-4.66-6.37-7.314
		c-2.241-2.654-5.367-5.012-9.968-5.012c-3.067,0-5.545,1.061-7.432,2.535c-2.891,2.242-4.659,5.367-6.783,7.668
		c-2.123,2.359-4.188,3.951-7.785,4.01c-2.418,0-4.069-0.766-5.604-1.887c-2.3-1.77-4.069-4.66-6.37-7.314
		c-2.24-2.654-5.367-5.012-9.968-5.012c-3.066,0-5.485,1.061-7.432,2.535c-2.831,2.242-4.659,5.367-6.782,7.668
		c-2.124,2.359-4.188,3.951-7.786,4.01c-2.418,0-4.069-0.766-5.603-1.887c-2.301-1.77-4.07-4.66-6.37-7.314
		c-2.241-2.654-5.367-5.012-9.968-5.012c-3.067,0-5.544,1.061-7.432,2.535c-2.89,2.242-4.719,5.367-6.783,7.668
		c-2.123,2.359-4.188,3.951-7.785,4.01c-0.825,0-1.475,0.648-1.475,1.475s0.649,1.475,1.475,1.475c3.067,0,5.544-1.061,7.432-2.535
		c2.89-2.242,4.719-5.367,6.783-7.668c2.123-2.359,4.188-3.951,7.785-4.012c2.418,0,4.069,0.768,5.604,1.889
		c2.3,1.77,4.069,4.658,6.369,7.313c2.242,2.654,5.368,5.014,9.968,5.014c3.067,0,5.545-1.061,7.432-2.535
		c2.891-2.242,4.66-5.367,6.783-7.668c2.123-2.359,4.188-3.951,7.785-4.012c2.419,0,4.07,0.768,5.604,1.889
		c2.301,1.77,4.07,4.658,6.37,7.313c2.241,2.654,5.367,5.014,9.968,5.014c3.067,0,5.544-1.061,7.432-2.535
		c2.89-2.242,4.659-5.367,6.782-7.668c2.124-2.359,4.188-3.951,7.786-4.012c2.418,0,4.069,0.768,5.603,1.889
		c2.301,1.77,4.07,4.658,6.37,7.313c2.241,2.654,5.367,5.014,9.968,5.014c0.826,0,1.475-0.648,1.475-1.475
		S-70.255,290.93-71.081,290.93z"/>
	<path fill="#EB5454" d="M-71.081,260.143c-2.418,0-4.069-0.768-5.603-1.887c-2.301-1.77-4.07-4.66-6.37-7.314
		c-2.241-2.654-5.367-5.014-9.968-5.014c-3.067,0-5.545,1.063-7.432,2.537c-2.891,2.24-4.659,5.367-6.783,7.666
		c-2.123,2.359-4.188,3.953-7.785,4.012c-2.418,0-4.069-0.768-5.604-1.887c-2.3-1.77-4.069-4.66-6.37-7.314
		c-2.24-2.654-5.367-5.014-9.968-5.014c-3.066,0-5.485,1.063-7.432,2.537c-2.831,2.24-4.659,5.367-6.782,7.666
		c-2.124,2.359-4.188,3.953-7.786,4.012c-2.418,0-4.069-0.768-5.603-1.887c-2.301-1.77-4.07-4.66-6.37-7.314
		c-2.241-2.654-5.367-5.014-9.968-5.014c-3.067,0-5.544,1.063-7.432,2.537c-2.89,2.24-4.719,5.367-6.783,7.666
		c-2.123,2.359-4.188,3.953-7.785,4.012c-0.825,0-1.475,0.648-1.475,1.475s0.649,1.475,1.475,1.475c3.067,0,5.544-1.063,7.432-2.537
		c2.89-2.24,4.719-5.367,6.783-7.666c2.123-2.359,4.188-3.953,7.785-4.012c2.418,0,4.069,0.768,5.604,1.887
		c2.3,1.77,4.069,4.66,6.369,7.314c2.242,2.654,5.368,5.014,9.968,5.014c3.067,0,5.545-1.063,7.432-2.537
		c2.891-2.24,4.66-5.367,6.783-7.666c2.123-2.359,4.188-3.953,7.785-4.012c2.419,0,4.07,0.768,5.604,1.887
		c2.301,1.77,4.07,4.66,6.37,7.314c2.241,2.654,5.367,5.014,9.968,5.014c3.067,0,5.544-1.063,7.432-2.537
		c2.89-2.24,4.659-5.367,6.782-7.666c2.124-2.359,4.188-3.953,7.786-4.012c2.418,0,4.069,0.768,5.603,1.887
		c2.301,1.77,4.07,4.66,6.37,7.314c2.241,2.654,5.367,5.014,9.968,5.014c0.826,0,1.475-0.648,1.475-1.475
		S-70.255,260.143-71.081,260.143z"/>
	<path fill="#EB5454" d="M-71.081,229.354c-2.418,0-4.069-0.766-5.603-1.887c-2.301-1.77-4.07-4.659-6.37-7.313
		c-2.241-2.654-5.367-5.013-9.968-5.013c-3.067,0-5.545,1.061-7.432,2.535c-2.891,2.242-4.659,5.367-6.783,7.668
		c-2.123,2.359-4.188,3.951-7.785,4.01c-2.418,0-4.069-0.766-5.604-1.887c-2.3-1.77-4.069-4.659-6.37-7.313
		c-2.24-2.653-5.367-5.013-9.968-5.013c-3.066,0-5.485,1.061-7.432,2.535c-2.831,2.242-4.659,5.367-6.782,7.668
		c-2.124,2.359-4.188,3.951-7.786,4.01c-2.418,0-4.069-0.766-5.603-1.887c-2.301-1.77-4.07-4.659-6.37-7.313
		c-2.241-2.654-5.309-5.072-9.968-5.013c-3.067,0-5.544,1.061-7.432,2.535c-2.89,2.242-4.719,5.367-6.783,7.668
		c-2.123,2.359-4.188,3.951-7.785,4.01c-0.825,0-1.475,0.65-1.475,1.475c0,0.826,0.649,1.475,1.475,1.475
		c3.067,0,5.544-1.061,7.432-2.535c2.89-2.242,4.719-5.367,6.783-7.668c2.123-2.359,4.188-3.951,7.785-4.011
		c2.418,0,4.069,0.767,5.604,1.888c2.3,1.77,4.069,4.659,6.369,7.313c2.242,2.653,5.368,5.013,9.968,5.013
		c3.067,0,5.545-1.061,7.432-2.535c2.891-2.242,4.66-5.367,6.783-7.668c2.123-2.359,4.188-3.951,7.785-4.011
		c2.419,0,4.07,0.767,5.604,1.888c2.301,1.77,4.07,4.659,6.37,7.313c2.241,2.653,5.367,5.013,9.968,5.013
		c3.067,0,5.544-1.061,7.432-2.535c2.89-2.242,4.659-5.367,6.782-7.668c2.124-2.359,4.188-3.951,7.786-4.011
		c2.418,0,4.069,0.767,5.603,1.888c2.301,1.77,4.07,4.659,6.37,7.313c2.241,2.653,5.367,5.013,9.968,5.013
		c0.826,0,1.475-0.648,1.475-1.475C-69.606,230.004-70.255,229.354-71.081,229.354z"/>
	<path fill="#EB5454" d="M-91.864,341.322l9.024-9.023c0.59-0.59,0.59-1.533,0-2.064s-1.533-0.59-2.064,0l-6.605,6.605v-36.154
		c0-0.826-0.649-1.475-1.475-1.475c-0.826,0-1.475,0.648-1.475,1.475v35.977l-6.43-6.428c-0.589-0.59-1.533-0.59-2.063,0
		c-0.59,0.59-0.59,1.533,0,2.064l8.965,9.023C-93.397,341.912-92.454,341.912-91.864,341.322z"/>
	<path fill="#EB5454" d="M-137.221,299.15c-0.825,0-1.475,0.65-1.475,1.475v36.037l-6.429-6.428c-0.59-0.59-1.533-0.59-2.064,0
		c-0.53,0.59-0.59,1.533,0,2.064l9.024,9.023c0.59,0.59,1.533,0.59,2.064,0l9.024-9.023c0.589-0.59,0.589-1.533,0-2.064
		c-0.59-0.59-1.534-0.59-2.064,0l-6.606,6.605v-36.154C-135.746,299.801-136.395,299.15-137.221,299.15z"/>
	<path fill="#EB5454" d="M-181.338,299.15c-0.826,0-1.475,0.65-1.475,1.475v36.037l-6.43-6.428c-0.589-0.59-1.533-0.59-2.063,0
		c-0.531,0.59-0.59,1.533,0,2.064l9.023,9.023c0.59,0.59,1.534,0.59,2.064,0l9.024-9.023c0.59-0.59,0.59-1.533,0-2.064
		c-0.59-0.59-1.533-0.59-2.064,0l-6.605,6.605v-36.154C-179.863,299.801-180.513,299.15-181.338,299.15z"/>
</g>
<g>
	<path fill="#EB5454" d="M106.124,76.683h2.869v2.869c0,0.858,0.713,1.571,1.571,1.571s1.571-0.712,1.571-1.571v-2.869h2.869
		c0.859,0,1.571-0.712,1.571-1.571c0-0.858-0.712-1.571-1.571-1.571h-2.869v-2.869c0-0.858-0.712-1.571-1.571-1.571
		s-1.571,0.713-1.571,1.571v2.869h-2.869c-0.859,0-1.571,0.712-1.571,1.571C104.552,75.971,105.265,76.683,106.124,76.683z"/>
	<path fill="#EB5454" d="M173.456,162.215h-2.87v-2.869c0-0.857-0.712-1.57-1.57-1.57c-0.857,0-1.57,0.713-1.57,1.57v2.869h-2.869
		c-0.858,0-1.571,0.712-1.571,1.571c0,0.858,0.713,1.57,1.571,1.57h2.869v2.869c0,0.859,0.713,1.57,1.57,1.57
		c0.858,0,1.57-0.711,1.57-1.57v-2.869h2.87c0.857,0,1.57-0.712,1.57-1.57C175.026,162.927,174.335,162.215,173.456,162.215z"/>
	<path fill="#EB5454" d="M181.373,66.839c-9.593-9.592-24.755-11.079-36.022-3.539c-0.398,0.272-0.651,0.691-0.691,1.152
		c-0.043,0.46,0.126,0.922,0.46,1.256l17.571,17.593l-5.235,5.236c-0.608,0.607-0.608,1.612,0,2.219
		c0.314,0.314,0.712,0.461,1.11,0.461c0.397,0,0.796-0.147,1.11-0.461l5.236-5.235l17.571,17.572c0.293,0.293,0.691,0.46,1.108,0.46
		c0.043,0,0.104,0,0.147,0c0.46-0.042,0.88-0.293,1.151-0.691C192.452,91.594,190.965,76.452,181.373,66.839z M183.299,99.468
		l-34.558-34.556c9.824-5.55,22.326-3.937,30.41,4.147S188.849,89.646,183.299,99.468z"/>
	<path fill="#EB5454" d="M163.172,111.385c0.858,0,1.57-0.712,1.57-1.571c0-0.858-0.712-1.57-1.57-1.57
		c-12.795,0-23.205-10.409-23.205-23.206c0-0.858-0.71-1.57-1.57-1.57c-0.858,0-1.571,0.712-1.571,1.57
		C136.825,99.573,148.639,111.385,163.172,111.385z"/>
	<path fill="#EB5454" d="M163.172,103.092c0.858,0,1.57-0.713,1.57-1.571s-0.712-1.57-1.57-1.57
		c-8.229,0-14.912-6.681-14.912-14.912c0-0.858-0.71-1.57-1.57-1.57c-0.857,0-1.57,0.712-1.57,1.57
		C145.119,94.987,153.203,103.092,163.172,103.092z"/>
	<path fill="#EB5454" d="M131.862,125.25c-0.021-0.042-0.021-0.105-0.063-0.146c-0.062-0.105-0.145-0.167-0.229-0.251
		c-6.031-7.372-15.205-12.084-25.446-12.084c-10.283,0-19.457,4.754-25.488,12.168c-0.063,0.062-0.126,0.104-0.167,0.167
		c-0.021,0.042-0.021,0.063-0.042,0.105c-4.481,5.613-7.162,12.713-7.162,20.42c0,7.728,2.701,14.828,7.162,20.441
		c0.021,0.02,0.021,0.063,0.042,0.104c0.042,0.062,0.104,0.104,0.146,0.167c6.031,7.436,15.226,12.188,25.509,12.188
		c10.304,0,19.499-4.774,25.531-12.188c0.04-0.063,0.123-0.084,0.166-0.146c0.021-0.042,0.021-0.084,0.042-0.125
		c4.46-5.613,7.142-12.692,7.142-20.399C139.004,137.942,136.322,130.862,131.862,125.25z M130.019,163.263
		c-2.323-1.32-4.962-2.409-7.874-3.268c0.984-3.875,1.592-8.188,1.696-12.775h11.938
		C135.465,153.209,133.37,158.718,130.019,163.263z M76.468,147.22h11.938c0.105,4.587,0.712,8.9,1.696,12.775
		c-2.911,0.858-5.55,1.969-7.875,3.268C78.876,158.738,76.782,153.209,76.468,147.22z M82.248,128.015
		c2.325,1.319,4.963,2.408,7.875,3.268c-1.005,3.874-1.591,8.188-1.696,12.775H76.489C76.782,138.089,78.876,132.56,82.248,128.015z
		 M107.694,133.48c3.958-0.104,7.812-0.564,11.372-1.382c0.942,3.644,1.529,7.707,1.634,11.979h-13.006V133.48L107.694,133.48z
		 M107.694,130.34v-14.242c4.293,0.984,8.104,5.948,10.493,12.986C114.898,129.816,111.359,130.256,107.694,130.34z
		 M104.552,116.098v14.242c-3.665-0.105-7.204-0.523-10.492-1.256C96.448,122.045,100.259,117.082,104.552,116.098z M104.552,133.48
		v10.598H91.547c0.125-4.272,0.69-8.336,1.633-11.979C96.741,132.916,100.595,133.376,104.552,133.48z M91.547,147.22h13.005v10.598
		c-3.958,0.104-7.812,0.564-11.372,1.382C92.238,155.556,91.651,151.492,91.547,147.22z M104.552,160.958V175.2
		c-4.293-0.984-8.104-5.948-10.492-12.985C97.348,161.482,100.888,161.043,104.552,160.958z M107.694,175.2v-14.242
		c3.665,0.104,7.204,0.524,10.493,1.257C115.82,169.252,112.008,174.194,107.694,175.2z M107.694,157.817V147.22H120.7
		c-0.126,4.272-0.691,8.336-1.634,11.979C115.506,158.382,111.673,157.9,107.694,157.817z M123.841,144.078
		c-0.104-4.586-0.712-8.9-1.696-12.775c2.911-0.858,5.55-1.969,7.874-3.267c3.352,4.545,5.446,10.053,5.761,16.042H123.841z
		 M127.988,125.564c-1.99,1.09-4.251,1.989-6.723,2.722c-1.487-4.502-3.54-8.231-5.99-10.911
		C120.197,118.966,124.554,121.835,127.988,125.564z M96.971,117.375c-2.45,2.68-4.503,6.429-5.99,10.911
		c-2.471-0.732-4.711-1.653-6.722-2.722C87.693,121.835,92.049,118.966,96.971,117.375z M84.259,165.732
		c1.989-1.088,4.251-1.988,6.722-2.721c1.487,4.501,3.54,8.23,5.99,10.911C92.049,172.331,87.693,169.462,84.259,165.732z
		 M115.276,173.923c2.45-2.681,4.502-6.43,5.99-10.933c2.471,0.732,4.732,1.654,6.723,2.723
		C124.554,169.462,120.197,172.331,115.276,173.923z"/>
	<path fill="#EB5454" d="M151.969,145.649c0-10.137-3.246-19.645-9.321-27.625c1.027-1.361,1.654-3.058,1.654-4.88
		c0-4.524-3.685-8.209-8.208-8.209c-2.052,0-3.917,0.796-5.362,2.052c-7.351-4.67-15.812-7.184-24.587-7.184
		c-25.279,0-45.845,20.566-45.845,45.846c0,25.277,20.566,45.844,45.845,45.844C131.423,191.493,151.969,170.927,151.969,145.649z
		 M136.094,108.076c2.784,0,5.066,2.283,5.066,5.068c0,2.786-2.282,5.068-5.066,5.068c-2.786,0-5.069-2.283-5.069-5.068
		C131.024,110.338,133.286,108.076,136.094,108.076z M106.124,188.353c-23.54,0-42.703-19.163-42.703-42.703
		c0-23.541,19.163-42.705,42.703-42.705c8.084,0,15.875,2.262,22.661,6.535c-0.565,1.11-0.9,2.345-0.9,3.665
		c0,4.524,3.686,8.209,8.21,8.209c1.549,0,2.993-0.461,4.23-1.214c5.551,7.393,8.522,16.168,8.522,25.509
		C148.827,169.189,129.664,188.353,106.124,188.353z"/>
	<path fill="#EB5454" d="M72.928,103.553c0.335,0,0.67-0.105,0.942-0.314c5.341-4.063,14.263-8.859,26.431-8.859
		c0.083,0,0.188,0.021,0.272,0c0.858,0,1.57-0.691,1.57-1.571c0-0.858-0.691-1.571-1.57-1.571c-0.084,0-0.189,0-0.272,0
		c-13.047,0-22.598,5.152-28.336,9.509c-0.692,0.523-0.817,1.507-0.293,2.198C71.986,103.343,72.447,103.553,72.928,103.553z"/>
	<path fill="#EB5454" d="M64.907,111.428c0.503,0,0.985-0.231,1.299-0.67c0-0.021,0.943-1.32,2.744-3.184
		c0.607-0.628,0.586-1.613-0.042-2.22c-0.607-0.608-1.612-0.586-2.22,0.021c-1.989,2.053-3.015,3.498-3.058,3.561
		c-0.502,0.712-0.335,1.696,0.377,2.178C64.279,111.343,64.593,111.428,64.907,111.428z"/>
	<path fill="#EB5454" d="M146.146,180.227c-3.122,3.518-6.597,6.304-10.327,8.294c-0.774,0.397-1.046,1.36-0.647,2.114
		c0.293,0.523,0.817,0.838,1.382,0.838c0.25,0,0.503-0.063,0.734-0.188c4.061-2.178,7.831-5.193,11.203-8.984
		c0.587-0.649,0.524-1.634-0.126-2.22C147.717,179.535,146.732,179.577,146.146,180.227z"/>
	<path fill="#EB5454" d="M154.146,170.99c-0.774-0.377-1.718-0.042-2.095,0.732c0,0.021-0.712,1.466-2.095,3.561
		c-0.481,0.712-0.271,1.697,0.441,2.179c0.271,0.167,0.564,0.271,0.857,0.271c0.503,0,1.006-0.251,1.32-0.69
		c1.527-2.282,2.283-3.874,2.303-3.938C155.276,172.289,154.942,171.367,154.146,170.99z"/>
</g>
</svg>
