<?xml version="1.0" encoding="utf-8"?>
<!-- Generator: Adobe Illustrator 16.0.0, SVG Export Plug-In . SVG Version: 6.00 Build 0)  -->
<!DOCTYPE svg PUBLIC "-//W3C//DTD SVG 1.1//EN" "http://www.w3.org/Graphics/SVG/1.1/DTD/svg11.dtd">
<svg version="1.1" id="Layer_1" xmlns="http://www.w3.org/2000/svg" xmlns:xlink="http://www.w3.org/1999/xlink" x="0px" y="0px"
	 width="250px" height="250px" viewBox="0 0 250 250" enable-background="new 0 0 250 250" xml:space="preserve">
<g>
	<path fill="none" stroke="#EB5454" stroke-width="4" stroke-linecap="round" stroke-linejoin="round" stroke-miterlimit="10" d="
		M-245,41.79L-245,41.79c35.736,20.096,35.736,69.875,0,89.972"/>
	<path fill="none" stroke="#EB5454" stroke-width="4" stroke-linecap="round" stroke-linejoin="round" stroke-miterlimit="10" d="
		M-245,41.79L-245,41.79c-36.059,20.096-36.059,69.875,0,89.972"/>
	
		<line fill="none" stroke="#EB5454" stroke-width="4" stroke-linecap="round" stroke-linejoin="round" stroke-miterlimit="10" x1="-200.014" y1="86.776" x2="-289.986" y2="86.776"/>
	<path fill="none" stroke="#EB5454" stroke-width="4" stroke-linecap="round" stroke-linejoin="round" stroke-miterlimit="10" d="
		M-211.559,56.718c-19.14,16.085-47.745,16.085-66.882,0"/>
	<path fill="none" stroke="#EB5454" stroke-width="4" stroke-linecap="round" stroke-linejoin="round" stroke-miterlimit="10" d="
		M-211.559,116.833c-19.14-16.082-47.746-16.084-66.882,0"/>
	
		<line fill="none" stroke="#EB5454" stroke-width="4" stroke-linecap="round" stroke-linejoin="round" stroke-miterlimit="10" x1="-245" y1="41.79" x2="-245" y2="131.762"/>
	<path fill="none" stroke="#EB5454" stroke-width="4" stroke-linecap="round" stroke-linejoin="round" stroke-miterlimit="10" d="
		M-245,41.79c24.805,0,44.986,20.181,44.986,44.986c0,24.805-20.182,44.986-44.986,44.986c-24.807,0-44.987-20.182-44.987-44.986
		C-289.987,61.971-269.806,41.79-245,41.79"/>
</g>
<circle fill="#EB5454" stroke="#EB5454" stroke-width="4" stroke-linecap="round" stroke-linejoin="round" stroke-miterlimit="10" cx="-118.5" cy="80.109" r="4.508"/>
<circle fill="#EB5454" stroke="#EB5454" stroke-width="4" stroke-linecap="round" stroke-linejoin="round" stroke-miterlimit="10" cx="-141.5" cy="11.008" r="4.508"/>
<g>
	<path fill="#EB5454" d="M-71.081,290.93c-2.418,0-4.069-0.766-5.603-1.887c-2.301-1.77-4.07-4.66-6.37-7.314
		c-2.241-2.654-5.367-5.012-9.968-5.012c-3.067,0-5.545,1.061-7.432,2.535c-2.891,2.242-4.659,5.367-6.783,7.668
		c-2.123,2.359-4.188,3.951-7.785,4.01c-2.418,0-4.069-0.766-5.604-1.887c-2.3-1.77-4.069-4.66-6.37-7.314
		c-2.24-2.654-5.367-5.012-9.968-5.012c-3.066,0-5.485,1.061-7.432,2.535c-2.831,2.242-4.659,5.367-6.782,7.668
		c-2.124,2.359-4.188,3.951-7.786,4.01c-2.418,0-4.069-0.766-5.603-1.887c-2.301-1.77-4.07-4.66-6.37-7.314
		c-2.241-2.654-5.367-5.012-9.968-5.012c-3.067,0-5.544,1.061-7.432,2.535c-2.89,2.242-4.719,5.367-6.783,7.668
		c-2.123,2.359-4.188,3.951-7.785,4.01c-0.825,0-1.475,0.648-1.475,1.475s0.649,1.475,1.475,1.475c3.067,0,5.544-1.061,7.432-2.535
		c2.89-2.242,4.719-5.367,6.783-7.668c2.123-2.359,4.188-3.951,7.785-4.012c2.418,0,4.069,0.768,5.604,1.889
		c2.3,1.77,4.069,4.658,6.369,7.313c2.242,2.654,5.368,5.014,9.968,5.014c3.067,0,5.545-1.061,7.432-2.535
		c2.891-2.242,4.66-5.367,6.783-7.668c2.123-2.359,4.188-3.951,7.785-4.012c2.419,0,4.07,0.768,5.604,1.889
		c2.301,1.77,4.07,4.658,6.37,7.313c2.241,2.654,5.367,5.014,9.968,5.014c3.067,0,5.544-1.061,7.432-2.535
		c2.89-2.242,4.659-5.367,6.782-7.668c2.124-2.359,4.188-3.951,7.786-4.012c2.418,0,4.069,0.768,5.603,1.889
		c2.301,1.77,4.07,4.658,6.37,7.313c2.241,2.654,5.367,5.014,9.968,5.014c0.826,0,1.475-0.648,1.475-1.475
		S-70.255,290.93-71.081,290.93z"/>
	<path fill="#EB5454" d="M-71.081,260.143c-2.418,0-4.069-0.768-5.603-1.887c-2.301-1.77-4.07-4.66-6.37-7.314
		c-2.241-2.654-5.367-5.014-9.968-5.014c-3.067,0-5.545,1.063-7.432,2.537c-2.891,2.24-4.659,5.367-6.783,7.666
		c-2.123,2.359-4.188,3.953-7.785,4.012c-2.418,0-4.069-0.768-5.604-1.887c-2.3-1.77-4.069-4.66-6.37-7.314
		c-2.24-2.654-5.367-5.014-9.968-5.014c-3.066,0-5.485,1.063-7.432,2.537c-2.831,2.24-4.659,5.367-6.782,7.666
		c-2.124,2.359-4.188,3.953-7.786,4.012c-2.418,0-4.069-0.768-5.603-1.887c-2.301-1.77-4.07-4.66-6.37-7.314
		c-2.241-2.654-5.367-5.014-9.968-5.014c-3.067,0-5.544,1.063-7.432,2.537c-2.89,2.24-4.719,5.367-6.783,7.666
		c-2.123,2.359-4.188,3.953-7.785,4.012c-0.825,0-1.475,0.648-1.475,1.475s0.649,1.475,1.475,1.475c3.067,0,5.544-1.063,7.432-2.537
		c2.89-2.24,4.719-5.367,6.783-7.666c2.123-2.359,4.188-3.953,7.785-4.012c2.418,0,4.069,0.768,5.604,1.887
		c2.3,1.77,4.069,4.66,6.369,7.314c2.242,2.654,5.368,5.014,9.968,5.014c3.067,0,5.545-1.063,7.432-2.537
		c2.891-2.24,4.66-5.367,6.783-7.666c2.123-2.359,4.188-3.953,7.785-4.012c2.419,0,4.07,0.768,5.604,1.887
		c2.301,1.77,4.07,4.66,6.37,7.314c2.241,2.654,5.367,5.014,9.968,5.014c3.067,0,5.544-1.063,7.432-2.537
		c2.89-2.24,4.659-5.367,6.782-7.666c2.124-2.359,4.188-3.953,7.786-4.012c2.418,0,4.069,0.768,5.603,1.887
		c2.301,1.77,4.07,4.66,6.37,7.314c2.241,2.654,5.367,5.014,9.968,5.014c0.826,0,1.475-0.648,1.475-1.475
		S-70.255,260.143-71.081,260.143z"/>
	<path fill="#EB5454" d="M-71.081,229.354c-2.418,0-4.069-0.766-5.603-1.887c-2.301-1.77-4.07-4.659-6.37-7.313
		c-2.241-2.654-5.367-5.013-9.968-5.013c-3.067,0-5.545,1.061-7.432,2.535c-2.891,2.242-4.659,5.367-6.783,7.668
		c-2.123,2.359-4.188,3.951-7.785,4.01c-2.418,0-4.069-0.766-5.604-1.887c-2.3-1.77-4.069-4.659-6.37-7.313
		c-2.24-2.653-5.367-5.013-9.968-5.013c-3.066,0-5.485,1.061-7.432,2.535c-2.831,2.242-4.659,5.367-6.782,7.668
		c-2.124,2.359-4.188,3.951-7.786,4.01c-2.418,0-4.069-0.766-5.603-1.887c-2.301-1.77-4.07-4.659-6.37-7.313
		c-2.241-2.654-5.309-5.072-9.968-5.013c-3.067,0-5.544,1.061-7.432,2.535c-2.89,2.242-4.719,5.367-6.783,7.668
		c-2.123,2.359-4.188,3.951-7.785,4.01c-0.825,0-1.475,0.65-1.475,1.475c0,0.826,0.649,1.475,1.475,1.475
		c3.067,0,5.544-1.061,7.432-2.535c2.89-2.242,4.719-5.367,6.783-7.668c2.123-2.359,4.188-3.951,7.785-4.011
		c2.418,0,4.069,0.767,5.604,1.888c2.3,1.77,4.069,4.659,6.369,7.313c2.242,2.653,5.368,5.013,9.968,5.013
		c3.067,0,5.545-1.061,7.432-2.535c2.891-2.242,4.66-5.367,6.783-7.668c2.123-2.359,4.188-3.951,7.785-4.011
		c2.419,0,4.07,0.767,5.604,1.888c2.301,1.77,4.07,4.659,6.37,7.313c2.241,2.653,5.367,5.013,9.968,5.013
		c3.067,0,5.544-1.061,7.432-2.535c2.89-2.242,4.659-5.367,6.782-7.668c2.124-2.359,4.188-3.951,7.786-4.011
		c2.418,0,4.069,0.767,5.603,1.888c2.301,1.77,4.07,4.659,6.37,7.313c2.241,2.653,5.367,5.013,9.968,5.013
		c0.826,0,1.475-0.648,1.475-1.475C-69.606,230.004-70.255,229.354-71.081,229.354z"/>
	<path fill="#EB5454" d="M-91.864,341.322l9.024-9.023c0.59-0.59,0.59-1.533,0-2.064s-1.533-0.59-2.064,0l-6.605,6.605v-36.154
		c0-0.826-0.649-1.475-1.475-1.475c-0.826,0-1.475,0.648-1.475,1.475v35.977l-6.43-6.428c-0.589-0.59-1.533-0.59-2.063,0
		c-0.59,0.59-0.59,1.533,0,2.064l8.965,9.023C-93.397,341.912-92.454,341.912-91.864,341.322z"/>
	<path fill="#EB5454" d="M-137.221,299.15c-0.825,0-1.475,0.65-1.475,1.475v36.037l-6.429-6.428c-0.59-0.59-1.533-0.59-2.064,0
		c-0.53,0.59-0.59,1.533,0,2.064l9.024,9.023c0.59,0.59,1.533,0.59,2.064,0l9.024-9.023c0.589-0.59,0.589-1.533,0-2.064
		c-0.59-0.59-1.534-0.59-2.064,0l-6.606,6.605v-36.154C-135.746,299.801-136.395,299.15-137.221,299.15z"/>
	<path fill="#EB5454" d="M-181.338,299.15c-0.826,0-1.475,0.65-1.475,1.475v36.037l-6.43-6.428c-0.589-0.59-1.533-0.59-2.063,0
		c-0.531,0.59-0.59,1.533,0,2.064l9.023,9.023c0.59,0.59,1.534,0.59,2.064,0l9.024-9.023c0.59-0.59,0.59-1.533,0-2.064
		c-0.59-0.59-1.533-0.59-2.064,0l-6.605,6.605v-36.154C-179.863,299.801-180.513,299.15-181.338,299.15z"/>
</g>
<g>
	<g>
		<path fill="#EB5454" d="M141.556,124.894l5.431-5.431c-6.365-4.239-14.041-6.689-21.988-6.689
			c-18.61,0-35.102,13.18-39.142,31.326c-0.463,1.98,0.795,3.974,2.848,4.438c1.987,0.457,3.974-0.802,4.438-2.854
			c3.311-14.703,16.689-25.366,31.856-25.366C130.959,120.324,136.588,121.98,141.556,124.894z"/>
	</g>
	<g>
		<path fill="#EB5454" d="M160.364,134.033l-5.563,5.563c0.861,1.921,1.59,3.98,2.06,6.094c0.397,1.794,1.914,2.979,3.637,2.979
			c0.271,0,0.529-0.065,0.801-0.132c2.054-0.464,3.312-2.457,2.848-4.438C163.345,140.524,162.02,137.146,160.364,134.033z"/>
	</g>
	<g>
		<path fill="#EB5454" d="M124.999,100.456c11.325,0,21.928,3.841,30.465,10.53l5.371-5.364c-9.935-8.08-22.519-12.716-35.83-12.716
			c-22.583,0-43.048,13.378-52.056,34.108c-0.795,1.92,0.066,4.106,1.921,4.967c0.53,0.192,0.993,0.325,1.523,0.325
			c1.457,0,2.848-0.854,3.444-2.246C87.646,112.045,105.395,100.456,124.999,100.456z"/>
	</g>
	<g>
		<path fill="#EB5454" d="M173.735,120.655l-5.496,5.497c0.734,1.258,1.331,2.517,1.927,3.842c0.861,1.854,3.04,2.715,4.968,1.927
			c1.848-0.868,2.715-3.047,1.913-4.967C176.134,124.762,175.001,122.642,173.735,120.655z"/>
	</g>
	<g>
		<path fill="#EB5454" d="M189.221,111.025c-12.829-23.425-37.439-37.976-64.222-37.976s-51.394,14.551-64.222,37.976
			c-0.994,1.821-0.331,4.1,1.49,5.1c1.814,0.993,4.1,0.331,5.1-1.49c11.511-21.021,33.591-34.075,57.632-34.075
			c24.041,0,46.127,13.06,57.638,34.081c0.689,1.245,1.968,1.947,3.299,1.947c0.609,0,1.231-0.146,1.794-0.463
			C189.552,115.125,190.221,112.847,189.221,111.025z"/>
	</g>
	<g>
		<path fill="#EB5454" d="M170.166,114.96l2.378-2.385c1.258-1.324,1.258-3.377,0-4.702c-1.318-1.258-3.378-1.258-4.695,0
			l-1.523,1.523c0,0.132-0.133,0.199-0.199,0.265l-0.457,0.397l-5.371,5.365l-8.086,8.08l-5.292,5.298l-10.339,10.338
			c-1.92-1.331-4.105-2.324-6.357-2.914c-1.655-0.397-3.444-0.669-5.232-0.669c-11.458,0-20.663,9.272-20.663,20.736
			c0,11.392,9.206,20.657,20.663,20.657s20.664-9.266,20.664-20.657c0-2.252-0.397-4.438-1.061-6.49
			c-0.728-2.252-1.794-4.305-3.172-6.093l10.001-10.001l5.226-5.232l8.02-8.013l5.365-5.365
			C170.034,114.96,170.106,114.96,170.166,114.96z"/>
	</g>
</g>
</svg>
