<?xml version="1.0" encoding="utf-8"?>
<!-- Generator: Adobe Illustrator 16.0.0, SVG Export Plug-In . SVG Version: 6.00 Build 0)  -->
<!DOCTYPE svg PUBLIC "-//W3C//DTD SVG 1.1//EN" "http://www.w3.org/Graphics/SVG/1.1/DTD/svg11.dtd">
<svg version="1.1" id="Layer_1" xmlns="http://www.w3.org/2000/svg" xmlns:xlink="http://www.w3.org/1999/xlink" x="0px" y="0px"
	 width="250px" height="250px" viewBox="0 0 250 250" enable-background="new 0 0 250 250" xml:space="preserve">
<g>
	<path fill="#EB5454" d="M99.931,155.839c0.131,0.187,0.302,0.358,0.487,0.502c0.358,0.272,0.732,0.544,1.091,0.802
		c0.356,0.287,0.701,0.574,1.059,0.86c0.187,0.157,0.4,0.271,0.616,0.344c14.802,10.53,27.724,16.118,38.47,16.634
		c0.314,0.014,0.63,0.029,0.946,0.029c6.261,0,12.264-2.979,16.219-8.096l4.785-6.19c1.231-1.588,1.763-3.566,1.519-5.559
		c-0.258-1.991-1.275-3.767-2.866-5l-14.456-11.16c-1.59-1.232-3.567-1.777-5.56-1.52c-1.991,0.258-3.768,1.275-5,2.866
		l-4.728,6.117c-0.101,0.129-0.145,0.187-0.215,0.33c-0.043,0.07-0.459,0.745-1.691,0.96c-1.876,0.314-6.318-0.244-15.229-7.767
		l-0.817-0.63c-9.456-6.677-11.132-10.831-11.291-12.723c-0.099-1.247,0.431-1.82,0.445-1.834c0.114-0.1,0.229-0.215,0.329-0.343
		l4.729-6.118c2.536-3.281,1.934-8.023-1.36-10.574L92.71,96.409c-1.59-1.233-3.567-1.777-5.559-1.519
		c-1.992,0.257-3.769,1.275-5.001,2.865l-4.785,6.19c-4.012,5.187-5.244,12.407-3.224,18.841
		C77.337,133.086,86.02,144.177,99.931,155.839z M80.746,106.609l4.786-6.189c0.531-0.688,1.289-1.118,2.149-1.232
		c0.859-0.115,1.705,0.114,2.393,0.645l14.699,11.362c1.418,1.089,1.678,3.124,0.587,4.542l-4.626,5.989
		c-0.561,0.573-1.879,2.192-1.763,4.928c0.186,4.757,4.599,10.217,13.038,16.162l0.674,0.516c7.951,6.72,14.355,9.613,19.011,8.597
		c2.666-0.587,3.913-2.264,4.314-2.951l4.627-5.99c0.53-0.687,1.29-1.117,2.149-1.231s1.705,0.114,2.393,0.644l14.457,11.162
		c0.688,0.53,1.117,1.29,1.231,2.149c0.115,0.86-0.114,1.706-0.645,2.393l-4.785,6.19c-3.295,4.269-8.367,6.647-13.555,6.402
		c-7.105-0.343-19.355-3.581-37.724-16.948c-17.58-14.385-23.813-25.431-25.933-32.222C76.621,116.41,77.595,110.692,80.746,106.609
		z"/>
	<path fill="#EB5454" d="M117.999,100.077c8.095-1.046,16.104,1.131,22.565,6.131c6.462,4.987,10.588,12.193,11.62,20.288
		c0.144,1.089,1.06,1.877,2.134,1.877c0.088,0,0.188,0,0.273-0.015c1.175-0.157,2.006-1.231,1.861-2.407
		c-1.202-9.241-5.902-17.451-13.266-23.153c-7.365-5.688-16.507-8.167-25.733-6.992c-1.175,0.158-2.006,1.232-1.862,2.407
		C115.734,99.403,116.81,100.219,117.999,100.077z"/>
	<path fill="#EB5454" d="M174.664,125.751c0.086,0,0.187,0,0.272-0.014c1.175-0.157,2.006-1.232,1.862-2.407
		c-1.877-14.672-9.37-27.739-21.076-36.779c-11.704-9.04-26.234-12.98-40.904-11.104c-1.176,0.158-2.007,1.232-1.862,2.407
		c0.156,1.174,1.218,2.005,2.406,1.862c13.539-1.734,26.936,1.906,37.726,10.244c10.801,8.339,17.693,20.389,19.428,33.914
		C172.673,124.962,173.604,125.751,174.664,125.751z"/>
</g>
</svg>
