<?xml version="1.0" encoding="utf-8"?>
<!-- Generator: Adobe Illustrator 16.0.0, SVG Export Plug-In . SVG Version: 6.00 Build 0)  -->
<!DOCTYPE svg PUBLIC "-//W3C//DTD SVG 1.1//EN" "http://www.w3.org/Graphics/SVG/1.1/DTD/svg11.dtd">
<svg version="1.1" id="Layer_1" xmlns="http://www.w3.org/2000/svg" xmlns:xlink="http://www.w3.org/1999/xlink" x="0px" y="0px"
	 width="250px" height="250px" viewBox="0 0 250 250" enable-background="new 0 0 250 250" xml:space="preserve">
<g>
	<path fill="#EB5454" stroke="#EB5454" stroke-width="1.5" stroke-linecap="round" stroke-miterlimit="10" d="M125.002,170.34
		c25.521,0,46.284-20.764,46.284-46.285s-20.764-46.284-46.284-46.284s-46.284,20.763-46.284,46.284S99.481,170.34,125.002,170.34z
		 M127.9,164.771c0.146-1.094,0.253-2.717-0.519-4.148c-1.545-2.865-1.822-5.18-0.737-6.193c1.244-1.16,4.696-0.947,9.597,2.15
		c1.279,0.809,3.029,0.887,4.682,0.211c2.828-1.154,3.834-0.521,5.66,0.629c1.206,0.762,2.648,1.666,4.902,2.244
		c-6.661,4.965-14.757,8.109-23.541,8.686C127.801,167.758,127.651,166.623,127.9,164.771z M160.684,150.438
		c-1.793-3.703-5.636-4.703-6.056-4.803c-1.83-0.52-3.015-1.342-3.518-2.445c-0.673-1.471-0.087-3.324,0.521-4.621
		c1.128-2.402,0.778-5.244-0.896-7.242c-2.99-3.57-6.784-3.898-7.325-3.928c-5.536-0.764-5.561-2.695-5.61-6.534
		c-0.023-1.693-0.048-3.612-0.565-5.76c-0.454-2.411,0.697-6.453,2.929-8.277c1.312-1.073,2.843-1.261,4.55-0.56
		c1.579,0.65,3.197,0.926,4.807,0.818c7.346-0.481,12.011,1.237,14.635,2.765c2.483,1.447,3.648,2.999,3.9,3.361
		c0.876,3.471,1.341,7.103,1.341,10.843C169.396,133.928,166.155,143.055,160.684,150.438z M137.917,81.579
		c5.887,1.794,11.258,4.78,15.833,8.677c-0.36,0.328-0.687,0.726-1.007,1.12c-1.174,1.437-2.187,2.677-4.688,1.591
		c-3.986-1.785-7.062-0.093-9.775,1.398c-2.453,1.348-4.571,2.513-7.188,1.303c-0.591-0.273-1.093-0.977-1.278-1.791
		c-0.162-0.718-0.052-1.398,0.298-1.818c1.93-2.319,2.942-4.19,3.76-5.692C134.961,84.358,135.702,82.999,137.917,81.579z
		 M114.16,81.002c3.209-0.809,6.558-1.267,10-1.331c-0.216,0.241-0.469,0.399-0.781,0.595c-0.68,0.425-1.525,0.953-2.274,2.418
		c-0.017,0.034-0.033,0.071-0.047,0.107c-0.892,2.463-2.51,3.825-4.121,3.472C115.5,85.948,114.082,84.175,114.16,81.002z
		 M102.916,85.555c0.285,2.08,1.604,3.975,2.89,5.82c1.538,2.207,3.13,4.488,3.139,7.155c-0.064,1.324-0.396,2.276-0.954,2.754
		c-0.4,0.341-0.964,0.474-1.675,0.393c-0.031-0.004-0.062-0.006-0.094-0.006c-1.749-0.027-4.923,0.172-6.581,1.805
		c-0.721,0.71-1.087,1.595-1.087,2.632c0,0.16,0.033,1.62,1.217,3.318c0.437,0.625,0.669,1.388,0.672,2.205
		c-0.063,1.748,0.133,2.689,1.446,3.64c0.903,0.654,1.638,0.873,2.348,1.084c0.838,0.25,1.705,0.508,3.121,1.641
		c0.958,0.768,2.163,1.207,3.392,1.239l2.106,0.053c0.885,0.022,1.668,0.517,2.045,1.288c1.563,3.203-0.546,5.349-4.205,8.504
		c-2.706,2.332-5.507,4.746-5.507,8.127v5.965c0,0.275-0.079,0.543-0.229,0.773c-0.252,0.387-0.521,0.795-0.758,1.152
		c-0.293,0.438-0.793,0.678-1.306,0.625c-2.894-0.279-3.333-2.029-3.862-5.098c-0.075-0.436-0.152-0.887-0.244-1.332
		c-0.423-2.064-1.638-3.918-3.328-5.088c-3.618-2.498-4.213-7.701-4.606-11.145c-0.031-0.278-0.062-0.544-0.092-0.796
		c-0.171-1.408-0.756-2.705-1.694-3.75c-1.69-1.886-2.982-2.117-4.349-2.362c-0.878-0.156-1.858-0.331-3.215-1.012
		C84.094,102.502,92.066,91.802,102.916,85.555z M81.159,117.065c1.345,0.608,2.37,0.793,3.229,0.946
		c1.256,0.225,2.017,0.361,3.273,1.764c0.679,0.755,1.103,1.696,1.225,2.717c0.031,0.247,0.062,0.508,0.093,0.782
		c0.406,3.553,1.084,9.502,5.409,12.486c1.295,0.895,2.226,2.32,2.551,3.91c0.085,0.416,0.16,0.855,0.233,1.275
		c0.477,2.773,1.071,6.225,5.541,6.658c0.106,0.01,0.212,0.016,0.318,0.016c1.095,0,2.125-0.547,2.74-1.475
		c0.242-0.363,0.517-0.779,0.771-1.17c0.35-0.535,0.535-1.16,0.535-1.803v-5.965c0-2.518,2.355-4.547,4.849-6.697
		c3.274-2.82,6.984-6.021,4.671-10.762c-0.688-1.409-2.103-2.308-3.694-2.348l-2.105-0.055c-0.819-0.021-1.623-0.313-2.261-0.825
		c-1.704-1.363-2.846-1.703-3.763-1.976c-0.635-0.189-1.136-0.339-1.779-0.805c-0.54-0.391-0.723-0.523-0.666-2.057
		c0.001-0.012,0.001-0.023,0.001-0.036c0-1.211-0.35-2.353-1.011-3.304c-0.844-1.212-0.877-2.205-0.877-2.237
		c0-0.526,0.166-0.935,0.522-1.286c0.835-0.823,2.768-1.295,5.185-1.262c1.214,0.127,2.272-0.163,3.064-0.837
		c0.985-0.841,1.53-2.229,1.617-4.127c0-0.015,0-0.029,0-0.044c0-3.269-1.846-5.918-3.478-8.257
		c-1.438-2.064-2.694-3.868-2.606-5.738c2.39-1.23,4.906-2.249,7.524-3.033c0.097,3.893,2.176,6.127,4.26,6.585
		c0.277,0.061,0.575,0.094,0.883,0.094c1.852,0,4.106-1.201,5.398-4.709c0.501-0.961,0.996-1.27,1.565-1.625
		c0.671-0.417,1.417-0.886,1.94-2.188c3.186,0.095,6.285,0.526,9.268,1.258c-1.665,1.38-2.446,2.814-3.376,4.528
		c-0.816,1.504-1.74,3.208-3.55,5.385c-0.731,0.88-0.983,2.134-0.688,3.439c0.317,1.41,1.187,2.564,2.327,3.09
		c1.046,0.483,2.035,0.68,2.978,0.68c2.199,0,4.14-1.067,5.915-2.042c2.552-1.404,4.964-2.729,8.103-1.324
		c3.819,1.659,5.681-0.618,6.91-2.126c0.312-0.38,0.679-0.831,0.971-1.046c5.248,4.871,9.319,10.992,11.734,17.884
		c-2.903-2.223-8.325-4.81-17.517-4.206c-1.316,0.087-2.652-0.143-3.963-0.681c-2.365-0.972-4.601-0.68-6.463,0.844
		c-2.86,2.339-4.163,7.12-3.585,10.119c0.003,0.013,0.007,0.029,0.01,0.042c0.473,1.95,0.496,3.764,0.518,5.362
		c0.051,3.976,0.097,7.41,7.287,8.388c0.03,0.006,0.066,0.008,0.098,0.008c0.137,0.006,3.398,0.16,5.991,3.254
		c1.204,1.438,1.454,3.49,0.636,5.229c-1.116,2.377-1.299,4.523-0.531,6.207c0.748,1.637,2.346,2.811,4.746,3.486
		c0.018,0.004,0.034,0.01,0.052,0.012c0.041,0.012,3.943,0.918,5.151,4.689c-1.78,2.174-3.762,4.172-5.918,5.971
		c-2.857-0.439-4.437-1.43-5.832-2.309c-1.96-1.236-3.653-2.305-7.381-0.779c-1.089,0.445-2.193,0.424-2.957-0.061
		c-5.215-3.295-9.663-4.018-11.897-1.932c-1.043,0.975-2.384,3.369,0.363,8.471c0.391,0.721,0.488,1.672,0.311,3
		c-0.24,1.791-0.156,3.064,0.003,3.916c-0.343,0.008-0.685,0.012-1.029,0.012c-24.479,0-44.395-19.916-44.395-44.394
		C80.607,121.678,80.798,119.343,81.159,117.065z"/>
	<g>
		<path fill="#EB5454" stroke="#EB5454" stroke-width="1.5" stroke-linecap="round" stroke-miterlimit="10" d="M183.729,98.566
			c-0.537-0.094-1.036,0.28-1.102,0.815l-0.938,7.585c-3.571-11.061-10.442-20.997-19.677-28.339
			c-5.239-4.167-11.094-7.414-17.398-9.649c-6.523-2.313-13.377-3.486-20.372-3.486c-6.994,0-13.849,1.174-20.372,3.486
			c-6.305,2.235-12.157,5.481-17.398,9.649c-10.491,8.341-17.929,20.028-20.948,32.911c-0.097,0.413,0.079,0.854,0.448,1.06
			c0.153,0.085,0.313,0.123,0.469,0.123c0.428,0,0.816-0.294,0.919-0.73c6.141-26.265,29.531-44.61,56.883-44.61
			c26.181,0,48.73,16.81,56,41.284l-6.752-6.672c-0.37-0.366-0.968-0.363-1.335,0.008s-0.364,0.969,0.007,1.336l8.599,8.497
			c0.366,0.361,0.902,0.488,1.393,0.328l0,0c0.507-0.165,0.872-0.608,0.937-1.138l1.404-11.359
			C184.559,99.157,184.233,98.654,183.729,98.566z"/>
	</g>
	<path fill="#EB5454" stroke="#EB5454" stroke-width="1.5" stroke-linecap="round" stroke-miterlimit="10" d="M183.825,137.316
		c-0.524-0.148-1.058,0.17-1.181,0.693c-6.141,26.264-29.532,44.609-56.883,44.609c-26.181,0-48.733-16.811-56.001-41.283
		l6.752,6.672c0.185,0.182,0.425,0.271,0.664,0.271c0.243,0,0.488-0.096,0.671-0.279c0.368-0.371,0.364-0.971-0.007-1.338
		l-8.602-8.498c-0.366-0.363-0.903-0.49-1.394-0.328l0,0c-0.505,0.164-0.866,0.609-0.932,1.135l-1.409,11.393
		c-0.057,0.445,0.197,0.889,0.622,1.033c0.587,0.197,1.179-0.195,1.249-0.777l0.938-7.584c3.572,11.061,10.442,20.994,19.678,28.338
		c5.24,4.166,11.093,7.412,17.398,9.648c6.524,2.313,13.377,3.486,20.372,3.486c6.993,0,13.849-1.174,20.372-3.486
		c6.303-2.236,12.156-5.482,17.397-9.648c10.484-8.336,17.919-20.012,20.941-32.883
		C184.588,137.992,184.318,137.459,183.825,137.316z"/>
</g>
</svg>
