<svg width="151" height="78" viewBox="0 0 151 78" fill="none" xmlns="http://www.w3.org/2000/svg">
<g clip-path="url(#clip0_821_142197)">
<path d="M5.02361 73.8626H2.20157L1.6708 75.4311H0L2.73234 67.8008H4.54144L7.25135 75.4311H5.51701L5.02361 73.8626ZM4.57508 72.5474L3.6182 69.5444L2.63142 72.5474H4.57508Z" fill="white"/>
<path d="M16.2071 75.4311H10.249V74.0861L14.2036 69.1532H10.3499V67.8008H16.1996V69.0787L12.1964 74.0861H16.2108V75.4311H16.2071Z" fill="white"/>
<path d="M17.3813 70.3975C17.7737 69.902 18.4428 69.6523 19.3959 69.6523C20.0164 69.6523 20.5659 69.7753 21.048 70.0212C21.5302 70.2671 21.7694 70.7291 21.7694 71.4072V73.9966C21.7694 74.1754 21.7694 74.3952 21.7807 74.6486C21.7919 74.8423 21.8218 74.9727 21.8704 75.0435C21.919 75.1143 21.99 75.1702 22.0872 75.2149V75.431H20.4762C20.4313 75.3155 20.4014 75.2112 20.3827 75.1106C20.364 75.01 20.3528 74.8982 20.3416 74.7678C20.136 74.9876 19.9005 75.1776 19.6352 75.3341C19.3174 75.5167 18.9549 75.6098 18.5549 75.6098C18.0428 75.6098 17.6205 75.4645 17.2841 75.1739C16.9514 74.8833 16.7832 74.4697 16.7832 73.9332C16.7832 73.2402 17.0523 72.7373 17.5868 72.428C17.8821 72.2604 18.3157 72.1374 18.8839 72.0666L19.3885 72.0033C19.6613 71.9698 19.8557 71.9251 19.9753 71.8729C20.1846 71.7835 20.293 71.6419 20.293 71.4556C20.293 71.2246 20.2108 71.0644 20.05 70.975C19.8893 70.8856 19.6538 70.8446 19.3399 70.8446C18.9885 70.8446 18.7418 70.9303 18.596 71.1054C18.4914 71.2321 18.4241 71.4072 18.3867 71.6233H16.9589C16.9888 71.1277 17.1271 70.7254 17.3738 70.4049L17.3813 70.3975ZM18.4839 74.3617C18.6222 74.4772 18.7941 74.5331 18.9922 74.5331C19.31 74.5331 19.6052 74.4399 19.8744 74.2536C20.1435 74.0674 20.2818 73.7283 20.293 73.2328V72.6851C20.1996 72.7447 20.1061 72.7894 20.0089 72.8267C19.9117 72.8639 19.7847 72.8975 19.6165 72.9273L19.2838 72.9906C18.9736 73.0465 18.7493 73.1136 18.6147 73.1918C18.3867 73.3259 18.2709 73.5346 18.2709 73.8177C18.2709 74.0711 18.3419 74.2499 18.4839 74.3617Z" fill="white"/>
<path d="M24.6061 67.752V69.1156H23.1035V67.752H24.6061ZM24.6061 69.7862V75.4307H23.1035V69.7862H24.6061Z" fill="white"/>
<path d="M28.7064 70.882C28.2055 70.882 27.8617 71.0944 27.671 71.5191C27.5739 71.7427 27.5253 72.0296 27.5253 72.3798V75.4349H26.0488V69.8016H27.4767V70.6249C27.6673 70.3343 27.8467 70.1257 28.0187 69.999C28.3252 69.7718 28.7101 69.6562 29.1774 69.6562C29.7642 69.6562 30.2426 69.809 30.6127 70.1145C30.9827 70.42 31.1696 70.9267 31.1696 71.6346V75.4349H29.6521V72.0035C29.6521 71.7054 29.611 71.4781 29.5325 71.3217C29.3867 71.0311 29.1101 70.8857 28.7027 70.8857L28.7064 70.882Z" fill="white"/>
<path d="M37.8525 75.6187C37.0751 75.6187 36.4695 75.3914 36.036 74.9368C35.5986 74.4823 35.3818 73.9756 35.3818 73.4205C35.3818 72.9622 35.4977 72.5673 35.7257 72.2394C35.9537 71.9115 36.3275 71.5874 36.8471 71.267L37.0078 71.1701C36.7873 70.9205 36.6153 70.6671 36.492 70.4101C36.3686 70.153 36.3088 69.881 36.3088 69.6016C36.3088 69.0464 36.4957 68.6105 36.8695 68.2976C37.2433 67.9846 37.7292 67.8281 38.3235 67.8281C38.8655 67.8281 39.3177 67.9883 39.6728 68.3087C40.0279 68.6292 40.2036 69.0353 40.2036 69.5345C40.2036 69.9816 40.0952 70.3467 39.8822 70.6262C39.6691 70.9056 39.3551 71.1664 38.944 71.4011L40.0279 72.7387C40.1513 72.5598 40.2485 72.3661 40.3157 72.1537C40.383 71.9413 40.4204 71.7215 40.4241 71.4868H41.7398C41.7174 71.9488 41.609 72.4182 41.4072 72.8914C41.295 73.1559 41.1156 73.4503 40.8652 73.7707L42.2557 75.4361H40.4578L39.927 74.7878C39.6691 75.0263 39.4299 75.2014 39.2094 75.3169C38.8131 75.5218 38.3609 75.6224 37.8413 75.6224L37.8525 75.6187ZM37.7703 72.109C37.4003 72.3549 37.1536 72.571 37.0339 72.7573C36.9143 72.9436 36.8545 73.1485 36.8545 73.372C36.8545 73.6254 36.9592 73.8564 37.1648 74.065C37.3703 74.2774 37.6357 74.3817 37.9572 74.3817C38.2001 74.3817 38.4281 74.3258 38.6449 74.2141C38.8617 74.1023 39.0374 73.9756 39.172 73.8377L37.7703 72.109ZM37.6731 69.5457C37.6731 69.6835 37.7217 69.8289 37.8189 69.9816C37.8824 70.0822 38.017 70.261 38.2226 70.5144C38.4319 70.3691 38.5777 70.2461 38.6674 70.1455C38.8393 69.9593 38.929 69.7581 38.929 69.5382C38.929 69.378 38.8767 69.2365 38.772 69.1135C38.6674 68.9906 38.5104 68.9272 38.3011 68.9272C38.1702 68.9272 38.0469 68.9645 37.931 69.0353C37.7591 69.1433 37.6694 69.311 37.6694 69.542L37.6731 69.5457Z" fill="white"/>
<path d="M49.6383 75.6438C48.5431 75.6438 47.7059 75.3458 47.1302 74.7534C46.3528 74.0231 45.9678 72.9762 45.9678 71.6051C45.9678 70.234 46.3565 69.1573 47.1302 68.4569C47.7096 67.8645 48.5469 67.5664 49.6383 67.5664C50.7297 67.5664 51.5707 67.8645 52.1464 68.4569C52.9201 69.1573 53.3051 70.208 53.3051 71.6051C53.3051 73.0023 52.9201 74.0231 52.1464 74.7534C51.567 75.3458 50.7297 75.6438 49.6383 75.6438ZM51.1484 73.5947C51.5184 73.1289 51.7053 72.4658 51.7053 71.6051C51.7053 70.7445 51.5184 70.0887 51.1484 69.6193C50.7746 69.1536 50.2737 68.9189 49.6383 68.9189C49.0029 68.9189 48.4983 69.1499 48.1208 69.6193C47.7432 70.0887 47.5563 70.7482 47.5563 71.6088C47.5563 72.4695 47.7432 73.1289 48.1208 73.5984C48.4983 74.0678 49.0029 74.2988 49.6383 74.2988C50.2737 74.2988 50.7746 74.0678 51.1484 73.5984V73.5947Z" fill="white"/>
<path d="M57.585 71.3406C57.4616 71.0687 57.2149 70.9308 56.8524 70.9308C56.43 70.9308 56.1459 71.0687 56.0001 71.3406C55.9216 71.4971 55.8805 71.7281 55.8805 72.0336V75.4315H54.3779V69.7982H55.817V70.6216C56.0001 70.3272 56.1721 70.1186 56.3365 69.9957C56.6244 69.7758 56.9981 69.6641 57.4542 69.6641C57.8877 69.6641 58.2354 69.7572 58.5045 69.9472C58.7213 70.1223 58.882 70.3496 58.9941 70.6253C59.1885 70.2937 59.4277 70.0515 59.7155 69.8951C60.022 69.7386 60.3584 69.6641 60.7322 69.6641C60.9826 69.6641 61.2293 69.7125 61.4686 69.8094C61.7115 69.9062 61.932 70.0739 62.1264 70.3161C62.2871 70.5135 62.3918 70.7557 62.4479 71.0426C62.4815 71.2326 62.5002 71.512 62.5002 71.8772L62.489 75.4352H60.9714V71.8436C60.9714 71.6313 60.9378 71.4524 60.8668 71.3146C60.7359 71.0538 60.493 70.9196 60.1379 70.9196C59.7305 70.9196 59.4464 71.0873 59.2932 71.4263C59.2147 71.6052 59.1735 71.8213 59.1735 72.0746V75.4352H57.6822V72.0746C57.6822 71.7393 57.6485 71.4971 57.5775 71.3444L57.585 71.3406Z" fill="white"/>
<path d="M64.0815 70.3975C64.4739 69.902 65.143 69.6523 66.0961 69.6523C66.7166 69.6523 67.2661 69.7753 67.7482 70.0212C68.2304 70.2671 68.4696 70.7291 68.4696 71.4072V73.9966C68.4696 74.1754 68.4696 74.3952 68.4809 74.6486C68.4921 74.8423 68.522 74.9727 68.5706 75.0435C68.6191 75.1143 68.6902 75.1702 68.7873 75.2149V75.431H67.1764C67.1315 75.3155 67.1016 75.2112 67.0829 75.1106C67.0642 75.01 67.053 74.8982 67.0418 74.7678C66.8362 74.9876 66.6007 75.1776 66.3353 75.3341C66.0176 75.5167 65.6551 75.6098 65.2551 75.6098C64.743 75.6098 64.3207 75.4645 63.9843 75.1739C63.6516 74.8833 63.4834 74.4697 63.4834 73.9332C63.4834 73.2402 63.7525 72.7373 64.287 72.428C64.5823 72.2604 65.0159 72.1374 65.5841 72.0666L66.0887 72.0033C66.3615 71.9698 66.5596 71.9251 66.6755 71.8729C66.8885 71.7835 66.9932 71.6419 66.9932 71.4556C66.9932 71.2246 66.9147 71.0644 66.7502 70.975C66.5895 70.8856 66.354 70.8446 66.0401 70.8446C65.6887 70.8446 65.442 70.9303 65.2962 71.1054C65.1916 71.2321 65.1243 71.4072 65.0869 71.6233H63.6591C63.689 71.1277 63.8273 70.7254 64.074 70.4049L64.0815 70.3975ZM65.1841 74.3617C65.3224 74.4772 65.4906 74.5331 65.6924 74.5331C66.0102 74.5331 66.3054 74.4399 66.5746 74.2536C66.8437 74.0674 66.982 73.7283 66.9932 73.2328V72.6851C66.8998 72.7447 66.8063 72.7894 66.7091 72.8267C66.6119 72.8639 66.4811 72.8975 66.3167 72.9273L65.984 72.9906C65.6738 73.0465 65.4495 73.1136 65.3149 73.1918C65.0869 73.3259 64.9711 73.5346 64.9711 73.8177C64.9711 74.0711 65.0421 74.2499 65.1841 74.3617Z" fill="white"/>
<path d="M72.4466 70.882C71.9458 70.882 71.5982 71.0944 71.4113 71.5191C71.3141 71.7427 71.2655 72.0296 71.2655 72.3798V75.4349H69.7891V69.8016H71.2169V70.6249C71.4075 70.3343 71.5869 70.1257 71.7589 69.999C72.0654 69.7718 72.4504 69.6562 72.9176 69.6562C73.5044 69.6562 73.9829 69.809 74.3529 70.1145C74.7267 70.42 74.9099 70.9267 74.9099 71.6346V75.4349H73.3923V72.0035C73.3923 71.7054 73.3512 71.4781 73.2727 71.3217C73.1269 71.0311 72.8503 70.8857 72.4429 70.8857L72.4466 70.882Z" fill="white"/>
<path d="M78.8715 74.3817V75.4845L78.1688 75.5106C77.4698 75.5367 76.9914 75.4137 76.7334 75.1492C76.569 74.9816 76.483 74.7207 76.483 74.3668V70.8944H75.6943V69.8437H76.483V68.2715H77.9482V69.8437H78.8677V70.8944H77.9482V73.875C77.9482 74.106 77.9781 74.2513 78.0379 74.3072C78.0977 74.3631 78.2772 74.3929 78.5799 74.3929C78.6248 74.3929 78.6734 74.3929 78.722 74.3929C78.7706 74.3929 78.8229 74.3892 78.8715 74.3854V74.3817Z" fill="white"/>
<path d="M84.6687 73.7742C84.6313 74.1096 84.4557 74.4486 84.1454 74.7951C83.6595 75.3428 82.983 75.6185 82.1083 75.6185C81.3869 75.6185 80.7515 75.3875 80.202 74.9255C79.6526 74.4635 79.376 73.7109 79.376 72.6677C79.376 71.6916 79.6227 70.9427 80.1198 70.4211C80.6169 69.8995 81.2598 69.6387 82.056 69.6387C82.5269 69.6387 82.9493 69.7281 83.3268 69.9032C83.7044 70.0783 84.0146 70.3577 84.2613 70.7378C84.4818 71.0731 84.6276 71.4606 84.6911 71.9039C84.7285 72.161 84.7435 72.5373 84.736 73.0216H80.8599C80.8823 73.588 81.058 73.9829 81.3944 74.2139C81.6 74.3555 81.8429 74.4263 82.1307 74.4263C82.4335 74.4263 82.6839 74.3406 82.8746 74.1655C82.9792 74.0723 83.0689 73.9419 83.1512 73.778H84.6612L84.6687 73.7742ZM83.2035 72.0455C83.1773 71.6543 83.0615 71.36 82.8484 71.1588C82.6353 70.9576 82.37 70.857 82.056 70.857C81.7121 70.857 81.4467 70.965 81.2598 71.1774C81.0729 71.3935 80.9533 71.6804 80.9047 72.0455H83.2072H83.2035Z" fill="white"/>
<path d="M85.7715 67.8008H87.2517V75.4311H85.7715V67.8008Z" fill="white"/>
<path d="M97.1723 74.8618C96.6004 75.3834 95.8715 75.6443 94.9819 75.6443C93.8793 75.6443 93.0158 75.294 92.3841 74.5899C91.7525 73.882 91.4385 72.9133 91.4385 71.6801C91.4385 70.3462 91.7973 69.3217 92.515 68.5989C93.1392 67.9692 93.9316 67.6562 94.8959 67.6562C96.1855 67.6562 97.1274 68.0773 97.7217 68.9193C98.0507 69.3924 98.2263 69.8656 98.2525 70.3425H96.6527C96.5481 69.9774 96.4172 69.7017 96.2528 69.5154C95.9612 69.1838 95.5314 69.0199 94.9595 69.0199C94.3876 69.0199 93.9204 69.2546 93.584 69.7203C93.2476 70.1898 93.0794 70.8492 93.0794 71.7061C93.0794 72.5631 93.2551 73.2039 93.6101 73.6286C93.9652 74.0534 94.4175 74.2695 94.9632 74.2695C95.5089 74.2695 95.95 74.0869 96.2453 73.7218C96.406 73.5243 96.5443 73.23 96.649 72.835H98.2338C98.0955 73.6659 97.7404 74.344 97.176 74.8656L97.1723 74.8618Z" fill="white"/>
<path d="M104.057 70.5016C104.535 71.0977 104.774 71.8056 104.774 72.6178C104.774 73.43 104.535 74.1528 104.057 74.7415C103.578 75.3302 102.853 75.6245 101.881 75.6245C100.91 75.6245 100.184 75.3302 99.7059 74.7415C99.2275 74.1528 98.9883 73.4449 98.9883 72.6178C98.9883 71.7907 99.2275 71.0977 99.7059 70.5016C100.184 69.9055 100.91 69.6074 101.881 69.6074C102.853 69.6074 103.578 69.9055 104.057 70.5016ZM101.874 70.8555C101.44 70.8555 101.108 71.0083 100.876 71.3138C100.644 71.6193 100.525 72.0552 100.525 72.6215C100.525 73.1879 100.64 73.6238 100.876 73.933C101.108 74.2423 101.444 74.395 101.874 74.395C102.304 74.395 102.64 74.2423 102.872 73.933C103.104 73.6275 103.219 73.1879 103.219 72.6215C103.219 72.0552 103.104 71.6193 102.872 71.3138C102.64 71.0083 102.307 70.8555 101.874 70.8555Z" fill="white"/>
<path d="M109.014 71.3406C108.89 71.0687 108.644 70.9308 108.281 70.9308C107.859 70.9308 107.575 71.0687 107.429 71.3406C107.35 71.4971 107.309 71.7281 107.309 72.0336V75.4315H105.807V69.7982H107.246V70.6216C107.429 70.3272 107.601 70.1186 107.765 69.9957C108.053 69.7758 108.423 69.6641 108.883 69.6641C109.316 69.6641 109.664 69.7572 109.933 69.9472C110.146 70.1223 110.311 70.3496 110.423 70.6253C110.617 70.2937 110.856 70.0515 111.144 69.8951C111.451 69.7386 111.787 69.6641 112.161 69.6641C112.411 69.6641 112.654 69.7125 112.897 69.8094C113.14 69.9062 113.361 70.0739 113.559 70.3161C113.72 70.5135 113.824 70.7557 113.88 71.0426C113.914 71.2326 113.933 71.512 113.933 71.8772L113.921 75.4352H112.404V71.8436C112.404 71.6313 112.37 71.4524 112.299 71.3146C112.168 71.0538 111.925 70.9196 111.57 70.9196C111.163 70.9196 110.879 71.0873 110.722 71.4263C110.643 71.6052 110.602 71.8213 110.602 72.0746V75.4352H109.111V72.0746C109.111 71.7393 109.077 71.4971 109.006 71.3444L109.014 71.3406Z" fill="white"/>
<path d="M120.036 70.3943C120.492 70.8824 120.72 71.594 120.72 72.5366C120.72 73.5314 120.496 74.2877 120.048 74.8093C119.599 75.3309 119.02 75.5917 118.317 75.5917C117.868 75.5917 117.491 75.48 117.196 75.2564C117.031 75.1335 116.874 74.9509 116.717 74.7125V77.6521H115.252V69.787H116.669V70.6216C116.829 70.3757 116.998 70.1819 117.177 70.0404C117.506 69.787 117.898 69.6641 118.351 69.6641C119.012 69.6641 119.573 69.9062 120.033 70.3943H120.036ZM119.195 72.6111C119.195 72.1752 119.094 71.7915 118.896 71.4561C118.698 71.1208 118.373 70.9532 117.928 70.9532C117.39 70.9532 117.024 71.2065 116.822 71.7132C116.717 71.9815 116.665 72.3242 116.665 72.7378C116.665 73.3935 116.841 73.8555 117.188 74.1201C117.397 74.2765 117.64 74.3511 117.924 74.3511C118.336 74.3511 118.65 74.1908 118.866 73.8742C119.083 73.5575 119.192 73.1327 119.192 72.6037L119.195 72.6111Z" fill="white"/>
<path d="M122.002 70.3975C122.395 69.902 123.064 69.6523 124.017 69.6523C124.638 69.6523 125.187 69.7753 125.669 70.0212C126.151 70.2671 126.391 70.7291 126.391 71.4072V73.9966C126.391 74.1754 126.391 74.3952 126.402 74.6486C126.413 74.8423 126.443 74.9727 126.491 75.0435C126.54 75.1143 126.611 75.1702 126.708 75.2149V75.431H125.097C125.052 75.3155 125.022 75.2112 125.004 75.1106C124.985 75.01 124.974 74.8982 124.963 74.7678C124.757 74.9876 124.522 75.1776 124.256 75.3341C123.939 75.5167 123.576 75.6098 123.176 75.6098C122.664 75.6098 122.242 75.4645 121.905 75.1739C121.573 74.8833 121.404 74.4697 121.404 73.9332C121.404 73.2402 121.673 72.7373 122.208 72.428C122.503 72.2604 122.937 72.1374 123.505 72.0666L124.01 72.0033C124.282 71.9698 124.481 71.9251 124.596 71.8729C124.809 71.7835 124.914 71.6419 124.914 71.4556C124.914 71.2246 124.832 71.0644 124.671 70.975C124.51 70.8856 124.275 70.8446 123.961 70.8446C123.61 70.8446 123.363 70.9303 123.217 71.1054C123.112 71.2321 123.045 71.4072 123.008 71.6233H121.58C121.61 71.1277 121.748 70.7254 121.995 70.4049L122.002 70.3975ZM123.105 74.3617C123.243 74.4772 123.412 74.5331 123.613 74.5331C123.931 74.5331 124.226 74.4399 124.495 74.2536C124.765 74.0674 124.903 73.7283 124.914 73.2328V72.6851C124.821 72.7447 124.727 72.7894 124.63 72.8267C124.533 72.8639 124.406 72.8975 124.238 72.9273L123.905 72.9906C123.595 73.0465 123.37 73.1136 123.236 73.1918C123.008 73.3259 122.892 73.5346 122.892 73.8177C122.892 74.0711 122.963 74.2499 123.105 74.3617Z" fill="white"/>
<path d="M130.371 70.882C129.871 70.882 129.523 71.0944 129.336 71.5191C129.239 71.7427 129.19 72.0296 129.19 72.3798V75.4349H127.714V69.8016H129.142V70.6249C129.332 70.3343 129.512 70.1257 129.684 69.999C129.986 69.7718 130.375 69.6562 130.842 69.6562C131.429 69.6562 131.908 69.809 132.278 70.1145C132.648 70.42 132.835 70.9267 132.835 71.6346V75.4349H131.317V72.0035C131.317 71.7054 131.276 71.4781 131.198 71.3217C131.052 71.0311 130.775 70.8857 130.368 70.8857L130.371 70.882Z" fill="white"/>
<path d="M136.505 73.9527L137.675 69.791H139.248L137.305 75.3424C136.931 76.4117 136.636 77.0749 136.415 77.3319C136.198 77.589 135.761 77.7194 135.107 77.7194C134.976 77.7194 134.871 77.7194 134.789 77.7194C134.711 77.7194 134.591 77.712 134.43 77.7008V76.5197L134.617 76.5309C134.763 76.5383 134.901 76.5309 135.032 76.516C135.163 76.4974 135.275 76.4601 135.365 76.3968C135.451 76.3372 135.533 76.2142 135.608 76.0279C135.682 75.8416 135.712 75.7261 135.697 75.6851L133.619 69.7947H135.268L136.505 73.9564V73.9527Z" fill="white"/>
<path d="M29.3341 43.4561C29.2257 43.4225 29.1211 43.389 29.0127 43.3555L28.9043 43.4561H29.3304H29.3341Z" fill="white"/>
<path d="M28.9079 43.4558L29.0163 43.3552C23.7348 41.7196 18.5542 39.7413 13.5306 37.4648C7.80425 42.964 3.86834 50.0653 2.26855 57.841H51.4095L53.4653 48.2397C45.3132 47.5206 37.2133 45.8701 29.3378 43.4521H28.9117L28.9079 43.4558Z" fill="white"/>
<path d="M51.5662 22.6041C57.543 17.1049 61.662 9.89557 63.3627 1.96718L63.4039 1.77344H15.003L11.8184 16.1623H36.6561L21.2638 30.3276C27.4349 31.5869 33.6546 32.6338 39.8968 33.3454L51.5662 22.6041Z" fill="white"/>
<path d="M65.0117 48.6175C69.2915 54.7314 76.6587 58.9005 87.4199 58.9005C106.827 58.9005 118.425 44.7539 120.271 30.3613C111.529 34.9701 102.524 40.1824 93.1238 43.5356C83.9774 46.7807 74.517 48.3828 65.0117 48.6175Z" fill="white"/>
<path d="M78.6249 32.2831C78.9351 23.6729 84.1793 15.3123 92.6193 15.3123C98.4652 15.3123 101.377 19.4032 101.956 24.5447C107.66 22.1565 113.345 19.664 119.191 17.5887C116.119 8.07692 107.716 0.714844 93.5761 0.714844C72.1361 0.714844 60.4629 17.749 60.4629 33.3002C60.4629 33.6318 60.4704 33.9597 60.4816 34.2913C66.2864 34.1199 72.08 33.5387 77.8288 32.4433C78.0979 32.3949 78.3595 32.339 78.6286 32.2868L78.6249 32.2831Z" fill="white"/>
<path d="M120.858 57.8447H139.009L147.06 20.2109C140.53 21.053 134.064 23.5157 127.527 26.6863L120.862 57.8447H120.858Z" fill="white"/>
<path d="M148.536 13.3009L151.003 1.77344H132.852L130.157 14.3776C131.275 14.128 132.404 13.9007 133.54 13.7033C138.5 12.7569 143.625 12.5669 148.536 13.3009Z" fill="white"/>
</g>
<defs>
<clipPath id="clip0_821_142197">
<rect width="151" height="77" fill="white" transform="translate(0 0.714844)"/>
</clipPath>
</defs>
</svg>
