<?xml version="1.0" encoding="utf-8"?>
<!-- Generator: Adobe Illustrator 16.0.0, SVG Export Plug-In . SVG Version: 6.00 Build 0)  -->
<!DOCTYPE svg PUBLIC "-//W3C//DTD SVG 1.1//EN" "http://www.w3.org/Graphics/SVG/1.1/DTD/svg11.dtd">
<svg version="1.1" id="Layer_1" xmlns="http://www.w3.org/2000/svg" xmlns:xlink="http://www.w3.org/1999/xlink" x="0px" y="0px"
	 width="250px" height="250px" viewBox="0 0 250 250" enable-background="new 0 0 250 250" xml:space="preserve">
<g>
	<g>
		<path fill="none" stroke="#EB5454" stroke-width="4" stroke-linecap="round" stroke-linejoin="round" stroke-miterlimit="10" d="
			M147.436,107.061V82.745c0-1.602-1.299-2.899-2.899-2.899H96.49c-1.602,0-2.9,1.298-2.9,2.899v84.509c0,1.602,1.299,2.9,2.9,2.9
			h48.046c1.601,0,2.899-1.299,2.899-2.9v-41.813"/>
		<path fill="none" stroke="#EB5454" stroke-width="4" stroke-linecap="round" stroke-linejoin="round" stroke-miterlimit="10" d="
			M125.047,156.571c0,2.5-2.027,4.527-4.528,4.527s-4.527-2.027-4.527-4.527c0-2.501,2.026-4.528,4.527-4.528"/>
		
			<line fill="none" stroke="#EB5454" stroke-width="4" stroke-linecap="round" stroke-linejoin="round" stroke-miterlimit="10" x1="111.458" y1="88.9" x2="129.326" y2="88.9"/>
	</g>
	
		<polyline fill="none" stroke="#EB5454" stroke-width="4" stroke-linecap="round" stroke-linejoin="round" stroke-miterlimit="10" points="
		120.191,125.058 129.303,134.168 156.41,107.061 	"/>
</g>
</svg>
