<?xml version="1.0" encoding="utf-8"?>
<!-- Generator: Adobe Illustrator 16.0.0, SVG Export Plug-In . SVG Version: 6.00 Build 0)  -->
<!DOCTYPE svg PUBLIC "-//W3C//DTD SVG 1.1//EN" "http://www.w3.org/Graphics/SVG/1.1/DTD/svg11.dtd">
<svg version="1.1" id="Layer_1" xmlns="http://www.w3.org/2000/svg" xmlns:xlink="http://www.w3.org/1999/xlink" x="0px" y="0px"
	 width="250px" height="250px" viewBox="0 0 250 250" enable-background="new 0 0 250 250" xml:space="preserve">
<g>
	<path fill="#EB5454" d="M124.538,178.69c0.496,0,0.988,0.012,1.508,0.027c0.52,0.015,1.051,0.026,1.589,0.026
		c0.554,0,1.119-0.015,1.684-0.061c1.02-0.084,1.776-0.978,1.692-1.998c-0.085-1.019-0.979-1.779-1.998-1.691
		c-0.84,0.069-1.71,0.054-2.622,0.031v-51.877h2.775c1.023,0,1.852-0.829,1.852-1.852c0-1.023-0.828-1.853-1.852-1.853h-2.775V67.72
		c10.798,1.259,20.497,13.459,25.048,31.807c0.244,0.994,1.249,1.596,2.241,1.352c0.993-0.244,1.597-1.249,1.353-2.241
		C152.53,88.561,148.483,80,143.324,73.871c-1.352-1.607-2.768-3.028-4.234-4.253c15.251,4.295,28.111,15.212,34.664,30.192
		c0.408,0.935,1.5,1.362,2.439,0.955c0.936-0.409,1.363-1.501,0.955-2.437c-9.145-20.914-29.796-34.423-52.61-34.423
		c-31.647,0-57.391,25.748-57.391,57.391C67.147,152.939,92.891,178.69,124.538,178.69z M70.881,123.148H91.18
		c0.264,14.46,3.597,28.012,9.455,38.337c2.711,4.776,5.827,8.626,9.225,11.463C87.938,166.709,71.691,146.853,70.881,123.148z
		 M122.686,174.88c-7.041-0.798-13.67-6.128-18.829-15.221c-5.552-9.778-8.714-22.685-8.973-36.507h27.802V174.88z M94.884,119.444
		c0.259-13.822,3.421-26.729,8.973-36.508c5.159-9.091,11.788-14.422,18.829-15.22v51.728H94.884z M109.864,69.648
		c-3.398,2.837-6.514,6.689-9.225,11.462c-5.862,10.326-9.191,23.877-9.455,38.338H70.881
		C71.691,95.74,87.938,75.884,109.864,69.648z"/>
	<path fill="#EB5454" d="M142.125,104.636c-4.081,0-7.403,3.323-7.403,7.403v66.651c0,4.083,3.322,7.404,7.403,7.404h33.324
		c4.081,0,7.403-3.321,7.403-7.404V112.04c0-4.081-3.322-7.403-7.403-7.403H142.125z M175.449,182.392h-33.324
		c-2.042,0-3.703-1.662-3.703-3.705v-3.703h40.731v3.703C179.153,180.729,177.491,182.392,175.449,182.392z M179.153,112.04v59.244
		h-40.731V112.04c0-2.042,1.661-3.704,3.703-3.704h33.324C177.491,108.336,179.153,109.998,179.153,112.04z"/>
</g>
</svg>
