<svg width="106" height="106" viewBox="0 0 106 106" fill="none" xmlns="http://www.w3.org/2000/svg">
<path d="M91.4094 89.0004C94.7894 92.3804 98.0894 95.6804 101.399 98.9804C102.519 100.1 103.629 101.22 104.759 102.33C105.369 102.93 105.849 103.55 105.479 104.47C105.099 105.4 104.329 105.59 103.409 105.59C92.3294 105.59 81.2594 105.59 70.1794 105.59C64.4794 105.59 58.7694 105.61 53.0694 105.59C29.9694 105.49 9.73943 90.5604 2.88943 68.6004C-6.19057 39.4604 11.5194 8.64044 41.2594 1.81044C64.0594 -3.42956 87.8594 7.32044 99.0594 27.9104C109.819 47.6804 107.179 71.0904 92.2894 87.9904C92.0194 88.2904 91.7594 88.6004 91.4094 88.9904V89.0004ZM99.4594 102.18C99.5194 102.05 99.5894 101.92 99.6494 101.78C99.2694 101.49 98.8694 101.22 98.5294 100.89C95.3194 97.7004 92.1194 94.5004 88.9294 91.2904C87.4194 89.7804 87.3994 88.3504 88.8194 86.7404C88.9694 86.5704 89.1194 86.4204 89.2694 86.2504C99.8794 74.3204 104.039 60.4304 101.429 44.6904C98.0294 24.2504 81.1894 7.61044 60.7494 4.51044C46.0294 2.28044 32.8094 5.94044 21.3294 15.5004C6.08943 28.2004 0.0294294 49.6304 6.33943 68.2904C13.3094 88.8904 31.8094 102.16 53.5794 102.18C68.4794 102.18 83.3794 102.18 98.2794 102.18C98.6694 102.18 99.0594 102.18 99.4494 102.18H99.4594Z" fill="white"/>
</svg>
