<svg width="81" height="78" viewBox="0 0 81 78" fill="none" xmlns="http://www.w3.org/2000/svg">
<path d="M0.02 34.703V32.823C0.7 30.603 2.07 29.173 4.48 28.933C4.65 28.913 4.85 28.623 4.92 28.413C5.3 27.333 5.54 26.183 6.01 25.143C7.05 22.843 8.2 20.583 9.32 18.313C9.59 17.763 10.07 17.513 10.7 17.733C11.25 17.923 11.6 18.323 11.54 18.913C11.5 19.253 11.3 19.593 11.11 19.903C9.52 22.533 8.33 25.333 7.41 28.263C7.17 29.053 7.28 29.513 7.88 30.233C8.83 31.393 9.74 31.323 10.96 31.083C14.97 30.283 19.03 29.953 23.11 29.843C23.39 29.843 23.77 29.663 23.92 29.443C25.12 27.653 26.77 26.883 28.89 27.173C29.32 27.233 29.55 27.113 29.79 26.783C32.01 23.783 34.52 21.063 37.33 18.613C37.63 18.353 37.66 18.143 37.57 17.753C37.39 16.973 37.28 16.163 37.3 15.373C37.31 14.913 37.28 14.663 36.86 14.453C35.6 13.813 34.4 13.063 33.11 12.513C30.58 11.423 28 10.443 25.48 9.43304C23.63 12.323 20.77 12.813 18.19 11.293C17.14 12.373 16.07 13.483 15 14.593C14.42 15.183 13.83 15.253 13.28 14.783C12.71 14.293 12.68 13.633 13.27 13.003C14.22 11.993 15.18 10.993 16.19 10.053C16.6 9.67304 16.74 9.39304 16.55 8.80304C15.88 6.74304 16.66 4.65304 18.46 3.45304C20.27 2.25304 22.47 2.35304 24.12 3.79304C24.56 4.17304 24.85 4.06304 25.28 3.86304C36.26 -1.22696 47.28 -1.28696 58.32 3.68304C58.8 3.90304 59.11 3.93304 59.57 3.58304C61.08 2.42304 62.75 2.31304 64.43 3.16304C66.12 4.02304 67.32 5.48304 67.02 7.35304C66.76 9.03304 67.46 9.90304 68.57 10.763C68.67 10.843 68.77 10.933 68.85 11.033C69.16 11.433 69.48 11.493 70 11.323C71.97 10.663 73.98 11.323 75.23 12.983C76.45 14.593 76.55 16.723 75.43 18.413C75.13 18.853 75.15 19.153 75.4 19.583C77.6 23.403 79.05 27.493 79.77 31.843C80.01 33.303 80.18 34.783 80.38 36.253V41.123C80.28 41.843 80.18 42.563 80.09 43.293C78.93 52.673 74.84 60.553 67.97 67.013C67.57 67.383 67.48 67.683 67.64 68.213C68.25 70.223 67.49 72.263 65.77 73.443C64.01 74.643 61.84 74.593 60.16 73.243C59.78 72.933 59.52 72.953 59.13 73.153C55.42 75.043 51.5 76.253 47.37 76.813C39.54 77.873 32.06 76.723 24.97 73.213C24.46 72.963 24.13 72.973 23.65 73.293C22.03 74.413 19.99 74.353 18.36 73.213C16.73 72.063 15.97 70.163 16.45 68.273C16.57 67.783 16.5 67.483 16.11 67.133C13.16 64.463 10.71 61.383 8.74 57.923C5.42 52.083 3.66 45.813 3.57 39.083C3.57 38.813 3.46 38.363 3.3 38.303C1.55 37.683 0.55 36.403 0 34.703H0.02ZM26.67 36.483C26.61 36.573 26.57 36.603 26.55 36.653C22.35 45.323 20.71 54.473 21.56 64.063C21.58 64.293 21.91 64.603 22.16 64.673C23.2 64.973 24.11 65.473 24.75 66.343C25.06 66.773 25.33 66.753 25.73 66.563C29.2 64.933 32.78 63.503 36.13 61.653C44.04 57.273 50.75 51.413 56.42 44.373C56.69 44.033 56.74 43.803 56.51 43.423C55.96 42.523 55.77 41.513 55.93 40.483C56.01 39.963 55.82 39.763 55.38 39.553C49.63 36.713 43.61 34.703 37.32 33.493C35.82 33.203 34.29 33.003 32.81 32.763C31.65 35.863 29.75 36.993 26.68 36.493L26.67 36.483ZM65.96 65.623C65.96 65.623 66.06 65.593 66.1 65.563C69.7 62.313 72.51 58.493 74.6 54.113C74.84 53.613 74.6 53.403 74.31 53.123C71.3 50.123 68.07 47.403 64.57 44.983C64.29 44.783 64.06 44.413 63.56 44.763C63.04 45.113 63.22 45.493 63.31 45.903C63.67 47.693 64.07 49.483 64.39 51.273C64.53 52.083 64.13 52.583 63.41 52.693C62.68 52.793 62.22 52.353 62.04 51.423C61.69 49.563 61.32 47.703 60.97 45.923C60.3 45.813 59.76 45.833 59.34 45.623C58.7 45.313 58.43 45.603 58.06 46.053C52.1 53.413 45.04 59.493 36.71 64.013C33.42 65.803 29.91 67.193 26.5 68.783C26.25 68.903 25.91 69.093 25.85 69.323C25.71 69.833 25.7 70.393 25.65 70.923C25.72 70.963 25.76 71.003 25.8 71.023C36.52 76.193 47.25 76.203 58 71.133C58.41 70.943 58.48 70.723 58.43 70.293C58.16 67.743 59.44 65.723 61.83 64.973C62.26 64.843 62.41 64.633 62.43 64.223C62.5 62.393 62.59 60.563 62.65 58.743C62.68 57.823 63.1 57.323 63.86 57.333C64.59 57.343 65.02 57.833 65.01 58.713C64.97 60.413 65.01 62.123 64.8 63.803C64.68 64.803 64.95 65.313 65.82 65.613C65.87 65.633 65.92 65.633 65.97 65.643L65.96 65.623ZM17.9 65.593C19.26 65.293 19.23 64.393 19.15 63.363C18.8 59.283 18.97 55.213 19.59 51.163C20.41 45.773 22.02 40.633 24.37 35.723C24.47 35.513 24.55 35.203 24.46 35.023C24.04 34.113 23.55 33.233 23.03 32.233C23.16 32.263 23.11 32.233 23.06 32.233C18.7 32.713 14.33 33.183 9.97 33.703C9.78 33.723 9.51 34.083 9.48 34.313C9.27 36.123 8.31 37.383 6.66 38.053C6.05 38.303 5.93 38.623 5.95 39.203C6.2 45.193 7.9 50.773 10.66 56.053C12.54 59.653 14.92 62.873 17.91 65.583L17.9 65.593ZM65.47 11.113C62.69 12.863 60.42 12.483 58.36 10.023C58.24 9.87304 57.86 9.82304 57.65 9.88304C53.96 10.983 50.46 12.543 47.11 14.453C46.69 14.693 46.65 14.953 46.66 15.393C46.68 16.113 46.66 16.863 46.46 17.543C46.29 18.113 46.39 18.413 46.82 18.803C51.92 23.333 56.01 28.643 59.09 34.733C59.58 35.693 59.97 36.613 61.3 36.333C61.32 36.333 61.35 36.333 61.38 36.343C61.81 36.533 62.02 36.323 62.23 35.953C65.07 31.113 67.32 26.013 68.99 20.653C69.14 20.183 69.02 19.973 68.65 19.703C67.56 18.913 66.96 17.803 66.77 16.473C66.6 15.263 66.92 14.153 67.58 13.083C66.87 12.413 66.19 11.783 65.48 11.113H65.47ZM75.8 51.213C75.93 50.853 76.05 50.543 76.16 50.223C77.14 47.343 77.73 44.373 77.93 41.333C78.42 34.113 76.98 27.303 73.46 20.963C73.34 20.743 72.93 20.423 72.83 20.483C72.32 20.743 71.54 20.283 71.27 21.183C69.59 26.783 67.24 32.103 64.26 37.133C64.04 37.503 64.03 37.743 64.32 38.093C65.25 39.233 65.53 40.573 65.27 42.003C65.18 42.463 65.34 42.633 65.66 42.883C67.74 44.463 69.84 46.023 71.86 47.673C73.21 48.773 74.46 50.003 75.8 51.223V51.213ZM31.51 28.453C31.83 28.993 32.08 29.493 32.41 29.923C32.59 30.153 32.89 30.383 33.17 30.443C36.52 31.123 39.9 31.653 43.22 32.463C47.87 33.603 52.3 35.393 56.6 37.513C56.82 37.623 57.19 37.623 57.41 37.513C57.53 37.443 57.59 37.003 57.5 36.813C54.46 30.493 50.3 25.013 45.04 20.373C44.88 20.233 44.5 20.173 44.31 20.273C42.77 21.023 41.25 21.033 39.71 20.283C39.52 20.193 39.14 20.223 38.98 20.363C36.19 22.783 33.7 25.503 31.51 28.473V28.453ZM57.69 6.00304C57.39 5.85304 57.04 5.67304 56.69 5.52304C52.59 3.68304 48.3 2.67304 43.81 2.45304C37.66 2.15304 31.8 3.31304 26.27 6.02304C26.04 6.13304 25.79 6.52304 25.82 6.75304C25.84 6.99304 26.15 7.30304 26.4 7.39304C27.96 7.97304 29.59 8.42304 31.11 9.08304C33.64 10.183 36.12 11.403 38.67 12.603C41.01 10.843 42.43 10.843 45.49 12.683C48.92 10.663 52.51 9.00304 56.32 7.82304C57.23 7.54304 57.91 7.23304 57.69 6.00304ZM7.13 33.693C7.12 32.343 6.1 31.313 4.75 31.293C3.47 31.283 2.37 32.393 2.37 33.703C2.37 35.033 3.42 36.113 4.73 36.123C6.12 36.123 7.14 35.093 7.13 33.693ZM28.08 34.253C29.43 34.253 30.45 33.223 30.46 31.863C30.47 30.563 29.38 29.463 28.08 29.453C26.77 29.453 25.66 30.523 25.65 31.823C25.64 33.203 26.7 34.263 28.08 34.253ZM62.99 41.043C62.99 39.683 61.98 38.653 60.63 38.633C59.34 38.613 58.24 39.693 58.23 41.013C58.22 42.333 59.27 43.453 60.56 43.473C61.93 43.493 62.99 42.443 62.98 41.043H62.99ZM18.69 7.46304C18.69 8.76304 19.8 9.86304 21.09 9.85304C22.39 9.84304 23.47 8.73304 23.46 7.43304C23.45 6.03304 22.41 5.01304 21.02 5.03304C19.68 5.05304 18.68 6.09304 18.69 7.46304ZM41.96 13.653C40.66 13.653 39.58 14.763 39.59 16.073C39.59 17.373 40.71 18.493 41.99 18.483C43.33 18.463 44.37 17.433 44.38 16.083C44.4 14.713 43.34 13.653 41.96 13.653ZM65.5 69.573C65.5 68.163 64.49 67.133 63.1 67.143C61.74 67.153 60.75 68.163 60.74 69.533C60.74 70.863 61.78 71.923 63.1 71.933C64.43 71.933 65.5 70.893 65.5 69.573ZM62.39 5.01304C61.07 5.01304 59.99 6.06304 59.98 7.38304C59.98 8.77304 61.02 9.83304 62.39 9.82304C63.74 9.81304 64.74 8.79304 64.76 7.42304C64.77 6.11304 63.7 5.02304 62.39 5.02304V5.01304ZM21.04 66.903C19.75 66.923 18.68 68.033 18.69 69.343C18.69 70.693 19.82 71.783 21.15 71.743C22.45 71.703 23.5 70.593 23.47 69.273C23.44 67.973 22.32 66.873 21.04 66.893V66.903ZM71.45 13.473C70.06 13.493 69.05 14.533 69.08 15.943C69.11 17.293 70.15 18.293 71.51 18.283C72.81 18.273 73.86 17.173 73.85 15.843C73.84 14.513 72.77 13.463 71.45 13.473Z" fill="white"/>
</svg>
