<svg width="91" height="112" viewBox="0 0 91 112" fill="none" xmlns="http://www.w3.org/2000/svg">
<path d="M41.0293 0.500234C43.0093 0.830234 45.0193 1.04023 46.9593 1.51023C56.6193 3.82023 64.3093 9.06024 69.9393 17.2902C70.0593 17.4602 70.1893 17.6202 70.3693 17.8702C70.7193 17.5302 71.0093 17.2302 71.3293 16.9602C71.6393 16.7102 71.9793 16.5102 72.3993 16.2202C71.3393 14.8502 70.4293 13.7502 69.5893 12.6002C68.2493 10.7802 68.0593 8.80023 69.1293 6.82023C70.1993 4.85023 71.9493 3.89023 74.1993 3.98023C75.8793 4.05023 77.1793 4.88023 78.2393 6.17023C83.9793 13.0902 87.7993 20.9402 89.3193 29.8202C92.0093 45.4702 88.2893 59.4902 78.3193 71.8402C78.1593 72.0302 77.9893 72.2102 77.7593 72.4702C76.9093 71.7302 76.0793 71.0202 75.2093 70.2702C75.4493 69.9502 75.6293 69.6902 75.8293 69.4502C90.4193 51.6802 90.3793 26.2602 75.7293 8.58023C75.1493 7.88023 74.5393 7.30023 73.5493 7.47023C72.0093 7.74023 71.4893 9.38023 72.4793 10.7402C73.9293 12.7502 75.4993 14.6902 76.7593 16.8202C92.1593 42.7302 77.0993 76.4602 47.5393 82.1802C34.1793 84.7602 22.1193 81.6702 11.4193 73.2502C11.1693 73.0502 10.9193 72.8302 10.6693 72.6402C9.64926 71.8702 8.49926 71.9502 7.79926 72.8502C7.12926 73.7202 7.20926 74.8902 8.20926 75.6102C10.7393 77.4402 13.2193 79.3802 15.9193 80.9202C23.4493 85.2102 31.6293 87.1902 40.2893 86.8902C52.7793 86.4702 63.5193 81.8502 72.4693 73.1002C72.8493 72.7302 73.1393 72.2602 73.5193 71.7802C74.5193 72.7302 75.3193 73.4802 76.1793 74.3002C66.7693 84.0202 55.4093 89.3402 41.8793 90.3302C41.8793 90.7402 41.8793 91.1202 41.8793 91.5002C41.8793 94.9902 41.8793 98.4802 41.8793 101.98C41.8793 103.61 41.2893 104.2 39.6793 104.21C34.8693 104.21 30.0493 104.21 25.2393 104.21C22.9593 104.21 21.0393 105.04 19.5293 106.76C19.3293 106.99 19.1693 107.26 18.9293 107.61H68.5793C66.9993 105.36 64.9593 104.24 62.3693 104.22C57.5193 104.18 52.6693 104.21 47.8193 104.21C45.8393 104.21 45.3393 103.71 45.3393 101.73C45.3393 99.1402 45.3393 96.5602 45.3393 93.9102H48.7693V100.76C49.2293 100.76 49.6093 100.76 49.9893 100.76C54.1593 100.76 58.3293 100.73 62.4893 100.76C67.0793 100.8 71.0693 103.69 72.5893 108.01C73.1593 109.63 73.0693 110.03 71.8593 111.11H15.3693C14.1093 109.97 14.0693 109.54 14.7893 107.95C16.3193 104.56 18.6393 102.06 22.3393 101.13C23.2993 100.89 24.3193 100.77 25.3193 100.76C29.2693 100.72 33.2293 100.74 37.1793 100.74C37.5693 100.74 37.9493 100.74 38.3893 100.74V90.4702C36.4793 90.3002 34.5593 90.1902 32.6493 89.9502C22.5393 88.6902 13.5993 84.7302 5.84926 78.1202C3.52926 76.1402 3.29926 72.8702 5.19926 70.5702C7.09926 68.2702 10.2893 67.9602 12.7193 69.8402C13.7893 70.6702 14.8593 71.5102 15.9493 72.3602C16.5893 71.6902 17.1393 71.1002 17.7093 70.5002C6.97926 62.9502 1.00926 52.6902 0.529258 39.4802C0.159258 29.4902 3.55926 20.7702 10.1393 13.1702C10.8493 13.8002 11.4893 14.3702 12.1393 14.9302C12.3293 15.0902 12.5693 15.2002 12.9493 15.4302C11.6193 16.2002 12.0293 16.9302 12.4293 17.8102C12.8593 18.7402 13.0693 19.7902 13.2693 20.8002C13.3893 21.3802 13.5593 21.7202 14.1993 21.7302C14.8793 21.7302 15.5593 21.8202 16.2393 21.8402C18.4893 21.9002 19.8193 23.5402 19.3893 25.7402C18.9493 28.0402 17.9393 30.0502 16.1793 31.5902C14.5893 32.9902 12.9393 34.3202 11.2293 35.5802C10.1193 36.3902 9.64926 37.3202 9.79926 38.7002C9.87926 39.5002 9.79926 40.3802 9.54926 41.1302C8.88926 43.0902 7.22926 43.9602 5.20926 43.5702C4.96926 43.5202 4.73926 43.4902 4.36926 43.4402C5.18926 48.9202 7.13926 53.8002 10.2993 58.3002C11.1593 57.0602 11.3093 55.7602 11.3393 54.4102C11.3693 53.2602 11.3993 52.1102 11.5093 50.9602C11.7593 48.4102 13.3993 46.9602 15.9493 46.9302C19.2193 46.8902 22.1593 47.8602 24.8293 49.7502C27.2493 51.4602 28.4093 53.8002 28.4893 56.7202C28.5893 60.8002 27.4593 64.4602 24.8293 67.6102C24.3693 68.1602 23.9793 68.7502 23.4193 69.5002C34.1693 74.2402 44.7193 74.2702 54.8893 68.6202C66.5193 62.1602 72.2593 51.9102 72.8893 38.6202C71.7793 38.4702 70.8193 38.4002 69.8893 38.2002C66.8093 37.5402 64.2193 36.0202 62.1393 33.6302C61.7593 33.2002 61.3893 32.7502 61.0293 32.3102C60.4493 31.6102 59.9193 31.5302 59.1293 32.1502C56.9693 33.8402 54.1793 33.7102 52.3093 31.6902C51.3393 30.6402 50.5793 29.3102 50.0293 27.9802C49.6293 27.0302 49.1793 26.7302 48.2293 26.7602C46.3593 26.8302 44.4793 26.9802 42.6293 26.8002C41.2493 26.6602 39.7493 26.2902 38.5993 25.5702C36.1093 24.0102 36.0693 20.8102 38.5393 19.2002C39.8793 18.3202 41.5393 17.9402 43.0693 17.3602C43.9393 17.0302 44.8693 16.8502 45.6993 16.4502C46.6993 15.9702 46.9093 15.1302 46.2793 14.2302C44.0793 11.1002 46.6293 8.15023 49.5493 8.28023C50.4793 8.32023 51.4093 8.38023 52.3493 8.40023C53.1593 8.42023 53.9693 8.40023 54.7893 8.27023C49.4993 5.24023 43.8093 3.86023 37.7493 3.96023C31.6693 4.07023 26.0093 5.74023 20.6993 8.87023C20.1093 7.89023 19.5493 6.98023 18.8893 5.88023C20.3393 5.15023 21.6993 4.38023 23.1293 3.75023C26.8993 2.07023 30.8393 1.03023 34.9493 0.670234C35.1893 0.650234 35.4293 0.550234 35.6693 0.490234C37.4693 0.490234 39.2593 0.490234 41.0593 0.490234L41.0293 0.500234ZM48.9493 11.8102C49.0993 12.1502 49.1693 12.3402 49.2693 12.5202C50.8293 15.3602 50.0593 18.1402 47.1293 19.5702C45.8293 20.2002 44.3493 20.4802 42.9493 20.9002C41.9193 21.2002 40.8793 21.4502 39.9593 22.6702C40.9693 22.9502 41.7793 23.3402 42.5993 23.3802C44.4993 23.4502 46.4093 23.3802 48.3093 23.3002C50.6393 23.2002 52.3193 24.3102 53.0993 26.4902C53.3593 27.2302 53.6793 27.9802 54.1193 28.6102C55.1493 30.0802 56.0093 30.1702 57.4393 29.1302C59.2693 27.7902 61.2593 27.8802 62.9293 29.4302C63.5293 29.9902 64.0593 30.6302 64.5993 31.2602C65.9093 32.8102 67.5093 33.9502 69.4393 34.5402C70.4293 34.8402 71.4893 34.9602 72.6493 35.1802C72.5093 34.1602 72.4293 33.4102 72.2993 32.6702C70.7493 23.9102 66.4593 16.7802 59.4893 11.2702C59.1793 11.0302 58.5493 10.9402 58.1793 11.0702C56.1093 11.8002 54.0193 12.1102 51.8293 11.8502C50.9293 11.7402 50.0093 11.8302 48.9593 11.8302L48.9493 11.8102ZM19.0993 74.2602C33.8893 82.8502 54.1193 81.2702 67.6693 67.6302C81.1993 54.0002 82.6293 33.7802 73.9493 18.8202C73.6293 19.2902 73.4393 19.7602 73.0893 20.0502C72.3593 20.6702 72.2393 21.1902 72.6793 22.1402C76.3793 29.9302 77.3093 38.0702 75.5193 46.5002C70.5193 70.0302 44.9993 83.0302 23.0493 73.2602C21.5493 72.5936 20.2326 72.9269 19.0993 74.2602ZM20.3993 67.7902C21.2793 66.5902 22.2093 65.5602 22.8693 64.3802C23.5993 63.0802 24.3393 61.7102 24.6493 60.2702C25.7393 55.1302 24.8693 52.5602 18.8293 50.6902C18.5593 50.6102 18.2693 50.5702 17.9793 50.5402C14.5493 50.1502 14.8993 50.2302 14.8193 53.1702C14.7493 55.8502 14.4693 58.3902 13.0093 60.7102C12.8593 60.9502 12.8893 61.5202 13.0693 61.7202C15.1893 64.0802 17.6093 66.1002 20.3893 67.7902H20.3993ZM15.9093 25.4502C14.6693 25.2502 13.5193 25.1302 12.4093 24.8702C10.8393 24.5102 10.1493 23.6102 9.95926 22.0002C9.87926 21.3302 9.72926 20.6702 9.58926 19.8402C9.36926 20.0902 9.30926 20.1402 9.26926 20.2002C5.77926 25.7002 4.11926 31.7502 3.98926 38.2402C3.96926 39.2902 4.98926 40.1202 6.30926 40.1302C6.32926 39.7102 6.40926 39.2802 6.35926 38.8602C6.04926 36.2202 7.11926 34.2902 9.22926 32.7802C10.7493 31.7002 12.1893 30.5102 13.6093 29.2902C14.7793 28.2902 15.5593 27.0102 15.8893 25.4602L15.9093 25.4502Z" fill="white"/>
</svg>
