<svg width="41" height="41" viewBox="0 0 41 41" fill="none" xmlns="http://www.w3.org/2000/svg">
<rect x="0.5" y="0.714844" width="40" height="40" fill="white"/>
<g clip-path="url(#clip0_707_120837)">
<path d="M21.7221 30.7155H17.5898V17.3887H21.5529V19.1625C21.8385 18.8297 22.0812 18.4924 22.3772 18.2124C23.1066 17.5235 23.9986 17.1653 24.9889 17.0748C25.8452 16.996 26.6968 17.0585 27.5225 17.3171C28.8993 17.7475 29.7106 18.7158 30.1153 20.0676C30.3834 20.9643 30.4797 21.8876 30.4862 22.8162C30.5037 25.3968 30.4966 27.9773 30.4992 30.5579C30.4992 30.5898 30.4933 30.6211 30.4888 30.6738H26.3514C26.3514 30.5775 26.3514 30.4824 26.3514 30.3873C26.3501 28.1812 26.3559 25.975 26.3422 23.7688C26.3396 23.3072 26.2973 22.8403 26.2141 22.3864C25.9584 21.0014 25.0657 20.5521 23.81 20.6947C22.644 20.8269 21.9992 21.5145 21.8223 22.7791C21.7578 23.2368 21.7286 23.7024 21.7266 24.1647C21.7168 26.2485 21.7221 28.3329 21.7221 30.4166C21.7221 30.5123 21.7221 30.6074 21.7221 30.7149V30.7155Z" fill="#038181"/>
<path d="M14.9613 30.7142H10.8467V17.3789H14.9613V30.7142Z" fill="#038181"/>
<path d="M15.296 13.1497C15.268 14.51 14.1704 15.5733 12.8282 15.5414C11.5399 15.5102 10.4728 14.3811 10.4995 13.0774C10.5281 11.7529 11.6388 10.6818 12.9492 10.7156C14.2719 10.7501 15.3234 11.8402 15.296 13.1497Z" fill="#038181"/>
</g>
<defs>
<clipPath id="clip0_707_120837">
<rect width="20" height="20" fill="white" transform="translate(10.5 10.7148)"/>
</clipPath>
</defs>
</svg>
