<svg width="260" height="239" viewBox="0 0 260 239" fill="none" xmlns="http://www.w3.org/2000/svg">
<g filter="url(#filter0_d_707_120411)">
<path d="M183.143 190.763C216.813 157.049 216.813 102.388 183.143 68.6747C149.473 34.961 94.883 34.961 61.213 68.6747C27.543 102.388 27.543 157.049 61.213 190.763C94.883 224.476 149.473 224.476 183.143 190.763Z" fill="#55B8B7"/>
<path d="M254.332 0.791016L247.36 54.4129L229.599 48.3949L224.478 63.3813L216.986 42.6198L195.874 36.6828L254.332 0.791016Z" fill="#EAAD40"/>
<path d="M225.656 47.0541L247.361 54.4123L229.6 48.3944L224.479 63.3808L216.986 42.6193L240.919 17.4141L225.656 47.0541Z" fill="#E5923E"/>
<path d="M218.819 47.7107L240.919 17.4141L216.986 42.6193L218.819 47.7107Z" fill="#E1763B"/>
<path d="M225.789 69.4532C225.69 68.4727 225.627 67.4832 225.618 66.5117L224.118 66.5297C224.127 67.5462 224.19 68.5807 224.298 69.6061L225.789 69.4532Z" fill="#038181"/>
<path d="M251.277 95.827C253.091 95.1793 254.69 94.0998 255.912 92.6876L257.053 93.6681C255.67 95.2782 253.846 96.5106 251.789 97.2392L251.286 95.818L251.277 95.827ZM239.616 95.3412L240.424 94.0729C242.221 95.2153 244 95.9529 245.707 96.2677L245.428 97.752C243.524 97.4012 241.565 96.5916 239.616 95.3412ZM258.302 87.6321C258.616 85.9769 258.544 84.2678 258.104 82.7026C258.068 82.5767 258.032 82.4507 257.988 82.3248L257.898 82.0639L259.308 81.5512L259.416 81.857C259.461 82.001 259.506 82.1449 259.551 82.2978C260.054 84.0879 260.135 86.0309 259.775 87.911L258.302 87.6321ZM197.76 104.714L197.464 103.239C199.44 102.834 201.408 102.367 203.294 101.854L203.689 103.302C201.767 103.833 199.773 104.31 197.76 104.714ZM208.999 100.046L209.888 99.722C211.586 99.0923 213.095 98.4536 214.524 97.77L215.171 99.1283C213.706 99.8299 212.152 100.478 210.418 101.125L209.511 101.458L209.008 100.037L208.999 100.046ZM185.704 106.406L185.578 104.903C187.608 104.732 189.612 104.517 191.543 104.247L191.75 105.74C189.792 106.01 187.752 106.235 185.704 106.406ZM219.663 94.8465C221.127 93.839 222.448 92.7505 223.598 91.5901C223.777 91.4102 223.957 91.2213 224.128 91.0414L225.224 92.0759C225.035 92.2738 224.846 92.4717 224.658 92.6606C223.445 93.8839 222.043 95.0354 220.507 96.0968L219.654 94.8554L219.663 94.8465ZM230.794 86.7595L232.015 85.887C233.165 87.4972 234.45 89.0174 235.851 90.3847L234.8 91.4552C233.345 90.0249 231.997 88.4417 230.794 86.7595ZM173.567 106.855V105.353C175.633 105.362 177.654 105.335 179.586 105.263L179.64 106.765C177.681 106.837 175.642 106.864 173.567 106.855ZM161.439 106.388L161.537 104.885C163.541 105.02 165.544 105.137 167.548 105.209L167.485 106.711C165.463 106.63 163.442 106.523 161.43 106.379L161.439 106.388ZM227.946 86.4267C228.988 85.1044 230.219 83.5842 231.593 82.2348C231.737 82.0909 231.881 81.956 232.033 81.8121L233.057 82.9095L232.644 83.3053C231.333 84.5917 230.192 86.0129 229.132 87.3533L227.955 86.4177L227.946 86.4267ZM249.031 76.6937L249.138 75.1914C251.636 75.2184 253.639 75.6682 255.265 76.5587L254.547 77.881C253.163 77.1254 251.339 76.7206 249.04 76.7026L249.031 76.6937ZM237.091 78.1959C238.924 77.2064 240.873 76.4508 242.886 75.938L243.254 77.3953L242.661 77.5482C240.981 78.025 239.346 78.6816 237.801 79.5092L237.091 78.1869V78.1959ZM225.466 75.6772L226.913 75.2634C227.452 77.1524 228.161 79.0145 229.015 80.7956L227.658 81.4522C226.769 79.5992 226.023 77.6562 225.466 75.6862V75.6772Z" fill="#038181"/>
<path d="M155.33 105.903L155.464 104.401C154.467 104.311 153.47 104.212 152.473 104.113L152.329 105.616C153.326 105.714 154.332 105.813 155.33 105.903Z" fill="#038181"/>
<path d="M234.576 6.48469L219.51 14.7695C218.747 15.1923 218.468 16.1548 218.891 16.9284L219.016 17.1623C219.439 17.9359 220.418 18.2058 221.181 17.774L236.121 9.25529C236.903 8.81451 237.164 7.79803 236.687 7.03341C236.238 6.32277 235.322 6.0799 234.585 6.48469H234.576Z" fill="#EAAD40"/>
<path d="M38.0283 184.217C34.6953 184.217 31.9912 186.924 31.9912 190.262C31.9912 193.599 34.6953 196.307 38.0283 196.307C41.3613 196.307 44.0654 193.599 44.0654 190.262C44.0654 186.924 41.3613 184.217 38.0283 184.217ZM38.0283 192.7C36.6808 192.7 35.5847 191.602 35.5847 190.253C35.5847 188.903 36.6808 187.806 38.0283 187.806C39.3759 187.806 40.4719 188.903 40.4719 190.253C40.4719 191.602 39.3759 192.7 38.0283 192.7Z" fill="#53B6B6"/>
<path d="M199.719 200.184C196.386 200.184 193.682 202.891 193.682 206.229C193.682 209.566 196.386 212.273 199.719 212.273C203.052 212.273 205.756 209.566 205.756 206.229C205.756 202.891 203.052 200.184 199.719 200.184ZM199.719 208.675C198.371 208.675 197.275 207.578 197.275 206.229C197.275 204.879 198.371 203.782 199.719 203.782C201.066 203.782 202.162 204.879 202.162 206.229C202.162 207.578 201.066 208.675 199.719 208.675Z" fill="#53B6B6"/>
<path d="M245.708 121.447C243.156 121.447 241.09 123.516 241.09 126.071C241.09 128.626 243.156 130.695 245.708 130.695C248.259 130.695 250.325 128.626 250.325 126.071C250.325 123.516 248.259 121.447 245.708 121.447ZM245.708 127.942C244.674 127.942 243.839 127.105 243.839 126.071C243.839 125.036 244.674 124.2 245.708 124.2C246.741 124.2 247.576 125.036 247.576 126.071C247.576 127.105 246.741 127.942 245.708 127.942Z" fill="#53B6B6"/>
<path d="M155.465 19.1504C152.77 19.1504 150.578 21.3363 150.578 24.0439C150.578 26.7515 152.761 28.9374 155.465 28.9374C158.169 28.9374 160.352 26.7515 160.352 24.0439C160.352 21.3363 158.169 19.1504 155.465 19.1504ZM155.465 26.0229C154.369 26.0229 153.489 25.1324 153.489 24.0439C153.489 22.9555 154.378 22.0649 155.465 22.0649C156.552 22.0649 157.442 22.9555 157.442 24.0439C157.442 25.1324 156.552 26.0229 155.465 26.0229Z" fill="#53B6B6"/>
<path d="M11.4903 146.311C8.65141 146.311 6.35156 148.613 6.35156 151.456C6.35156 154.299 8.65141 156.601 11.4903 156.601C14.3292 156.601 16.629 154.299 16.629 151.456C16.629 148.613 14.3292 146.311 11.4903 146.311Z" fill="#53B6B6"/>
<path d="M217.534 163.33C215.468 163.33 213.797 165.003 213.797 167.072C213.797 169.141 215.468 170.814 217.534 170.814C219.6 170.814 221.271 169.141 221.271 167.072C221.271 165.003 219.6 163.33 217.534 163.33Z" fill="#53B6B6"/>
<path d="M135.889 6.28711C132.87 6.28711 130.427 8.73387 130.427 11.7563C130.427 14.7788 132.87 17.2256 135.889 17.2256C138.907 17.2256 141.351 14.7788 141.351 11.7563C141.351 8.73387 138.907 6.28711 135.889 6.28711Z" fill="#53B6B6"/>
<path d="M16.6204 196.199C14.4194 196.199 12.6406 197.98 12.6406 200.184C12.6406 202.388 14.4194 204.169 16.6204 204.169C18.8215 204.169 20.6003 202.388 20.6003 200.184C20.6003 197.98 18.8215 196.199 16.6204 196.199Z" fill="#53B6B6"/>
<path d="M197.465 49.1504C194.886 49.1504 192.793 51.2463 192.793 53.828C192.793 56.4097 194.886 58.5057 197.465 58.5057C200.043 58.5057 202.136 56.4097 202.136 53.828C202.136 51.2463 200.043 49.1504 197.465 49.1504Z" fill="#53B6B6"/>
<path d="M30.3653 96.2237C31.8339 96.2237 33.0245 95.0316 33.0245 93.5611C33.0245 92.0905 31.8339 90.8984 30.3653 90.8984C28.8966 90.8984 27.7061 92.0905 27.7061 93.5611C27.7061 95.0316 28.8966 96.2237 30.3653 96.2237Z" fill="#53B6B6"/>
<path d="M221.262 134.67C218.756 134.67 216.726 136.703 216.726 139.213C216.726 141.722 218.756 143.755 221.262 143.755C223.769 143.755 225.799 141.722 225.799 139.213C225.799 136.703 223.769 134.67 221.262 134.67Z" fill="#53B6B6"/>
<path d="M8.93966 112.848C10.5373 112.848 11.8324 111.551 11.8324 109.951C11.8324 108.352 10.5373 107.055 8.93966 107.055C7.34202 107.055 6.04688 108.352 6.04688 109.951C6.04688 111.551 7.34202 112.848 8.93966 112.848Z" fill="#53B6B6"/>
<path d="M116.071 32.0851L117.886 30.2681C118.515 29.6384 118.515 28.6039 117.886 27.9742C117.257 27.3445 116.224 27.3445 115.595 27.9742L113.78 29.7913L111.966 27.9742C111.337 27.3445 110.304 27.3445 109.675 27.9742C109.046 28.6039 109.046 29.6384 109.675 30.2681L111.489 32.0851L109.675 33.9022C109.046 34.5319 109.046 35.5664 109.675 36.1961C110.304 36.8257 111.337 36.8257 111.966 36.1961L113.78 34.379L115.595 36.1961C116.224 36.8257 117.257 36.8257 117.886 36.1961C118.515 35.5664 118.515 34.5319 117.886 33.9022L116.071 32.0851Z" fill="#53B6B6"/>
<path d="M6.87299 79.1594L8.68772 77.3423C9.31659 76.7126 9.31659 75.6781 8.68772 75.0484C8.05885 74.4188 7.02572 74.4188 6.39685 75.0484L4.58213 76.8655L2.7674 75.0484C2.13853 74.4188 1.1054 74.4188 0.476532 75.0484C-0.152334 75.6781 -0.152334 76.7126 0.476532 77.3423L2.29126 79.1594L0.476532 80.9764C-0.152334 81.6061 -0.152334 82.6406 0.476532 83.2703C1.1054 83.9 2.13853 83.9 2.7674 83.2703L4.58213 81.4532L6.39685 83.2703C7.02572 83.9 8.05885 83.9 8.68772 83.2703C9.31659 82.6406 9.31659 81.6061 8.68772 80.9764L6.87299 79.1594Z" fill="#53B6B6"/>
<path d="M221.181 190.262L222.717 188.724C223.247 188.193 223.247 187.312 222.717 186.781C222.187 186.25 221.307 186.25 220.777 186.781L219.24 188.319L217.704 186.781C217.174 186.25 216.294 186.25 215.764 186.781C215.234 187.312 215.234 188.193 215.764 188.724L217.3 190.262L215.764 191.8C215.234 192.331 215.234 193.213 215.764 193.743C216.294 194.274 217.174 194.274 217.704 193.743L219.24 192.205L220.777 193.743C221.307 194.274 222.187 194.274 222.717 193.743C223.247 193.213 223.247 192.331 222.717 191.8L221.181 190.262Z" fill="#53B6B6"/>
<path d="M189.252 163.294L119.322 204.583L49.3926 163.294C49.3926 163.294 49.3926 163.213 49.4016 163.177C49.4555 162.917 53.3185 159.687 59.2029 154.902C59.2568 154.857 59.3017 154.812 59.3646 154.767C78.6708 139.07 119.322 106.92 119.322 106.92C119.322 106.92 159.974 139.07 179.28 154.767C185.255 159.624 189.189 162.908 189.243 163.177C189.252 163.213 189.252 163.258 189.252 163.294Z" fill="#6F4D18"/>
<path d="M148.08 72.7188H72.625C66.1567 72.7188 60.9102 77.9721 60.9102 84.4488V198.682C60.9102 205.159 66.1567 210.412 72.625 210.412H167.17C173.639 210.412 178.885 205.159 178.885 198.682V103.573L148.071 72.7188H148.08Z" fill="white"/>
<path d="M148.08 91.8431C148.08 98.3198 153.327 103.573 159.795 103.573H178.886L148.071 72.7188V91.8341L148.08 91.8431Z" fill="#E5E6E6"/>
<path d="M82.9294 92.0312H108.964C111.264 92.0312 113.142 93.9023 113.142 96.2141V122.283C113.142 124.586 111.273 126.466 108.964 126.466H82.9294C80.6296 126.466 78.752 124.595 78.752 122.283V96.2141C78.752 93.9113 80.6206 92.0312 82.9294 92.0312Z" fill="#53B6B6"/>
<path d="M144.621 136.02H82.1568C80.2972 136.02 78.7969 137.531 78.7969 139.384C78.7969 141.246 80.3062 142.748 82.1568 142.748H144.621C146.481 142.748 147.981 141.237 147.981 139.384C147.981 137.522 146.472 136.02 144.621 136.02Z" fill="#D8D9D9"/>
<path d="M144.621 152.797H82.1568C80.2972 152.797 78.7969 154.308 78.7969 156.161C78.7969 158.023 80.3062 159.525 82.1568 159.525H144.621C146.481 159.525 147.981 158.014 147.981 156.161C147.981 154.299 146.472 152.797 144.621 152.797Z" fill="#D8D9D9"/>
<path d="M116.25 169.068H82.1568C80.2972 169.068 78.7969 170.58 78.7969 172.433C78.7969 174.295 80.3062 175.797 82.1568 175.797H116.25C118.11 175.797 119.61 174.286 119.61 172.433C119.61 170.571 118.101 169.068 116.25 169.068Z" fill="#D8D9D9"/>
<path d="M189.252 163.293V230.471C189.252 235.167 185.416 239.008 180.727 239.008H57.8913C53.2017 239.008 49.3926 235.167 49.3926 230.471V163.293L119.322 204.582L189.252 163.293Z" fill="#EAAD40"/>
<path d="M186.889 236.326L141.881 191.259L119.322 204.572L96.7549 191.25L51.7461 236.317C53.2913 237.954 55.4744 238.989 57.891 238.989H180.735C183.161 238.989 185.335 237.954 186.889 236.317V236.326Z" fill="#E5923E"/>
<path d="M40.1935 83.0537C41.1008 83.3056 42.0621 82.8289 42.4035 81.9293C42.7628 80.9758 42.2867 79.9143 41.3344 79.5455C30.8683 75.5605 22.3786 67.7165 17.4375 57.4617C16.9973 56.5442 15.8923 56.1574 14.976 56.5981C14.0596 57.0389 13.6733 58.1454 14.1135 59.0629C19.4679 70.1723 28.6673 78.673 40.0228 82.9998C40.0767 83.0178 40.1396 83.0448 40.1935 83.0537Z" fill="#038181"/>
<path d="M71.9956 2.59046C89.3523 9.22909 99.5938 27.8497 95.9823 46.1014C94.1856 55.1868 89.4062 62.77 82.9379 68.1942C80.5033 70.2362 79.3264 73.4206 79.7217 76.578L80.7279 84.476L69.552 78.0622C67.7283 77.0188 65.6171 76.614 63.5419 76.9108C57.3071 77.8104 50.731 77.1897 44.3076 74.7429C27.2653 68.2572 16.9609 50.2213 20.0513 32.2215C24.1928 8.07768 49.1229 -6.14412 71.9956 2.59046Z" fill="#359C9C"/>
<path d="M52.0431 57.237L50.5517 54.6284C50.5517 54.6284 53.2199 51.2371 48.171 42.9073C45.1704 37.9508 45.2783 33.9748 46.4372 31.0153C48.2878 26.3107 53.3188 23.4322 58.3137 24.2328C61.4491 24.7365 64.9168 26.6615 67.6569 31.7709C72.2566 40.3616 76.5239 39.7769 76.5239 39.7769L78.0062 42.3856L52.0251 57.2281L52.0431 57.237Z" fill="white"/>
<path d="M71.241 49.043C72.2561 51.6966 71.223 54.7641 68.6806 56.2213C66.1382 57.6786 62.9759 57.0039 61.2061 54.7821L71.241 49.052V49.043Z" fill="white"/>
<path d="M46.886 23.7738L47.8113 25.402C49.2308 24.0976 50.9467 23.1171 52.8063 22.5684L51.872 20.9312C51.0814 19.5459 49.3296 19.0692 47.9461 19.8608C46.5806 20.6434 46.0954 22.3975 46.886 23.7828V23.7738Z" fill="white"/>
<path d="M69.2737 1.67216C54.9266 2.02298 41.9001 11.6661 37.9293 26.2387C33.078 44.0227 43.5351 62.3824 61.3051 67.249C70.6662 69.8127 80.1621 68.0855 87.7803 63.3C86.298 65.0721 84.6809 66.7182 82.9291 68.1845C80.4945 70.2264 79.3176 73.4108 79.7129 76.5682L80.7191 84.4662L69.5432 78.0525C67.7195 77.009 65.6083 76.6042 63.5331 76.9011C57.2983 77.8006 50.7222 77.1799 44.2988 74.7332C27.2565 68.2475 16.9521 50.2116 20.0425 32.2117C24.0313 9.03044 47.1915 -4.99346 69.2737 1.67216Z" fill="#038181"/>
</g>
<defs>
<filter id="filter0_d_707_120411" x="-5.99512" y="-6" width="279.991" height="259.008" filterUnits="userSpaceOnUse" color-interpolation-filters="sRGB">
<feFlood flood-opacity="0" result="BackgroundImageFix"/>
<feColorMatrix in="SourceAlpha" type="matrix" values="0 0 0 0 0 0 0 0 0 0 0 0 0 0 0 0 0 0 127 0" result="hardAlpha"/>
<feOffset dx="4" dy="4"/>
<feGaussianBlur stdDeviation="5"/>
<feColorMatrix type="matrix" values="0 0 0 0 0.137255 0 0 0 0 0.0901961 0 0 0 0 0.0117647 0 0 0 0.4 0"/>
<feBlend mode="normal" in2="BackgroundImageFix" result="effect1_dropShadow_707_120411"/>
<feBlend mode="normal" in="SourceGraphic" in2="effect1_dropShadow_707_120411" result="shape"/>
</filter>
</defs>
</svg>
