<svg width="89" height="89" viewBox="0 0 89 89" fill="none" xmlns="http://www.w3.org/2000/svg">
<g clip-path="url(#clip0_720_120929)">
<path d="M41.96 0.5H46.97C47.19 0.55 47.41 0.61 47.63 0.65C49.5 0.95 51.39 1.16 53.24 1.56C56.66 2.31 59.88 3.62 62.92 5.34C63.94 5.92 64.04 7.22 63.04 7.65C62.63 7.83 61.98 7.69 61.53 7.5C59.35 6.61 57.22 5.6 55.03 4.74C53.96 4.32 52.81 4.12 51.7 3.82C54.21 6.79 56.01 10.06 57.2 13.62C58.39 17.17 59.3 20.81 60.35 24.46H76.84C75.85 22.66 74.99 20.94 73.99 19.31C72.39 16.69 70.4 14.39 68.15 12.3C67.22 11.44 67.41 10.19 68.55 9.98C68.98 9.9 69.62 10.18 69.97 10.5C81.79 21.27 85.43 38.91 78.83 53.46C77.96 55.39 76.87 57.22 75.86 59.16C76 59.31 76.19 59.52 76.39 59.73C80.1 63.59 83.83 67.44 87.52 71.31C88.06 71.88 88.47 72.58 88.94 73.22V74.43C87.84 76.55 87.14 76.86 84.64 76.45C82.49 76.1 80.32 75.8 78.17 75.42C77.64 75.33 77.34 75.46 77.02 75.88C75.55 77.87 74.04 79.83 72.56 81.8C72.01 82.53 71.34 83.01 70.41 83.06C68.68 83.14 67.47 81.96 67.45 80.1C67.42 76.42 67.42 72.74 67.4 69.06C67.4 68.76 67.37 68.46 67.36 68.08C67.15 68.2 67.05 68.24 66.97 68.3C64.26 70.32 61.34 71.97 58.18 73.18C57.67 73.38 57.66 73.69 57.66 74.11C57.66 77.42 57.66 80.72 57.66 84.03C57.66 84.46 57.65 84.9 57.56 85.31C57.17 87.27 55.84 88.33 54.04 88.93H16.57C16.01 88.45 15.66 87.88 15.94 87.13C16.25 86.32 16.96 86.31 17.68 86.34C17.88 86.34 18.08 86.34 18.28 86.34C29.79 86.34 41.3 86.34 52.81 86.34C54.38 86.34 55.08 85.65 55.09 84.09C55.09 80.23 55.09 76.38 55.09 72.52C55.09 71.16 54.37 70.43 53.01 70.43C37.07 70.43 21.13 70.43 5.19 70.43C3.84 70.43 3.12 71.16 3.11 72.52C3.1 76.43 3.1 80.35 3.11 84.26C3.11 85.59 3.87 86.32 5.21 86.34C6.71 86.35 8.2 86.35 9.7 86.34C10.4 86.34 11.06 86.37 11.34 87.14C11.61 87.89 11.28 88.47 10.69 88.93H4.13C2.27 88.37 1.07 87.15 0.5 85.3V71.48C1.76 68.49 2.77 67.83 6.07 67.83C10.76 67.83 15.45 67.83 20.14 67.83C20.44 67.83 20.73 67.83 21.24 67.83C20.88 67.52 20.71 67.37 20.54 67.23C10.51 58.66 5.92 47.77 6.96 34.65C7.67 25.69 11.39 17.99 17.73 11.61C23.24 6.09 29.84 2.56 37.54 1.16C39 0.89 40.48 0.72 41.96 0.5ZM57.86 49.18C58.83 41.81 58.83 34.49 57.86 27.15H31.01C30.05 34.53 30.04 41.85 31.02 49.18H57.85H57.86ZM57.38 24.46C57.37 24.28 57.38 24.14 57.35 24C56.42 18.94 55.03 14.04 52.47 9.53C51.4 7.64 50.13 5.9 48.37 4.57C45.78 2.6 43.05 2.53 40.54 4.59C39.31 5.59 38.21 6.83 37.3 8.14C34.85 11.65 33.49 15.66 32.44 19.77C32.05 21.31 31.74 22.87 31.38 24.46H57.36H57.38ZM28.22 27.13C28.11 27.13 27.94 27.1 27.77 27.1C22.45 27.1 17.13 27.11 11.81 27.08C11.19 27.08 11.05 27.39 10.9 27.86C8.84 34.74 8.85 41.62 10.9 48.5C11.07 49.07 11.32 49.24 11.92 49.24C17.15 49.21 22.39 49.22 27.62 49.22C27.86 49.22 28.11 49.19 28.23 49.18C28.05 45.45 27.73 41.81 27.73 38.17C27.73 34.53 28.04 30.88 28.22 27.13ZM60.49 27.13C61.4 34.49 61.4 41.81 60.48 49.14C60.65 49.17 60.79 49.21 60.93 49.21C66.34 49.21 71.75 49.21 77.16 49.23C77.7 49.23 77.82 48.97 77.94 48.54C80.03 41.63 80.03 34.72 77.94 27.81C77.76 27.22 77.5 27.08 76.92 27.08C71.71 27.1 66.5 27.09 61.29 27.09C61.04 27.09 60.78 27.12 60.48 27.13H60.49ZM31.44 51.83C31.56 52.47 31.65 53.01 31.76 53.54C32.75 58.29 34.13 62.9 36.6 67.12C36.91 67.66 37.27 67.86 37.9 67.85C42.25 67.82 46.59 67.82 50.94 67.85C51.6 67.85 51.98 67.66 52.31 67.09C54.26 63.73 55.54 60.11 56.48 56.36C56.85 54.87 57.14 53.37 57.48 51.83H31.45H31.44ZM28.76 24.46C30.21 17 32.14 9.82 37.26 3.93C32.75 4.19 24.68 8.44 20.01 13.02C16.65 16.3 14.03 20.07 12.16 24.47H28.76V24.46ZM12.28 51.84C12.27 51.93 12.23 52 12.25 52.04C12.34 52.28 12.44 52.52 12.55 52.75C14.96 58 18.5 62.33 23.02 65.93C24.71 67.27 26.42 68.17 28.65 67.87C29.72 67.72 30.83 67.84 31.93 67.84C32.58 67.84 33.22 67.84 34.02 67.84C31.26 62.73 29.79 57.36 28.81 51.83H12.29L12.28 51.84ZM57.63 70.6C57.63 70.6 57.81 70.55 57.99 70.48C61.2 69.15 64.13 67.35 66.82 65.15C67.24 64.81 67.42 64.46 67.41 63.91C67.37 61.81 67.38 59.71 67.38 57.61C67.38 56.14 67.97 55.21 69.15 54.73C70.34 54.25 71.35 54.53 72.42 55.6C72.9 56.08 73.43 56.52 74.05 57.08C74.95 55.37 75.87 53.65 76.83 51.83H60.09C59.08 57.5 57.56 62.99 54.88 67.84C55.84 68.79 56.7 69.64 57.65 70.59L57.63 70.6ZM86.26 74.06C86.29 73.98 86.33 73.91 86.36 73.83C80.98 68.24 75.59 62.66 70.11 56.96V80.44C70.51 80.21 70.73 79.95 70.93 79.68C72.35 77.8 73.78 75.92 75.19 74.03C75.95 73.01 76.92 72.59 78.2 72.82C79.33 73.03 80.47 73.19 81.61 73.36C83.16 73.6 84.71 73.83 86.26 74.06Z" fill="white"/>
<path d="M44.6097 78.6503C44.0197 80.0803 43.4896 81.3503 42.9797 82.6203C42.7097 83.3003 42.3596 83.9003 41.5296 83.8703C40.6996 83.8303 40.4196 83.2103 40.1896 82.5003C39.3996 79.9803 38.5397 77.4803 37.7697 74.9603C37.6297 74.5103 37.6297 73.8803 37.8597 73.5203C38.0597 73.2003 38.7096 72.9503 39.0996 73.0203C39.4796 73.0903 39.9497 73.5303 40.0897 73.9203C40.6697 75.4603 41.1497 77.0403 41.7297 78.8103C42.2797 77.4703 42.7696 76.3103 43.2297 75.1403C43.4896 74.4803 43.8496 73.9403 44.6396 73.9603C45.3797 73.9803 45.7197 74.4903 45.9697 75.1303C46.4197 76.2803 46.9097 77.4103 47.4697 78.7703C47.7297 78.0103 47.9397 77.4403 48.1297 76.8603C48.4497 75.8803 48.7397 74.8903 49.0797 73.9103C49.3597 73.0903 49.9397 72.7903 50.6797 73.0203C51.4597 73.2503 51.7997 73.8703 51.5296 74.7103C50.6697 77.4203 49.7697 80.1203 48.8997 82.8203C48.6997 83.4403 48.3296 83.8103 47.6696 83.8403C46.9696 83.8703 46.5597 83.4703 46.3097 82.8503C45.7697 81.5003 45.2097 80.1603 44.5897 78.6503H44.6097Z" fill="white"/>
<path d="M29.0903 78.6608C28.5003 80.0908 27.9603 81.3808 27.4403 82.6808C27.1803 83.3408 26.8203 83.8908 26.0403 83.8708C25.2503 83.8508 24.9203 83.2908 24.7103 82.6108C23.8803 80.0108 23.0303 77.4208 22.2003 74.8208C21.8903 73.8608 22.2203 73.2308 23.0703 73.0008C23.8003 72.8108 24.3603 73.1208 24.6403 73.9608C25.1503 75.4808 25.6303 77.0108 26.2003 78.7708C26.5303 78.0008 26.7903 77.4108 27.0403 76.8308C27.2803 76.2708 27.5203 75.7208 27.7203 75.1608C27.9603 74.4808 28.3203 73.9608 29.1103 73.9608C29.9003 73.9608 30.2303 74.5408 30.4803 75.1908C30.8303 76.1008 31.2103 77.0008 31.5903 77.9008C31.6803 78.1308 31.8103 78.3408 32.0003 78.7308C32.5503 77.0408 33.0303 75.5208 33.5303 74.0108C33.8503 73.0708 34.5103 72.7208 35.3103 73.0608C36.0503 73.3708 36.2603 73.9708 36.0303 74.6908C35.1603 77.4308 34.2903 80.1608 33.3303 82.8708C33.1903 83.2808 32.6103 83.6808 32.1703 83.8008C31.5603 83.9608 31.1003 83.5408 30.8603 82.9308C30.3003 81.5508 29.7203 80.1708 29.0903 78.6608Z" fill="white"/>
<path d="M16.4598 78.8091C17.0398 77.0291 17.5298 75.4691 18.0598 73.9291C18.3698 73.0391 19.1198 72.7091 19.8798 73.0891C20.5598 73.4291 20.7298 74.0091 20.5098 74.6891C19.6398 77.4191 18.7798 80.1591 17.8198 82.8691C17.6798 83.2791 17.0998 83.6791 16.6498 83.7991C16.0398 83.9691 15.5798 83.5291 15.3398 82.9291C14.7798 81.5491 14.2098 80.1791 13.5698 78.6491C12.9698 80.0991 12.4198 81.3791 11.9098 82.6791C11.6498 83.3491 11.2898 83.8491 10.4898 83.8291C9.6798 83.7991 9.3898 83.2291 9.1698 82.5691C8.3298 79.9491 7.4498 77.3291 6.6598 74.6891C6.5398 74.2991 6.6598 73.6591 6.9298 73.3791C7.1998 73.0991 7.8498 72.9291 8.2298 73.0491C8.5998 73.1691 8.9698 73.6591 9.1198 74.0691C9.6698 75.5391 10.1198 77.0491 10.6898 78.7891C11.2598 77.4191 11.7498 76.2791 12.1998 75.1291C12.4598 74.4591 12.8098 73.9391 13.5998 73.9491C14.3498 73.9591 14.6798 74.4891 14.9298 75.1091C15.3998 76.2791 15.8798 77.4391 16.4398 78.7991L16.4598 78.8091Z" fill="white"/>
</g>
<defs>
<clipPath id="clip0_720_120929">
<rect width="88.45" height="88.45" fill="white" transform="translate(0.5 0.5)"/>
</clipPath>
</defs>
</svg>
