<?xml version="1.0" encoding="utf-8"?>
<!-- Generator: Adobe Illustrator 16.0.0, SVG Export Plug-In . SVG Version: 6.00 Build 0)  -->
<!DOCTYPE svg PUBLIC "-//W3C//DTD SVG 1.1//EN" "http://www.w3.org/Graphics/SVG/1.1/DTD/svg11.dtd">
<svg version="1.1" id="Layer_1" xmlns="http://www.w3.org/2000/svg" xmlns:xlink="http://www.w3.org/1999/xlink" x="0px" y="0px"
	 width="250px" height="250px" viewBox="0 0 250 250" enable-background="new 0 0 250 250" xml:space="preserve">
<g>
	<g>
		<g>
			<path fill="#EB5454" d="M180.568,173.969H69.432c-1.041,0-1.735-0.695-1.735-1.736V77.767c0-1.042,0.694-1.736,1.735-1.736
				h111.137c1.041,0,1.735,0.694,1.735,1.736v94.292C182.304,173.1,181.609,173.969,180.568,173.969z M71.169,170.496h107.662
				V79.503H71.169V170.496z"/>
		</g>
		<g>
			<path fill="#EB5454" d="M136.808,166.156h-23.615c-1.042,0-1.736-0.697-1.736-1.738v-7.293H93.744
				c-1.043,0-1.737-0.695-1.737-1.736v-9.379H78.115c-1.042,0-1.737-0.693-1.737-1.734V87.317c0-1.042,0.695-1.736,1.737-1.736
				h93.77c1.042,0,1.737,0.694,1.737,1.736v56.958c0,1.041-0.695,1.734-1.737,1.734h-13.892v9.379c0,1.041-0.694,1.736-1.737,1.736
				h-17.712v7.293C138.544,165.459,137.85,166.156,136.808,166.156z M114.929,162.682h20.316v-7.293
				c0-1.043,0.694-1.736,1.737-1.736h17.537v-9.377c0-1.043,0.696-1.736,1.736-1.736h13.893V89.054H79.852v53.485h13.893
				c1.04,0,1.736,0.693,1.736,1.736v9.377h17.712c1.04,0,1.736,0.693,1.736,1.736V162.682z"/>
		</g>
	</g>
	<g>
		<g>
			<path fill="#EB5454" d="M89.401,98.605c-1.041,0-1.736-0.695-1.736-1.736v-9.551c0-1.042,0.695-1.736,1.736-1.736
				c1.042,0,1.736,0.694,1.736,1.736v9.551C91.138,97.91,90.443,98.605,89.401,98.605z"/>
		</g>
		<g>
			<path fill="#EB5454" d="M101.21,98.605c-1.042,0-1.737-0.695-1.737-1.736v-9.551c0-1.042,0.695-1.736,1.737-1.736
				c1.043,0,1.737,0.694,1.737,1.736v9.551C102.947,97.91,102.253,98.605,101.21,98.605z"/>
		</g>
		<g>
			<path fill="#EB5454" d="M113.192,98.605c-1.042,0-1.736-0.695-1.736-1.736v-9.551c0-1.042,0.694-1.736,1.736-1.736
				c1.04,0,1.736,0.694,1.736,1.736v9.551C114.929,97.91,114.061,98.605,113.192,98.605z"/>
		</g>
		<g>
			<path fill="#EB5454" d="M125,98.605c-1.042,0-1.736-0.695-1.736-1.736v-9.551c0-1.042,0.694-1.736,1.736-1.736
				s1.736,0.694,1.736,1.736v9.551C126.736,97.91,126.042,98.605,125,98.605z"/>
		</g>
		<g>
			<path fill="#EB5454" d="M136.808,98.605c-1.04,0-1.736-0.695-1.736-1.736v-9.551c0-1.042,0.696-1.736,1.736-1.736
				c1.042,0,1.736,0.694,1.736,1.736v9.551C138.544,97.91,137.85,98.605,136.808,98.605z"/>
		</g>
		<g>
			<path fill="#EB5454" d="M148.79,98.605c-1.042,0-1.737-0.695-1.737-1.736v-9.551c0-1.042,0.695-1.736,1.737-1.736
				s1.737,0.694,1.737,1.736v9.551C150.527,97.91,149.657,98.605,148.79,98.605z"/>
		</g>
		<g>
			<path fill="#EB5454" d="M160.599,98.605c-1.042,0-1.736-0.695-1.736-1.736v-9.551c0-1.042,0.694-1.736,1.736-1.736
				c1.041,0,1.736,0.694,1.736,1.736v9.551C162.335,97.91,161.64,98.605,160.599,98.605z"/>
		</g>
	</g>
</g>
</svg>
