<?xml version="1.0" encoding="utf-8"?>
<!-- Generator: Adobe Illustrator 16.0.0, SVG Export Plug-In . SVG Version: 6.00 Build 0)  -->
<!DOCTYPE svg PUBLIC "-//W3C//DTD SVG 1.1//EN" "http://www.w3.org/Graphics/SVG/1.1/DTD/svg11.dtd">
<svg version="1.1" id="Layer_1" xmlns="http://www.w3.org/2000/svg" xmlns:xlink="http://www.w3.org/1999/xlink" x="0px" y="0px"
	 width="250px" height="250px" viewBox="0 0 250 250" enable-background="new 0 0 250 250" xml:space="preserve">
<g>
	<g>
		
			<line fill="none" stroke="#EB5454" stroke-width="4" stroke-linecap="round" stroke-linejoin="round" stroke-miterlimit="10" x1="81.877" y1="111.291" x2="96.615" y2="111.291"/>
		
			<line fill="none" stroke="#EB5454" stroke-width="4" stroke-linecap="round" stroke-linejoin="round" stroke-miterlimit="10" x1="80.736" y1="121.507" x2="97.758" y2="121.507"/>
		
			<line fill="none" stroke="#EB5454" stroke-width="4" stroke-linecap="round" stroke-linejoin="round" stroke-miterlimit="10" x1="79.625" y1="131.447" x2="98.867" y2="131.447"/>
		
			<line fill="none" stroke="#EB5454" stroke-width="4" stroke-linecap="round" stroke-linejoin="round" stroke-miterlimit="10" x1="100.008" y1="141.663" x2="78.484" y2="141.663"/>
		
			<line fill="none" stroke="#EB5454" stroke-width="4" stroke-linecap="round" stroke-linejoin="round" stroke-miterlimit="10" x1="77.346" y1="151.878" x2="101.164" y2="151.878"/>
		
			<line fill="none" stroke="#EB5454" stroke-width="4" stroke-linecap="round" stroke-linejoin="round" stroke-miterlimit="10" x1="102.287" y1="162.094" x2="76.203" y2="162.094"/>
		<path fill="none" stroke="#EB5454" stroke-width="4" stroke-linecap="round" stroke-linejoin="round" stroke-miterlimit="10" d="
			M97.758,121.507h75.777c1.254,0,2.268,1.014,2.268,2.267v58.751H104.57L97.758,121.507z"/>
		
			<rect x="145.156" y="111.291" fill="none" stroke="#EB5454" stroke-width="4" stroke-linecap="round" stroke-linejoin="round" stroke-miterlimit="10" width="5.109" height="10.216"/>
		
			<rect x="155.373" y="101.075" fill="none" stroke="#EB5454" stroke-width="4" stroke-linecap="round" stroke-linejoin="round" stroke-miterlimit="10" width="5.107" height="20.432"/>
		
			<polygon fill="none" stroke="#EB5454" stroke-width="4" stroke-linecap="round" stroke-linejoin="round" stroke-miterlimit="10" points="
			104.57,182.524 73.924,182.524 84.139,91.024 94.354,91.024 		"/>
		<path fill="none" stroke="#EB5454" stroke-width="4" stroke-linecap="round" stroke-linejoin="round" stroke-miterlimit="10" d="
			M156.984,95.091c2.553-1.776,4.77-4.538,4.621-7.646c-0.195-4.118-4.277-6.939-5.709-10.805c-1.141-3.083-0.379-6.784,1.887-9.165
			"/>
		<path fill="none" stroke="#EB5454" stroke-width="4" stroke-linecap="round" stroke-linejoin="round" stroke-miterlimit="10" d="
			M145.156,105.104c0.141-2.937,3.053-4.949,4.074-7.706c0.813-2.198,0.27-4.839-1.346-6.538"/>
		
			<line fill="none" stroke="#EB5454" stroke-width="4" stroke-linecap="round" stroke-linejoin="round" stroke-miterlimit="10" x1="114.783" y1="141.663" x2="124.727" y2="141.663"/>
		
			<line fill="none" stroke="#EB5454" stroke-width="4" stroke-linecap="round" stroke-linejoin="round" stroke-miterlimit="10" x1="134.941" y1="141.663" x2="144.883" y2="141.663"/>
		
			<line fill="none" stroke="#EB5454" stroke-width="4" stroke-linecap="round" stroke-linejoin="round" stroke-miterlimit="10" x1="155.1" y1="141.663" x2="165.041" y2="141.663"/>
		
			<line fill="none" stroke="#EB5454" stroke-width="4" stroke-linecap="round" stroke-linejoin="round" stroke-miterlimit="10" x1="114.783" y1="151.878" x2="124.727" y2="151.878"/>
		
			<line fill="none" stroke="#EB5454" stroke-width="4" stroke-linecap="round" stroke-linejoin="round" stroke-miterlimit="10" x1="134.941" y1="151.878" x2="144.883" y2="151.878"/>
		
			<line fill="none" stroke="#EB5454" stroke-width="4" stroke-linecap="round" stroke-linejoin="round" stroke-miterlimit="10" x1="155.1" y1="151.878" x2="165.041" y2="151.878"/>
		
			<line fill="none" stroke="#EB5454" stroke-width="4" stroke-linecap="round" stroke-linejoin="round" stroke-miterlimit="10" x1="114.783" y1="162.094" x2="124.727" y2="162.094"/>
		
			<line fill="none" stroke="#EB5454" stroke-width="4" stroke-linecap="round" stroke-linejoin="round" stroke-miterlimit="10" x1="134.941" y1="162.094" x2="144.883" y2="162.094"/>
		
			<line fill="none" stroke="#EB5454" stroke-width="4" stroke-linecap="round" stroke-linejoin="round" stroke-miterlimit="10" x1="155.1" y1="162.094" x2="165.041" y2="162.094"/>
	</g>
	
		<line fill="none" stroke="#EB5454" stroke-width="4" stroke-linecap="round" stroke-linejoin="round" stroke-miterlimit="10" x1="53.492" y1="182.524" x2="196.508" y2="182.524"/>
</g>
</svg>
