<?xml version="1.0" encoding="utf-8"?>
<!-- Generator: Adobe Illustrator 16.0.0, SVG Export Plug-In . SVG Version: 6.00 Build 0)  -->
<!DOCTYPE svg PUBLIC "-//W3C//DTD SVG 1.1//EN" "http://www.w3.org/Graphics/SVG/1.1/DTD/svg11.dtd">
<svg version="1.1" id="Layer_1" xmlns="http://www.w3.org/2000/svg" xmlns:xlink="http://www.w3.org/1999/xlink" x="0px" y="0px"
	 width="250px" height="250px" viewBox="0 0 250 250" enable-background="new 0 0 250 250" xml:space="preserve">
<g>
	<g>
		<path fill="#EB5454" d="M107.62,174.987c0.496,0,0.988,0.012,1.508,0.027c0.52,0.015,1.051,0.026,1.589,0.026
			c0.554,0,1.119-0.015,1.684-0.061c1.02-0.084,1.776-0.978,1.692-1.998c-0.085-1.019-0.979-1.779-1.998-1.691
			c-0.84,0.069-1.71,0.054-2.622,0.031v-51.877h2.775c1.023,0,1.852-0.829,1.852-1.852c0-1.023-0.828-1.853-1.852-1.853h-2.775
			V64.017c10.798,1.259,20.497,13.459,25.047,31.807c0.244,0.994,1.25,1.596,2.242,1.352c0.992-0.244,1.596-1.249,1.352-2.241
			c-2.502-10.077-6.549-18.638-11.707-24.767c-1.352-1.607-2.768-3.028-4.235-4.253c15.25,4.295,28.112,15.212,34.665,30.192
			c0.408,0.935,1.5,1.362,2.439,0.955c0.936-0.409,1.363-1.501,0.955-2.437c-9.145-20.914-29.797-34.423-52.611-34.423
			c-31.647,0-57.391,25.748-57.391,57.391C50.229,149.236,75.973,174.987,107.62,174.987z M53.963,119.445h20.299
			c0.264,14.46,3.597,28.012,9.455,38.337c2.711,4.776,5.827,8.626,9.225,11.463C71.02,163.006,54.772,143.149,53.963,119.445z
			 M105.768,171.177c-7.041-0.798-13.67-6.128-18.829-15.221c-5.552-9.778-8.714-22.685-8.973-36.507h27.802V171.177z
			 M77.966,115.741c0.259-13.822,3.421-26.729,8.973-36.508c5.159-9.091,11.788-14.422,18.829-15.22v51.728H77.966z M92.945,65.945
			c-3.398,2.837-6.514,6.689-9.225,11.462c-5.862,10.326-9.191,23.877-9.455,38.338H53.963
			C54.772,92.037,71.02,72.181,92.945,65.945z"/>
	</g>
	<g>
		<path fill="none" stroke="#EB5454" stroke-width="3" stroke-linecap="round" stroke-linejoin="round" stroke-miterlimit="10" d="
			M186.203,167.377v13.442c0,4.942-4.006,8.948-8.949,8.948"/>
		<path fill="none" stroke="#EB5454" stroke-width="3" stroke-linecap="round" stroke-linejoin="round" stroke-miterlimit="10" d="
			M123.337,180.805v-68.424c0-1.934,1.566-3.5,3.5-3.5h50.361l9.004,9v13.336"/>
		<path fill="none" stroke="#EB5454" stroke-width="3" stroke-linecap="round" stroke-linejoin="round" stroke-miterlimit="10" d="
			M177.184,189.768c-4.941,0-8.949-4.006-8.949-8.948l-0.057-0.015h-53.855l0,0c0,4.969,4.029,8.996,8.998,8.993L177.184,189.768z"
			/>
		
			<polygon fill="none" stroke="#EB5454" stroke-width="3" stroke-linecap="round" stroke-linejoin="round" stroke-miterlimit="10" points="
			177.199,108.881 177.199,117.824 186.203,117.824 		"/>
		
			<polyline fill="none" stroke="#EB5454" stroke-width="3" stroke-linecap="round" stroke-linejoin="round" stroke-miterlimit="10" points="
			181.445,149.406 184.598,152.557 196.547,140.597 		"/>
		
			<circle fill="none" stroke="#EB5454" stroke-width="3" stroke-linecap="round" stroke-linejoin="round" stroke-miterlimit="10" cx="186.198" cy="149.375" r="13.573"/>
		
			<line fill="none" stroke="#EB5454" stroke-width="3" stroke-linecap="round" stroke-linejoin="round" stroke-miterlimit="10" x1="132.352" y1="126.822" x2="141.367" y2="126.822"/>
		
			<line fill="none" stroke="#EB5454" stroke-width="3" stroke-linecap="round" stroke-linejoin="round" stroke-miterlimit="10" x1="132.352" y1="135.818" x2="159.154" y2="135.818"/>
		
			<line fill="none" stroke="#EB5454" stroke-width="3" stroke-linecap="round" stroke-linejoin="round" stroke-miterlimit="10" x1="132.352" y1="144.861" x2="159.154" y2="144.861"/>
		
			<line fill="none" stroke="#EB5454" stroke-width="3" stroke-linecap="round" stroke-linejoin="round" stroke-miterlimit="10" x1="132.352" y1="153.904" x2="159.154" y2="153.904"/>
		
			<line fill="none" stroke="#EB5454" stroke-width="3" stroke-linecap="round" stroke-linejoin="round" stroke-miterlimit="10" x1="132.352" y1="162.947" x2="159.154" y2="162.947"/>
	</g>
</g>
</svg>
