<?xml version="1.0" encoding="utf-8"?>
<!-- Generator: Adobe Illustrator 16.0.0, SVG Export Plug-In . SVG Version: 6.00 Build 0)  -->
<!DOCTYPE svg PUBLIC "-//W3C//DTD SVG 1.1//EN" "http://www.w3.org/Graphics/SVG/1.1/DTD/svg11.dtd">
<svg version="1.1" id="Layer_1" xmlns="http://www.w3.org/2000/svg" xmlns:xlink="http://www.w3.org/1999/xlink" x="0px" y="0px"
	 width="250px" height="250px" viewBox="0 0 250 250" enable-background="new 0 0 250 250" xml:space="preserve">
<g>
	<g id="XMLID_00000101074847039665757570000011056182666020494247_">
		<g id="XMLID_00000083077562024862980780000009016051738925604233_">
			
				<line id="XMLID_00000083068743922111325780000012951889519404501671_" fill="none" stroke="#EB5454" stroke-width="4" stroke-linecap="round" stroke-linejoin="round" stroke-miterlimit="10" x1="102.42" y1="156.903" x2="102.42" y2="193.795"/>
			<g id="XMLID_00000101081714389418381590000009322637617479502720_">
				
					<line id="XMLID_00000111870206736721574850000004162700135385213865_" fill="none" stroke="#EB5454" stroke-width="4" stroke-linecap="round" stroke-linejoin="round" stroke-miterlimit="10" x1="144.361" y1="113.986" x2="137.684" y2="120.664"/>
				
					<path id="XMLID_00000105410199896232367820000013515771065163379365_" fill="none" stroke="#EB5454" stroke-width="4" stroke-linecap="round" stroke-linejoin="round" stroke-miterlimit="10" d="
					M102.245,85.227c-19.863,19.864-19.863,52.069,0,71.932c19.863,19.864,52.067,19.864,71.931,0L102.245,85.227z"/>
				
					<path id="XMLID_00000163768036893984007970000004082950144003333293_" fill="none" stroke="#EB5454" stroke-width="4" stroke-linecap="round" stroke-linejoin="round" stroke-miterlimit="10" d="
					M148.191,104.268L148.191,104.268c1.584-1.585,4.154-1.585,5.74,0l0,0c1.585,1.584,1.585,4.155,0,5.742l0,0
					c-1.586,1.584-4.156,1.584-5.74,0l0,0C146.606,108.423,146.606,105.853,148.191,104.268z"/>
			</g>
			
				<circle fill="#EB5454" stroke="#EB5454" stroke-width="4" stroke-linecap="round" stroke-linejoin="round" stroke-miterlimit="10" cx="102.42" cy="155.799" r="5.332"/>
		</g>
		<g id="XMLID_00000005236800040779471760000004739954072181869191_">
			
				<path id="XMLID_00000127733596345556009460000013047340346187098537_" fill="none" stroke="#EB5454" stroke-width="4" stroke-linecap="round" stroke-linejoin="round" stroke-miterlimit="10" d="
				M151.061,91.54c3.949,0.056,7.876,1.62,10.845,4.677l0,0c2.97,3.057,4.418,7.026,4.362,10.976"/>
			
				<path id="XMLID_00000017516083491211694130000002580571197506851756_" fill="none" stroke="#EB5454" stroke-width="4" stroke-linecap="round" stroke-linejoin="round" stroke-miterlimit="10" d="
				M148.968,74.643c8.239,0.12,16.433,3.381,22.629,9.758l0,0c6.196,6.379,9.22,14.664,9.101,22.903"/>
		</g>
	</g>
	
		<line fill="none" stroke="#EB5454" stroke-width="4" stroke-linecap="round" stroke-linejoin="round" stroke-miterlimit="10" x1="86.235" y1="193.795" x2="118.783" y2="193.795"/>
</g>
</svg>
