<?xml version="1.0" encoding="utf-8"?>
<!-- Generator: Adobe Illustrator 16.0.0, SVG Export Plug-In . SVG Version: 6.00 Build 0)  -->
<!DOCTYPE svg PUBLIC "-//W3C//DTD SVG 1.1//EN" "http://www.w3.org/Graphics/SVG/1.1/DTD/svg11.dtd">
<svg version="1.1" id="Layer_1" xmlns="http://www.w3.org/2000/svg" xmlns:xlink="http://www.w3.org/1999/xlink" x="0px" y="0px"
	 width="250px" height="250px" viewBox="0 0 250 250" enable-background="new 0 0 250 250" xml:space="preserve">
<g>
	<path fill="none" stroke="#EB5454" stroke-width="4" stroke-linecap="round" stroke-linejoin="round" stroke-miterlimit="10" d="
		M125,80.014L125,80.014c35.736,20.096,35.736,69.875,0,89.972"/>
	<path fill="none" stroke="#EB5454" stroke-width="4" stroke-linecap="round" stroke-linejoin="round" stroke-miterlimit="10" d="
		M125,80.014L125,80.014c-36.059,20.096-36.059,69.875,0,89.972"/>
	
		<line fill="none" stroke="#EB5454" stroke-width="4" stroke-linecap="round" stroke-linejoin="round" stroke-miterlimit="10" x1="169.986" y1="125" x2="80.014" y2="125"/>
	<path fill="none" stroke="#EB5454" stroke-width="4" stroke-linecap="round" stroke-linejoin="round" stroke-miterlimit="10" d="
		M158.441,94.942c-19.139,16.085-47.744,16.085-66.882,0"/>
	<path fill="none" stroke="#EB5454" stroke-width="4" stroke-linecap="round" stroke-linejoin="round" stroke-miterlimit="10" d="
		M158.441,155.057c-19.139-16.082-47.745-16.084-66.882,0"/>
	
		<line fill="none" stroke="#EB5454" stroke-width="4" stroke-linecap="round" stroke-linejoin="round" stroke-miterlimit="10" x1="125" y1="80.014" x2="125" y2="169.986"/>
	<path fill="none" stroke="#EB5454" stroke-width="4" stroke-linecap="round" stroke-linejoin="round" stroke-miterlimit="10" d="
		M125,80.014c24.804,0,44.986,20.181,44.986,44.986c0,24.804-20.182,44.986-44.986,44.986c-24.807,0-44.987-20.182-44.987-44.986
		C80.013,100.195,100.194,80.014,125,80.014"/>
</g>
<circle fill="#EB5454" stroke="#EB5454" stroke-width="4" stroke-linecap="round" stroke-linejoin="round" stroke-miterlimit="10" cx="169.986" cy="125" r="4.508"/>
<circle fill="#EB5454" stroke="#EB5454" stroke-width="4" stroke-linecap="round" stroke-linejoin="round" stroke-miterlimit="10" cx="125" cy="169.986" r="4.508"/>
<circle fill="#EB5454" stroke="#EB5454" stroke-width="4" stroke-linecap="round" stroke-linejoin="round" stroke-miterlimit="10" cx="125" cy="80.014" r="4.508"/>
<circle fill="#EB5454" stroke="#EB5454" stroke-width="4" stroke-linecap="round" stroke-linejoin="round" stroke-miterlimit="10" cx="80.014" cy="125" r="4.507"/>
</svg>
