<?xml version="1.0" encoding="utf-8"?>
<!-- Generator: Adobe Illustrator 16.0.0, SVG Export Plug-In . SVG Version: 6.00 Build 0)  -->
<!DOCTYPE svg PUBLIC "-//W3C//DTD SVG 1.1//EN" "http://www.w3.org/Graphics/SVG/1.1/DTD/svg11.dtd">
<svg version="1.1" id="Layer_1" xmlns="http://www.w3.org/2000/svg" xmlns:xlink="http://www.w3.org/1999/xlink" x="0px" y="0px"
	 width="250px" height="250px" viewBox="0 0 250 250" enable-background="new 0 0 250 250" xml:space="preserve">
<g>
	<path fill="none" stroke="#EB5454" stroke-width="4" stroke-linecap="round" stroke-linejoin="round" stroke-miterlimit="10" d="
		M-245,41.79L-245,41.79c35.736,20.096,35.736,69.875,0,89.972"/>
	<path fill="none" stroke="#EB5454" stroke-width="4" stroke-linecap="round" stroke-linejoin="round" stroke-miterlimit="10" d="
		M-245,41.79L-245,41.79c-36.059,20.096-36.059,69.875,0,89.972"/>
	
		<line fill="none" stroke="#EB5454" stroke-width="4" stroke-linecap="round" stroke-linejoin="round" stroke-miterlimit="10" x1="-200.014" y1="86.776" x2="-289.986" y2="86.776"/>
	<path fill="none" stroke="#EB5454" stroke-width="4" stroke-linecap="round" stroke-linejoin="round" stroke-miterlimit="10" d="
		M-211.559,56.718c-19.14,16.085-47.745,16.085-66.882,0"/>
	<path fill="none" stroke="#EB5454" stroke-width="4" stroke-linecap="round" stroke-linejoin="round" stroke-miterlimit="10" d="
		M-211.559,116.833c-19.14-16.082-47.746-16.084-66.882,0"/>
	
		<line fill="none" stroke="#EB5454" stroke-width="4" stroke-linecap="round" stroke-linejoin="round" stroke-miterlimit="10" x1="-245" y1="41.79" x2="-245" y2="131.762"/>
	<path fill="none" stroke="#EB5454" stroke-width="4" stroke-linecap="round" stroke-linejoin="round" stroke-miterlimit="10" d="
		M-245,41.79c24.805,0,44.986,20.181,44.986,44.986c0,24.805-20.182,44.986-44.986,44.986c-24.807,0-44.987-20.182-44.987-44.986
		C-289.987,61.971-269.806,41.79-245,41.79"/>
</g>
<circle fill="#EB5454" stroke="#EB5454" stroke-width="4" stroke-linecap="round" stroke-linejoin="round" stroke-miterlimit="10" cx="-118.5" cy="80.109" r="4.508"/>
<circle fill="#EB5454" stroke="#EB5454" stroke-width="4" stroke-linecap="round" stroke-linejoin="round" stroke-miterlimit="10" cx="-141.5" cy="11.008" r="4.508"/>
<g transform="translate(0,-952.36216)">
	<path fill="#EB5454" d="M451.297,1046.917c-0.923-0.234-1.842-0.217-3.748-0.241c-1.906-0.023-4.646-0.015-8.51-0.01
		c-3.866,0.007-6.603,0.007-8.509,0.036c-1.905,0.029-2.827,0.015-3.749,0.252c-0.23,0.06-0.492,0.099-0.9,0.443
		s-0.756,1.429-0.542,2.017s0.477,0.743,0.652,0.886c0.176,0.144,0.32,0.233,0.468,0.321c0.592,0.353,1.268,0.665,1.956,1.084
		c0.688,0.42,1.335,0.925,1.697,1.401c0.362,0.478,0.49,0.814,0.387,1.415c-0.207,1.198-2.157,3.994-8.695,7.802
		c-6.538,3.807-9.915,4.111-11.05,3.693c-0.567-0.209-0.792-0.488-1.021-1.044c-0.229-0.555-0.341-1.369-0.357-2.18
		s0.053-1.557,0.045-2.249c-0.002-0.173-0.006-0.346-0.041-0.571c-0.036-0.225-0.038-0.529-0.438-1.01
		c-0.397-0.48-1.504-0.72-2.004-0.536c-0.499,0.185-0.665,0.395-0.831,0.566c-0.664,0.687-1.111,1.496-2.088,3.146
		c-0.978,1.649-2.348,4.039-4.283,7.41c-1.936,3.372-3.308,5.759-4.239,7.435s-1.405,2.471-1.665,3.393
		c-0.064,0.229-0.162,0.479-0.071,1.007c0.092,0.526,0.851,1.369,1.463,1.476c0.614,0.105,0.878-0.046,1.089-0.128
		c0.212-0.082,0.363-0.162,0.513-0.247c0.601-0.34,1.209-0.774,1.916-1.165c0.707-0.392,1.464-0.703,2.057-0.782
		c0.593-0.078,0.946-0.021,1.41,0.367c0.928,0.778,2.355,3.87,2.349,11.464c-0.007,7.593-1.438,10.688-2.367,11.47
		c-0.465,0.39-0.819,0.447-1.412,0.37c-0.593-0.076-1.349-0.387-2.055-0.775s-1.313-0.82-1.914-1.158
		c-0.149-0.085-0.301-0.166-0.512-0.246c-0.211-0.082-0.476-0.232-1.09-0.125c-0.613,0.108-1.373,0.954-1.465,1.48
		c-0.093,0.528,0.004,0.775,0.068,1.006c0.258,0.92,0.729,1.715,1.659,3.388c0.929,1.674,2.298,4.056,4.228,7.422
		s3.295,5.749,4.27,7.396c0.975,1.646,1.419,2.456,2.082,3.142c0.166,0.171,0.332,0.379,0.831,0.562
		c0.5,0.183,1.605-0.058,2.005-0.539c0.399-0.482,0.402-0.788,0.438-1.014c0.035-0.225,0.04-0.397,0.043-0.57
		c0.01-0.692-0.06-1.438-0.041-2.249c0.018-0.811,0.131-1.626,0.361-2.181c0.229-0.556,0.456-0.837,1.023-1.048
		c1.136-0.422,4.512-0.127,11.043,3.659c6.531,3.787,8.478,6.578,8.683,7.775c0.103,0.6-0.027,0.937-0.392,1.415
		c-0.363,0.478-1.008,0.985-1.697,1.406c-0.689,0.422-1.366,0.737-1.958,1.092c-0.148,0.088-0.294,0.178-0.47,0.321
		c-0.177,0.145-0.439,0.3-0.654,0.889s0.132,1.672,0.54,2.015c0.407,0.343,0.669,0.382,0.898,0.44
		c0.923,0.234,1.843,0.218,3.748,0.241c1.906,0.023,4.646,0.018,8.511,0.018c3.866,0,6.602,0,8.508-0.036
		c1.906-0.029,2.827-0.017,3.749-0.252c0.231-0.06,0.493-0.101,0.901-0.445c0.408-0.344,0.755-1.427,0.541-2.015
		s-0.477-0.742-0.652-0.887c-0.176-0.142-0.32-0.232-0.468-0.32c-0.591-0.354-1.267-0.667-1.955-1.086s-1.336-0.922-1.698-1.399
		c-0.363-0.478-0.49-0.814-0.387-1.414c0.208-1.2,2.157-3.996,8.695-7.802c6.538-3.807,9.916-4.112,11.05-3.694
		c0.568,0.209,0.792,0.489,1.021,1.044c0.229,0.555,0.341,1.369,0.357,2.181c0.018,0.81-0.053,1.556-0.045,2.248
		c0.002,0.174,0.007,0.346,0.042,0.57c0.034,0.226,0.037,0.531,0.437,1.011c0.398,0.48,1.504,0.719,2.005,0.534
		c0.5-0.185,0.664-0.393,0.83-0.564c0.664-0.687,1.112-1.497,2.089-3.146c0.978-1.648,2.347-4.039,4.282-7.41
		c1.936-3.372,3.308-5.758,4.239-7.435c0.933-1.676,1.406-2.471,1.665-3.392c0.064-0.23,0.162-0.48,0.07-1.008
		c-0.09-0.526-0.85-1.369-1.463-1.476c-0.612-0.104-0.877,0.047-1.088,0.128s-0.363,0.163-0.513,0.248
		c-0.601,0.34-1.21,0.773-1.915,1.164c-0.707,0.392-1.464,0.702-2.057,0.78s-0.947,0.024-1.411-0.365
		c-0.928-0.777-2.355-3.869-2.349-11.464c0.007-7.593,1.438-10.688,2.367-11.469c0.465-0.391,0.819-0.447,1.413-0.371
		c0.592,0.077,1.348,0.386,2.055,0.775c0.706,0.389,1.313,0.82,1.913,1.158c0.149,0.084,0.3,0.166,0.513,0.247
		c0.211,0.081,0.476,0.231,1.089,0.123c0.613-0.107,1.373-0.953,1.466-1.48c0.092-0.527-0.005-0.774-0.069-1.005
		c-0.258-0.921-0.729-1.716-1.658-3.389c-0.93-1.672-2.299-4.055-4.229-7.421c-1.929-3.366-3.294-5.751-4.268-7.397
		s-1.42-2.456-2.083-3.14c-0.166-0.172-0.331-0.38-0.831-0.563c-0.499-0.184-1.605,0.058-2.005,0.539s-0.402,0.788-0.438,1.013
		c-0.035,0.226-0.041,0.398-0.042,0.571c-0.011,0.692,0.06,1.438,0.041,2.249s-0.132,1.625-0.362,2.181
		c-0.229,0.556-0.456,0.837-1.023,1.048c-1.135,0.421-4.511,0.125-11.042-3.662c-6.532-3.786-8.478-6.575-8.684-7.773
		c-0.103-0.599,0.027-0.937,0.392-1.414c0.363-0.479,1.009-0.985,1.697-1.407c0.689-0.422,1.367-0.736,1.958-1.091
		c0.148-0.089,0.295-0.178,0.471-0.321c0.177-0.145,0.438-0.301,0.653-0.889c0.215-0.589-0.132-1.672-0.539-2.015
		c-0.407-0.344-0.67-0.383-0.899-0.441V1046.917z M446.361,1050.081c-0.371,0.322-0.769,0.508-1.091,0.933
		c-0.779,1.024-1.311,2.494-1.041,4.067c0.538,3.147,3.468,6.166,10.323,10.141s10.921,5.011,13.902,3.905
		c1.491-0.553,2.492-1.751,2.983-2.942c0.205-0.493,0.165-0.931,0.258-1.414c0.921,1.574,2.003,3.452,3.674,6.366
		s2.746,4.797,3.64,6.387c-0.462-0.16-0.819-0.414-1.346-0.482c-1.27-0.164-2.799,0.112-4.019,1.138
		c-2.439,2.051-3.582,6.117-3.588,14.088c-0.008,7.971,1.127,12.034,3.563,14.077c1.219,1.021,2.746,1.293,4.017,1.124
		c0.525-0.069,0.884-0.323,1.345-0.485c-0.896,1.593-1.975,3.479-3.65,6.397c-1.676,2.92-2.759,4.802-3.683,6.379
		c-0.092-0.483-0.052-0.923-0.255-1.415c-0.49-1.189-1.489-2.385-2.98-2.934c-2.979-1.097-7.046-0.047-13.908,3.948
		c-6.862,3.996-9.795,7.023-10.341,10.173c-0.272,1.574,0.255,3.043,1.032,4.064c0.322,0.423,0.72,0.607,1.089,0.93
		c-1.816,0.018-3.977,0.025-7.323,0.029c-3.348,0-5.508,0-7.324-0.017c0.37-0.322,0.768-0.508,1.091-0.933
		c0.779-1.024,1.311-2.494,1.041-4.068c-0.54-3.146-3.469-6.166-10.324-10.141c-6.855-3.974-10.921-5.011-13.902-3.903
		c-1.49,0.552-2.491,1.75-2.983,2.941c-0.204,0.493-0.164,0.931-0.257,1.414c-0.922-1.574-2.003-3.454-3.674-6.368
		c-1.67-2.914-2.745-4.795-3.639-6.385c0.462,0.16,0.819,0.414,1.345,0.481c1.27,0.165,2.798-0.111,4.018-1.137
		c2.44-2.051,3.582-6.117,3.589-14.088s-1.128-12.034-3.564-14.077c-1.219-1.021-2.747-1.293-4.017-1.125
		c-0.525,0.07-0.883,0.324-1.345,0.486c0.896-1.593,1.975-3.479,3.65-6.397c1.676-2.92,2.759-4.803,3.683-6.379
		c0.092,0.483,0.052,0.922,0.255,1.415c0.49,1.188,1.49,2.384,2.98,2.933c2.979,1.097,7.046,0.048,13.908-3.947
		c6.862-3.996,9.796-7.024,10.341-10.174c0.272-1.574-0.255-3.042-1.032-4.064c-0.321-0.423-0.72-0.607-1.089-0.929
		c1.817-0.02,3.978-0.026,7.323-0.031c3.348-0.005,5.508-0.005,7.325,0.009V1050.081z"/>
	<path fill="#EB5454" d="M428.049,1146.784v1.698v20.24h21.901v-21.938H428.049z M431.445,1150.181h15.109v15.146h-15.109V1150.181z
		"/>
	<path fill="#EB5454" d="M428.049,1015.902v1.698v20.243h21.901v-21.941H428.049z M431.445,1019.299h15.109v15.149h-15.109V1019.299
		z"/>
	<path fill="#EB5454" d="M494.795,1052.989c-5.65,0-10.264,4.628-10.264,10.285c0,5.656,4.613,10.284,10.264,10.284
		c5.651,0,10.265-4.628,10.265-10.284C505.06,1057.617,500.446,1052.989,494.795,1052.989z M494.795,1056.386
		c3.812,0,6.868,3.063,6.868,6.889c0,3.825-3.057,6.888-6.868,6.888s-6.868-3.063-6.868-6.888
		C487.927,1059.448,490.983,1056.386,494.795,1056.386z"/>
	<path fill="#EB5454" d="M495.078,1107.263l-10.782,18.915l21.737-0.101l-1.48-2.542L495.078,1107.263L495.078,1107.263z
		 M495.109,1114.061l5.032,8.643l-9.986,0.046L495.109,1114.061L495.109,1114.061z"/>
	<path fill="#EB5454" d="M382.465,1052.989c-5.651,0-10.265,4.628-10.265,10.285c0,5.656,4.613,10.284,10.265,10.284
		c5.65,0,10.264-4.628,10.264-10.284C392.729,1057.617,388.115,1052.989,382.465,1052.989z M382.465,1056.386
		c3.812,0,6.868,3.063,6.868,6.889c0,3.825-3.057,6.888-6.868,6.888s-6.868-3.063-6.868-6.888
		C375.597,1059.448,378.653,1056.386,382.465,1056.386z"/>
	<path fill="#EB5454" d="M382.748,1107.263l-10.781,18.915l21.736-0.101l-1.48-2.542L382.748,1107.263L382.748,1107.263z
		 M382.779,1114.061l5.032,8.643l-9.985,0.046L382.779,1114.061L382.779,1114.061z"/>
</g>
<g>
	<path fill="#EB5454" d="M190.911,137.479c-2.418,0-4.069-0.767-5.603-1.888c-2.301-1.769-4.07-4.659-6.37-7.313
		c-2.241-2.654-5.367-5.013-9.968-5.013c-3.067,0-5.545,1.062-7.432,2.536c-2.891,2.241-4.659,5.367-6.783,7.667
		c-2.123,2.359-4.188,3.952-7.785,4.011c-2.418,0-4.069-0.767-5.604-1.888c-2.3-1.769-4.069-4.659-6.37-7.313
		c-2.24-2.654-5.367-5.013-9.968-5.013c-3.066,0-5.485,1.062-7.432,2.536c-2.831,2.241-4.659,5.367-6.782,7.667
		c-2.124,2.359-4.188,3.952-7.786,4.011c-2.418,0-4.069-0.767-5.603-1.888c-2.301-1.769-4.07-4.659-6.37-7.313
		c-2.241-2.654-5.367-5.013-9.968-5.013c-3.067,0-5.544,1.062-7.432,2.536c-2.89,2.241-4.719,5.367-6.783,7.667
		c-2.123,2.359-4.188,3.952-7.785,4.011c-0.825,0-1.475,0.648-1.475,1.475s0.649,1.475,1.475,1.475c3.067,0,5.544-1.062,7.432-2.536
		c2.89-2.241,4.719-5.367,6.783-7.668c2.123-2.358,4.188-3.951,7.785-4.011c2.418,0,4.069,0.768,5.604,1.888
		c2.3,1.77,4.069,4.659,6.369,7.313c2.242,2.654,5.368,5.014,9.968,5.014c3.067,0,5.545-1.062,7.432-2.536
		c2.891-2.241,4.66-5.367,6.783-7.668c2.123-2.358,4.188-3.951,7.785-4.011c2.419,0,4.07,0.768,5.604,1.888
		c2.301,1.77,4.07,4.659,6.37,7.313c2.241,2.654,5.367,5.014,9.968,5.014c3.067,0,5.544-1.062,7.432-2.536
		c2.89-2.241,4.659-5.367,6.782-7.668c2.124-2.358,4.188-3.951,7.786-4.011c2.418,0,4.069,0.768,5.603,1.888
		c2.301,1.77,4.07,4.659,6.37,7.313c2.241,2.654,5.367,5.014,9.968,5.014c0.826,0,1.475-0.648,1.475-1.475
		S191.737,137.479,190.911,137.479z"/>
	<path fill="#EB5454" d="M190.911,106.69c-2.418,0-4.069-0.767-5.603-1.887c-2.301-1.77-4.07-4.66-6.37-7.313
		c-2.241-2.654-5.367-5.014-9.968-5.014c-3.067,0-5.545,1.062-7.432,2.536c-2.891,2.241-4.659,5.367-6.783,7.667
		c-2.123,2.359-4.188,3.952-7.785,4.011c-2.418,0-4.069-0.767-5.604-1.887c-2.3-1.77-4.069-4.66-6.37-7.313
		c-2.24-2.654-5.367-5.014-9.968-5.014c-3.066,0-5.485,1.062-7.432,2.536c-2.831,2.241-4.659,5.367-6.782,7.667
		c-2.124,2.359-4.188,3.952-7.786,4.011c-2.418,0-4.069-0.767-5.603-1.887c-2.301-1.77-4.07-4.66-6.37-7.313
		c-2.241-2.654-5.367-5.014-9.968-5.014c-3.067,0-5.544,1.062-7.432,2.536c-2.89,2.241-4.719,5.367-6.783,7.667
		c-2.123,2.359-4.188,3.952-7.785,4.011c-0.825,0-1.475,0.649-1.475,1.475c0,0.826,0.649,1.475,1.475,1.475
		c3.067,0,5.544-1.062,7.432-2.536c2.89-2.241,4.719-5.367,6.783-7.667c2.123-2.359,4.188-3.952,7.785-4.011
		c2.418,0,4.069,0.767,5.604,1.887c2.3,1.77,4.069,4.66,6.369,7.313c2.242,2.654,5.368,5.014,9.968,5.014
		c3.067,0,5.545-1.062,7.432-2.536c2.891-2.241,4.66-5.367,6.783-7.667c2.123-2.359,4.188-3.952,7.785-4.011
		c2.419,0,4.07,0.767,5.604,1.887c2.301,1.77,4.07,4.66,6.37,7.313c2.241,2.654,5.367,5.014,9.968,5.014
		c3.067,0,5.544-1.062,7.432-2.536c2.89-2.241,4.659-5.367,6.782-7.667c2.124-2.359,4.188-3.952,7.786-4.011
		c2.418,0,4.069,0.767,5.603,1.887c2.301,1.77,4.07,4.66,6.37,7.313c2.241,2.654,5.367,5.014,9.968,5.014
		c0.826,0,1.475-0.648,1.475-1.475C192.386,107.34,191.737,106.69,190.911,106.69z"/>
	<path fill="#EB5454" d="M190.911,75.902c-2.418,0-4.069-0.767-5.603-1.887c-2.301-1.769-4.07-4.659-6.37-7.313
		c-2.241-2.654-5.367-5.013-9.968-5.013c-3.067,0-5.545,1.062-7.432,2.536c-2.891,2.241-4.659,5.367-6.783,7.667
		c-2.123,2.359-4.188,3.952-7.785,4.01c-2.418,0-4.069-0.767-5.604-1.887c-2.3-1.769-4.069-4.659-6.37-7.313
		c-2.24-2.654-5.367-5.013-9.968-5.013c-3.066,0-5.485,1.062-7.432,2.536c-2.831,2.241-4.659,5.367-6.782,7.667
		c-2.124,2.359-4.188,3.952-7.786,4.01c-2.418,0-4.069-0.767-5.603-1.887c-2.301-1.769-4.07-4.659-6.37-7.313
		c-2.241-2.654-5.309-5.072-9.968-5.013c-3.067,0-5.544,1.062-7.432,2.536c-2.89,2.241-4.719,5.367-6.783,7.667
		c-2.123,2.359-4.188,3.952-7.785,4.01c-0.825,0-1.475,0.649-1.475,1.475c0,0.826,0.649,1.475,1.475,1.475
		c3.067,0,5.544-1.062,7.432-2.536c2.89-2.241,4.719-5.367,6.783-7.667c2.123-2.359,4.188-3.952,7.785-4.011
		c2.418,0,4.069,0.767,5.604,1.888c2.3,1.769,4.069,4.659,6.369,7.313c2.242,2.654,5.368,5.013,9.968,5.013
		c3.067,0,5.545-1.062,7.432-2.536c2.891-2.241,4.66-5.367,6.783-7.667c2.123-2.359,4.188-3.952,7.785-4.011
		c2.419,0,4.07,0.767,5.604,1.888c2.301,1.769,4.07,4.659,6.37,7.313c2.241,2.654,5.367,5.013,9.968,5.013
		c3.067,0,5.544-1.062,7.432-2.536c2.89-2.241,4.659-5.367,6.782-7.667c2.124-2.359,4.188-3.952,7.786-4.011
		c2.418,0,4.069,0.767,5.603,1.888c2.301,1.769,4.07,4.659,6.37,7.313c2.241,2.654,5.367,5.013,9.968,5.013
		c0.826,0,1.475-0.648,1.475-1.475C192.386,76.552,191.737,75.902,190.911,75.902z"/>
	<path fill="#EB5454" d="M170.128,187.87l9.024-9.023c0.59-0.59,0.59-1.533,0-2.064s-1.533-0.59-2.064,0l-6.605,6.605v-36.154
		c0-0.826-0.649-1.475-1.475-1.475c-0.826,0-1.475,0.648-1.475,1.475v35.978l-6.43-6.429c-0.589-0.59-1.533-0.59-2.063,0
		c-0.59,0.59-0.59,1.533,0,2.064l8.965,9.023C168.595,188.46,169.538,188.46,170.128,187.87z"/>
	<path fill="#EB5454" d="M124.771,145.699c-0.825,0-1.475,0.649-1.475,1.475v36.037l-6.429-6.429c-0.59-0.59-1.533-0.59-2.064,0
		c-0.53,0.59-0.59,1.533,0,2.064l9.024,9.023c0.59,0.59,1.533,0.59,2.064,0l9.024-9.023c0.589-0.59,0.589-1.533,0-2.064
		c-0.59-0.59-1.534-0.59-2.064,0l-6.606,6.605v-36.154C126.246,146.349,125.598,145.699,124.771,145.699z"/>
	<path fill="#EB5454" d="M80.654,145.699c-0.826,0-1.475,0.649-1.475,1.475v36.037l-6.43-6.429c-0.589-0.59-1.533-0.59-2.063,0
		c-0.531,0.59-0.59,1.533,0,2.064l9.023,9.023c0.59,0.59,1.534,0.59,2.064,0l9.024-9.023c0.59-0.59,0.59-1.533,0-2.064
		c-0.59-0.59-1.533-0.59-2.064,0l-6.605,6.605v-36.154C82.129,146.349,81.479,145.699,80.654,145.699z"/>
</g>
</svg>
