<?xml version="1.0" encoding="utf-8"?>
<!-- Generator: Adobe Illustrator 16.0.0, SVG Export Plug-In . SVG Version: 6.00 Build 0)  -->
<!DOCTYPE svg PUBLIC "-//W3C//DTD SVG 1.1//EN" "http://www.w3.org/Graphics/SVG/1.1/DTD/svg11.dtd">
<svg version="1.1" id="Layer_1" xmlns="http://www.w3.org/2000/svg" xmlns:xlink="http://www.w3.org/1999/xlink" x="0px" y="0px"
	 width="250px" height="250px" viewBox="0 0 250 250" enable-background="new 0 0 250 250" xml:space="preserve">
<g>
	<path fill="none" stroke="#EB5454" stroke-width="4" stroke-linecap="round" stroke-linejoin="round" stroke-miterlimit="10" d="
		M160.938,128.605L160.938,128.605c0,1.699-0.105,3.385-0.313,5.047c-1.449,11.637-7.866,22.188-17.738,28.814L125,174.475
		l-17.886-12.008c-11.283-7.574-18.052-20.271-18.052-33.861v-2.785V84.505h2.28c8.131,0,15.929-3.23,21.678-8.979l0,0h23.958l0,0
		c5.75,5.749,13.547,8.979,21.678,8.979h2.281v11.889V128.605z"/>
	<g>
		
			<polyline fill="none" stroke="#EB5454" stroke-width="4" stroke-linecap="round" stroke-linejoin="round" stroke-miterlimit="10" points="
			120.395,116.022 123.529,119.155 135.409,107.263 		"/>
		
			<circle fill="none" stroke="#EB5454" stroke-width="4" stroke-linecap="round" stroke-linejoin="round" stroke-miterlimit="10" cx="125.121" cy="115.991" r="13.496"/>
	</g>
</g>
</svg>
