<?xml version="1.0" encoding="utf-8"?>
<!-- Generator: Adobe Illustrator 16.0.0, SVG Export Plug-In . SVG Version: 6.00 Build 0)  -->
<!DOCTYPE svg PUBLIC "-//W3C//DTD SVG 1.1//EN" "http://www.w3.org/Graphics/SVG/1.1/DTD/svg11.dtd">
<svg version="1.1" id="Layer_1" xmlns="http://www.w3.org/2000/svg" xmlns:xlink="http://www.w3.org/1999/xlink" x="0px" y="0px"
	 width="250px" height="250px" viewBox="0 0 250 250" enable-background="new 0 0 250 250" xml:space="preserve">
<g>
	<path fill="none" stroke="#EB5454" stroke-width="4" stroke-linecap="round" stroke-linejoin="round" stroke-miterlimit="10" d="
		M-245,41.79L-245,41.79c35.736,20.096,35.736,69.875,0,89.972"/>
	<path fill="none" stroke="#EB5454" stroke-width="4" stroke-linecap="round" stroke-linejoin="round" stroke-miterlimit="10" d="
		M-245,41.79L-245,41.79c-36.059,20.096-36.059,69.875,0,89.972"/>
	
		<line fill="none" stroke="#EB5454" stroke-width="4" stroke-linecap="round" stroke-linejoin="round" stroke-miterlimit="10" x1="-200.014" y1="86.776" x2="-289.986" y2="86.776"/>
	<path fill="none" stroke="#EB5454" stroke-width="4" stroke-linecap="round" stroke-linejoin="round" stroke-miterlimit="10" d="
		M-211.559,56.718c-19.14,16.085-47.745,16.085-66.882,0"/>
	<path fill="none" stroke="#EB5454" stroke-width="4" stroke-linecap="round" stroke-linejoin="round" stroke-miterlimit="10" d="
		M-211.559,116.833c-19.14-16.082-47.746-16.084-66.882,0"/>
	
		<line fill="none" stroke="#EB5454" stroke-width="4" stroke-linecap="round" stroke-linejoin="round" stroke-miterlimit="10" x1="-245" y1="41.79" x2="-245" y2="131.762"/>
	<path fill="none" stroke="#EB5454" stroke-width="4" stroke-linecap="round" stroke-linejoin="round" stroke-miterlimit="10" d="
		M-245,41.79c24.805,0,44.986,20.181,44.986,44.986c0,24.805-20.182,44.986-44.986,44.986c-24.807,0-44.987-20.182-44.987-44.986
		C-289.987,61.971-269.806,41.79-245,41.79"/>
</g>
<circle fill="#EB5454" stroke="#EB5454" stroke-width="4" stroke-linecap="round" stroke-linejoin="round" stroke-miterlimit="10" cx="-118.5" cy="80.109" r="4.508"/>
<circle fill="#EB5454" stroke="#EB5454" stroke-width="4" stroke-linecap="round" stroke-linejoin="round" stroke-miterlimit="10" cx="-141.5" cy="11.008" r="4.508"/>
<g>
	<path fill="#EB5454" d="M-71.081,290.93c-2.418,0-4.069-0.766-5.603-1.887c-2.301-1.77-4.07-4.66-6.37-7.314
		c-2.241-2.654-5.367-5.012-9.968-5.012c-3.067,0-5.545,1.061-7.432,2.535c-2.891,2.242-4.659,5.367-6.783,7.668
		c-2.123,2.359-4.188,3.951-7.785,4.01c-2.418,0-4.069-0.766-5.604-1.887c-2.3-1.77-4.069-4.66-6.37-7.314
		c-2.24-2.654-5.367-5.012-9.968-5.012c-3.066,0-5.485,1.061-7.432,2.535c-2.831,2.242-4.659,5.367-6.782,7.668
		c-2.124,2.359-4.188,3.951-7.786,4.01c-2.418,0-4.069-0.766-5.603-1.887c-2.301-1.77-4.07-4.66-6.37-7.314
		c-2.241-2.654-5.367-5.012-9.968-5.012c-3.067,0-5.544,1.061-7.432,2.535c-2.89,2.242-4.719,5.367-6.783,7.668
		c-2.123,2.359-4.188,3.951-7.785,4.01c-0.825,0-1.475,0.648-1.475,1.475s0.649,1.475,1.475,1.475c3.067,0,5.544-1.061,7.432-2.535
		c2.89-2.242,4.719-5.367,6.783-7.668c2.123-2.359,4.188-3.951,7.785-4.012c2.418,0,4.069,0.768,5.604,1.889
		c2.3,1.77,4.069,4.658,6.369,7.313c2.242,2.654,5.368,5.014,9.968,5.014c3.067,0,5.545-1.061,7.432-2.535
		c2.891-2.242,4.66-5.367,6.783-7.668c2.123-2.359,4.188-3.951,7.785-4.012c2.419,0,4.07,0.768,5.604,1.889
		c2.301,1.77,4.07,4.658,6.37,7.313c2.241,2.654,5.367,5.014,9.968,5.014c3.067,0,5.544-1.061,7.432-2.535
		c2.89-2.242,4.659-5.367,6.782-7.668c2.124-2.359,4.188-3.951,7.786-4.012c2.418,0,4.069,0.768,5.603,1.889
		c2.301,1.77,4.07,4.658,6.37,7.313c2.241,2.654,5.367,5.014,9.968,5.014c0.826,0,1.475-0.648,1.475-1.475
		S-70.255,290.93-71.081,290.93z"/>
	<path fill="#EB5454" d="M-71.081,260.143c-2.418,0-4.069-0.768-5.603-1.887c-2.301-1.77-4.07-4.66-6.37-7.314
		c-2.241-2.654-5.367-5.014-9.968-5.014c-3.067,0-5.545,1.063-7.432,2.537c-2.891,2.24-4.659,5.367-6.783,7.666
		c-2.123,2.359-4.188,3.953-7.785,4.012c-2.418,0-4.069-0.768-5.604-1.887c-2.3-1.77-4.069-4.66-6.37-7.314
		c-2.24-2.654-5.367-5.014-9.968-5.014c-3.066,0-5.485,1.063-7.432,2.537c-2.831,2.24-4.659,5.367-6.782,7.666
		c-2.124,2.359-4.188,3.953-7.786,4.012c-2.418,0-4.069-0.768-5.603-1.887c-2.301-1.77-4.07-4.66-6.37-7.314
		c-2.241-2.654-5.367-5.014-9.968-5.014c-3.067,0-5.544,1.063-7.432,2.537c-2.89,2.24-4.719,5.367-6.783,7.666
		c-2.123,2.359-4.188,3.953-7.785,4.012c-0.825,0-1.475,0.648-1.475,1.475s0.649,1.475,1.475,1.475c3.067,0,5.544-1.063,7.432-2.537
		c2.89-2.24,4.719-5.367,6.783-7.666c2.123-2.359,4.188-3.953,7.785-4.012c2.418,0,4.069,0.768,5.604,1.887
		c2.3,1.77,4.069,4.66,6.369,7.314c2.242,2.654,5.368,5.014,9.968,5.014c3.067,0,5.545-1.063,7.432-2.537
		c2.891-2.24,4.66-5.367,6.783-7.666c2.123-2.359,4.188-3.953,7.785-4.012c2.419,0,4.07,0.768,5.604,1.887
		c2.301,1.77,4.07,4.66,6.37,7.314c2.241,2.654,5.367,5.014,9.968,5.014c3.067,0,5.544-1.063,7.432-2.537
		c2.89-2.24,4.659-5.367,6.782-7.666c2.124-2.359,4.188-3.953,7.786-4.012c2.418,0,4.069,0.768,5.603,1.887
		c2.301,1.77,4.07,4.66,6.37,7.314c2.241,2.654,5.367,5.014,9.968,5.014c0.826,0,1.475-0.648,1.475-1.475
		S-70.255,260.143-71.081,260.143z"/>
	<path fill="#EB5454" d="M-71.081,229.354c-2.418,0-4.069-0.766-5.603-1.887c-2.301-1.77-4.07-4.659-6.37-7.313
		c-2.241-2.654-5.367-5.013-9.968-5.013c-3.067,0-5.545,1.061-7.432,2.535c-2.891,2.242-4.659,5.367-6.783,7.668
		c-2.123,2.359-4.188,3.951-7.785,4.01c-2.418,0-4.069-0.766-5.604-1.887c-2.3-1.77-4.069-4.659-6.37-7.313
		c-2.24-2.653-5.367-5.013-9.968-5.013c-3.066,0-5.485,1.061-7.432,2.535c-2.831,2.242-4.659,5.367-6.782,7.668
		c-2.124,2.359-4.188,3.951-7.786,4.01c-2.418,0-4.069-0.766-5.603-1.887c-2.301-1.77-4.07-4.659-6.37-7.313
		c-2.241-2.654-5.309-5.072-9.968-5.013c-3.067,0-5.544,1.061-7.432,2.535c-2.89,2.242-4.719,5.367-6.783,7.668
		c-2.123,2.359-4.188,3.951-7.785,4.01c-0.825,0-1.475,0.65-1.475,1.475c0,0.826,0.649,1.475,1.475,1.475
		c3.067,0,5.544-1.061,7.432-2.535c2.89-2.242,4.719-5.367,6.783-7.668c2.123-2.359,4.188-3.951,7.785-4.011
		c2.418,0,4.069,0.767,5.604,1.888c2.3,1.77,4.069,4.659,6.369,7.313c2.242,2.653,5.368,5.013,9.968,5.013
		c3.067,0,5.545-1.061,7.432-2.535c2.891-2.242,4.66-5.367,6.783-7.668c2.123-2.359,4.188-3.951,7.785-4.011
		c2.419,0,4.07,0.767,5.604,1.888c2.301,1.77,4.07,4.659,6.37,7.313c2.241,2.653,5.367,5.013,9.968,5.013
		c3.067,0,5.544-1.061,7.432-2.535c2.89-2.242,4.659-5.367,6.782-7.668c2.124-2.359,4.188-3.951,7.786-4.011
		c2.418,0,4.069,0.767,5.603,1.888c2.301,1.77,4.07,4.659,6.37,7.313c2.241,2.653,5.367,5.013,9.968,5.013
		c0.826,0,1.475-0.648,1.475-1.475C-69.606,230.004-70.255,229.354-71.081,229.354z"/>
	<path fill="#EB5454" d="M-91.864,341.322l9.024-9.023c0.59-0.59,0.59-1.533,0-2.064s-1.533-0.59-2.064,0l-6.605,6.605v-36.154
		c0-0.826-0.649-1.475-1.475-1.475c-0.826,0-1.475,0.648-1.475,1.475v35.977l-6.43-6.428c-0.589-0.59-1.533-0.59-2.063,0
		c-0.59,0.59-0.59,1.533,0,2.064l8.965,9.023C-93.397,341.912-92.454,341.912-91.864,341.322z"/>
	<path fill="#EB5454" d="M-137.221,299.15c-0.825,0-1.475,0.65-1.475,1.475v36.037l-6.429-6.428c-0.59-0.59-1.533-0.59-2.064,0
		c-0.53,0.59-0.59,1.533,0,2.064l9.024,9.023c0.59,0.59,1.533,0.59,2.064,0l9.024-9.023c0.589-0.59,0.589-1.533,0-2.064
		c-0.59-0.59-1.534-0.59-2.064,0l-6.606,6.605v-36.154C-135.746,299.801-136.395,299.15-137.221,299.15z"/>
	<path fill="#EB5454" d="M-181.338,299.15c-0.826,0-1.475,0.65-1.475,1.475v36.037l-6.43-6.428c-0.589-0.59-1.533-0.59-2.063,0
		c-0.531,0.59-0.59,1.533,0,2.064l9.023,9.023c0.59,0.59,1.534,0.59,2.064,0l9.024-9.023c0.59-0.59,0.59-1.533,0-2.064
		c-0.59-0.59-1.533-0.59-2.064,0l-6.605,6.605v-36.154C-179.863,299.801-180.513,299.15-181.338,299.15z"/>
</g>
<g>
	
		<line fill="none" stroke="#EB5454" stroke-width="4" stroke-linecap="round" stroke-linejoin="round" stroke-miterlimit="10" x1="125" y1="59.592" x2="125" y2="124.432"/>
	
		<circle fill="none" stroke="#EB5454" stroke-width="4" stroke-linecap="round" stroke-linejoin="round" stroke-miterlimit="10" cx="125" cy="135.807" r="12.513"/>
	<path fill="none" stroke="#EB5454" stroke-width="4" stroke-linecap="round" stroke-linejoin="round" stroke-miterlimit="10" d="
		M157.704,135.807c0,17.916-14.504,32.704-32.704,32.704s-32.704-14.504-32.704-32.704"/>
	<path fill="none" stroke="#EB5454" stroke-width="4" stroke-linecap="round" stroke-linejoin="round" stroke-miterlimit="10" d="
		M179.602,135.807c0,30.145-24.457,54.602-54.602,54.602s-54.602-24.457-54.602-54.602"/>
</g>
</svg>
