<?xml version="1.0" encoding="utf-8"?>
<!-- Generator: Adobe Illustrator 16.0.0, SVG Export Plug-In . SVG Version: 6.00 Build 0)  -->
<!DOCTYPE svg PUBLIC "-//W3C//DTD SVG 1.1//EN" "http://www.w3.org/Graphics/SVG/1.1/DTD/svg11.dtd">
<svg version="1.1" id="Layer_1" xmlns="http://www.w3.org/2000/svg" xmlns:xlink="http://www.w3.org/1999/xlink" x="0px" y="0px"
	 width="2441px" height="1124px" viewBox="0 0 2441 1124" enable-background="new 0 0 2441 1124" xml:space="preserve">
<title>Group 10</title>
<g id="All-Pages">
	<g id="Wholesale" transform="translate(82.000000, -3471.000000)">
		<g id="Group-9_1_" transform="translate(-0.000000, 3807.000000)">
			<g id="Group" transform="translate(0.000000, 79.000000)">
				<g id="Group-10" transform="translate(-82.000000, -415.000000)">
					<g id="bliski-wschod" transform="translate(619.000000, 0.000000)">
						<g id="Vector-1" transform="translate(718.000000, 198.000000)">
							<path id="Path" fill="#EAEAEA" d="M232.041,0c-6.189,15.928-14.68,36.634-18.747,38.935
								c-3.714,2.124-4.599,4.248-6.367,15.397c-1.769,11.503-1.062,13.981-0.354,16.104c1.415,4.425-2.122,11.503-7.251,14.159
								c-3.007,1.592-5.836,0.708-7.959,0.177c-1.414-0.354-2.299-0.708-2.652-0.354c-1.238,0.884-3.008,1.061-5.66,0.708
								c-6.721-1.062-12.911,3.893-13.972,10.972v0.354c-0.53,3.363-1.415,6.725-4.245,7.61c-2.83,0.885-4.952-1.593-6.721-3.54
								c-0.354-0.53-1.061-1.238-1.414-1.592c-6.898,2.478-14.326,7.61-12.381,18.405c2.122,11.15,0.885,17.168,0.177,20.707
								c-0.177,0.885-0.354,1.77-0.354,2.124c0.354,0.707,0.177,1.593-0.177,2.478c-0.708,1.416-1.592,2.831-20.693,6.018
								c-8.843,1.415-17.863,3.362-26.882,5.84c-8.136,2.123-13.619,3.717-16.271,4.424c-0.885,0.178-2.123,0.354-3.714,0.354
								c-9.728,0-30.066-4.425-39.264-6.549c-0.354-0.177-0.885-0.177-1.238-0.177c-13.087-1.592-28.12-2.654-35.902-1.592
								c0.53,0.707,1.062,1.415,1.592,1.946l14.68,15.396c0.53,0.531,1.238,1.062,1.769,1.594
								c10.258,7.786,24.053,17.166,32.365,20.528c10.435,4.248,10.966,16.459,11.319,23.892c0,1.947,0.177,4.425,0.53,5.133
								c2.83,5.663,3.007,12.035,0.708,17.697c-2.477,5.664-7.075,9.911-13.088,11.857l-9.021,2.832
								c-6.544,1.946-10.788,7.964-10.788,14.689v18.229H29.89l13.088,3.186c0.177,0,0.354,0,0.354,0l26.529-5.664
								c0.354-0.177,0.884-0.177,1.237-0.177h45.808l40.323-5.309c1.77-0.177,3.538,0.354,4.953,1.415
								c1.414,1.239,2.122,2.832,2.122,4.602v6.018c0,0.354,0.177,0.53,0.354,0.708c3.36,2.478,11.673,8.318,17.687,10.441
								c3.006,1.062,3.891,3.009,4.067,4.425c0.354,2.654-1.415,5.31-5.306,8.317c-0.354,0.177-0.354,0.531-0.354,0.708
								s0,0.531,0.354,0.708l19.985,14.689c0.177,0.177,0.708,0.177,0.884,0.177l37.495-16.989c0.354-0.178,0.53-0.531,0.53-0.886
								L232.041,0z"/>
						</g>
						<g id="Vector" transform="translate(688.000000, 74.000000)">
							<path id="Path_1_" fill="#EAEAEA" d="M241.963,159.638c2.829-2.301,12.905-26.193,21.037-48.316l-2.121-86.013L248.151,0
								c-5.48,3.717-17.501,11.681-23.866,12.566c-1.414,0.177-1.768,0.531-1.768,0.531c0,0.177-0.176,0.708-0.176,1.239
								c-0.177,1.947-0.354,5.132-4.243,7.434c-1.768,1.062-2.828,2.3-4.242,3.893c-2.652,3.009-5.48,6.195-13.436,7.788
								c-8.309,1.593-10.96,1.416-12.197,1.062c-7.602-0.354-23.688-1.593-26.87-6.018c-0.53-0.708-1.768-0.885-4.773-1.062
								c-3.535-0.177-8.309-0.354-14.143-3.186c-8.661-4.424-20.329,0-20.506,0.177l-0.354,0.177l-31.466,8.495
								c-0.707,6.194-1.591,18.406-0.177,23.893c2.121,8.495-4.242,12.389-6.718,13.097h-0.354c-0.177,0-18.031,2.832-21.566,15.043
								c-2.652,9.38-11.314,11.858-18.915,11.858c-3.006,0-5.834-0.354-7.955-0.884l-0.707-0.177
								C26.649,92.03,8.795,82.474,0.133,79.111v15.043l0.707,22.831c0,1.947,0,3.717-0.177,5.664
								c-0.884,13.273-0.884,23.185,0,26.193c1.414,4.602,1.061,7.08,0.177,8.495c0.354,4.778,1.768,23.185,0,30.441
								c-1.414,5.84,15.91,26.901,26.163,31.503c5.656,2.654,8.839,5.309,9.546,8.495c0.354,1.592,0,3.185-0.53,4.07l-6.364,15.221
								c-0.884,1.946-1.237,3.894-1.237,6.017v14.867c0,1.239,0.177,2.478,0.53,3.717c10.96-1.947,31.996,0.53,38.891,1.416
								c0.707,0,1.238,0.177,1.768,0.354c16.617,3.894,36.417,7.434,40.482,6.371c2.651-0.708,8.132-2.301,16.44-4.424
								c9.016-2.479,18.208-4.425,27.224-6.018c10.606-1.771,14.85-2.832,16.44-3.54c0-0.885,0.177-1.771,0.354-3.009
								c0.707-3.186,1.768-8.495-0.177-18.583c-2.122-11.504,3.889-20.53,16.617-24.777c2.651-0.885,4.772,1.416,6.54,3.363
								c0.354,0.354,0.707,0.884,1.061,1.239c0.178-0.531,0.354-1.417,0.531-2.478v-0.354c1.414-9.911,10.43-16.813,19.976-15.397
								c1.237,0.177,1.768,0.177,1.944,0.177c2.476-1.592,5.127-0.884,7.071-0.354c1.768,0.531,3.005,0.708,3.889,0.177
								c3.006-1.593,5.127-6.371,4.597-7.787c-1.061-3.363-1.769-6.726,0-18.583C234.716,167.425,235.776,163,241.963,159.638z"/>
						</g>
						<g id="Vector-3" transform="translate(0.000000, 281.000000)">
							<path id="Path_2_" fill="#EAEAEA" d="M579.696,303.4c-1.414,0-2.65-0.708-3.711-1.592l-0.529,1.237l-19.966-7.603
								c-0.176,0-0.353,0-0.353,0c-5.124,0.354-14.312,0.708-17.845-0.177c-1.944-0.53-9.895-0.53-19.966,0
								c-0.884,0-1.767-0.177-2.649-0.353c-4.594-1.769-10.071-3.891-12.368-4.598c-3.888-1.061-7.951-7.427-10.071-10.963
								c0-0.176-0.177-0.176-0.177-0.353l-10.247-21.57c-3.181-0.177-6.715-0.885-9.718-1.415c-1.06-0.176-2.12-0.707-3.004-1.414
								l-18.729-16.797c-0.353-0.354-0.706-0.707-1.06-1.238l-11.308-17.149c0,0,0-0.177-0.177-0.177l-22.262-21.394
								c-2.121-2.122-2.474-5.481-0.884-7.956l7.95-11.67c0.177-0.177,0.177-0.53,0.177-0.884l-3.887-9.548
								c0-0.177-0.177-0.177-0.177-0.177l-14.135-15.559l-0.177-0.177l-12.897-8.841c-0.53-0.354-1.237-0.884-1.591-1.591
								l-16.077-22.808c-0.354-0.354-0.53-0.885-0.707-1.238l-1.413-3.359l-28.27-8.31c-1.237-0.354-2.12-1.061-3.004-1.945
								c-7.598-8.486-13.428-13.084-15.018-13.084c-4.594,0-54.419-5.657-64.313-6.719c-1.236-0.177-2.474-0.706-3.356-1.414
								c-22.438-19.271-50.531-42.964-56.009-46.5c-7.244-4.597-40.813-30.764-47.527-35.892C154.067,0,153.891,0,153.537,0h-34.276
								c-2.65,0-24.205,3.536-37.104,5.834L65.196,8.31c-0.53,0-0.884,0.53-0.884,1.061v14.145c0,0.354,0.177,0.884,0.707,1.061
								l20.848,9.193c1.591,0.708,3.005,2.122,3.534,3.891c0.53,1.768,0.354,3.536-0.529,5.127l-7.599,13.084
								c-0.176,0.177-0.176,0.354-0.353,0.53c-0.53,0.707-4.947,7.072-7.598,12.022c-2.12,3.89-11.661,8.134-28.446,12.907
								c-0.529,0.177-0.706,0.53-0.706,1.061v1.237c0,1.945-0.884,3.713-2.474,4.951c-1.59,1.237-3.534,1.592-5.478,1.237
								l-25.619-6.188L0,114.747l10.248,0.531c1.943,0.177,3.533,1.061,4.594,2.475l62.369,85.574
								c0.706,1.062,1.236,2.299,1.236,3.713v20.863c0,0.354,0.177,0.53,0.354,0.708l32.687,25.106
								c0.529,0.53,1.06,1.061,1.413,1.591l24.735,40.135c0.53,1.062,0.884,2.122,0.884,3.359v46.677
								c0,0.354,0.177,0.531,0.354,0.708l44.524,36.952c0.706,0.531,1.236,1.237,1.59,1.945l13.427,25.813
								c0.177,0.177,0.177,0.354,0.354,0.707l9.718,25.106l33.039,52.865c0.177,0.354,0.707,0.53,1.061,0.354
								c7.244-2.121,11.66-3.536,13.957-4.243h0.178c0.176,0,0.353-0.177,0.529-0.177h0.177c0.177-0.884,0.354-3.183,0.354-7.779
								c0-0.177,0-0.177,0-0.354c0-0.354,0-0.708,0-1.237c0-0.354,0-0.885,0-1.415c0-0.177,0-0.177,0-0.354c0-0.53,0-1.062,0-1.591
								c0-0.177,0-0.177,0-0.354c0-0.531,0-1.062,0-1.592c0-0.177,0-0.53,0-0.707c0-0.531,0-0.884,0-1.415c0-0.354,0-0.707,0-1.061
								s0-0.707,0-1.061c0-0.531,0-1.237,0-1.769c0-0.177,0-0.53,0-0.707c0-0.884,0-1.944-0.177-2.829c0-0.177,0-0.177,0-0.354
								c-0.177-2.298,1.06-4.42,3.004-5.658c1.943-1.237,4.417-1.061,6.36,0.177l0.177,0.177l3.887,2.476l4.947,3.183
								c0.177,0.177,0.354,0.177,0.53,0.177h21.555c0.178,0,0.354,0,0.354,0l8.833,0.531l34.983,2.298
								c0.53,0,1.061,0.177,1.414,0.354l23.498,7.78c0.53,0.177,0.884,0,1.237-0.354l1.59-2.476l9.895-15.382l0.177-0.177
								l7.773-25.106c0.707-2.122,2.474-3.713,4.594-4.243l42.051-9.371c0.354,0,0.707-0.177,1.237-0.177l10.247-0.177l29.684-0.707
								c0,0,0,0,0.176,0c0.177,0,0.354,0,0.354-0.177l8.834-6.719l2.297-1.769c0.884-1.768,4.24-4.42,63.253-11.846
								c0.177,0,0.177,0,0.353-0.177l22.439-15.205c0.176-0.177,0.353-0.53,0.353-0.708v-4.243c0-1.768,0.884-3.536,2.297-4.773
								l2.828-2.299c0.353-0.177,0.353-0.53,0.353-0.884l-4.594-15.912c-0.706-2.652,0.354-5.481,2.65-7.072l10.071-6.188
								c0.353-0.177,0.529-0.53,0.353-0.884c-1.766-16.09-1.766-26.345,0.354-30.411C587.117,304.461,584.467,303.754,579.696,303.4
								z"/>
						</g>
						<g id="Vector-2_1_" transform="translate(209.000000, 0.000000)">
							<path id="Path_3_" fill="#EAEAEA" d="M568.293,420.668c-0.884-1.768-0.884-4.065-1.061-7.424
								c-0.354-6.893-0.707-16.261-7.952-19.089c-10.779-4.419-28.45-17.321-33.397-21.211c-0.883-0.706-1.767-1.413-2.474-2.12
								l-14.667-15.377c-3.711-3.89-5.654-9.015-5.654-14.318v-14.847c0-2.827,0.529-5.479,1.59-7.954l6.715-15.73
								c0-0.354-0.53-2.298-6.715-5.125c-11.486-5.126-31.631-27.75-29.156-37.648c1.59-6.186,0.354-23.508-0.178-29.694
								l-0.177-1.768l0.884-0.53c0-0.531,0-1.768-0.707-4.066c-1.59-4.949-0.883-19.619-0.354-28.103
								c0.177-1.592,0.177-3.358,0-5.126l-0.706-22.801v-18.913c0-6.362-4.064-12.195-10.249-14.493
								c-11.663-4.242-19.438-7.601-23.149-9.898c-2.827-1.767-7.068-6.187-12.369-11.665
								c-10.426-10.782-25.976-26.866-37.639-29.341c-17.494-3.712-44.707,0-44.884,0l-22.795,4.065
								c-3.182,0.531-6.185,2.121-8.482,4.419l-27.566,28.28l-1.768-1.768c-1.236,1.591-3.181,2.298-5.124,2.298l-15.373-0.707
								h-0.178l-42.587,7.777c-1.413,0.176-2.826,0-4.063-0.707l-50.008-27.043c-0.177,0-0.177-0.176-0.354-0.176
								c-6.537-4.243-14.313-9.015-16.08-9.544c-0.884-0.354-3.357-1.061-13.96-13.257c-1.237-1.414-1.767-3.358-1.413-5.125
								l4.594-25.275c1.943-7.777,6.893-25.982,12.017-29.164c2.65-1.591,3.534-6.54,4.063-9.898
								c0.178-1.237,0.354-2.298,0.707-3.182c-0.529-0.707-2.297-2.298-5.654-4.242c-0.177,0-0.177-0.177-0.354-0.177H0l3.711,9.191
								c0.53,1.414,1.767,2.651,3.357,3.182l10.426,4.065c1.237,0.53,2.297,1.237,3.357,1.944l3.004,2.651
								c3.004,2.651,4.241,6.717,3.534,10.605c-0.707,3.711-3.357,6.716-6.715,7.954c-0.707,3.182,5.478,16.084,8.481,22.271
								c1.768,3.712,3.535,7.247,4.595,9.898c1.768,4.596,2.298,8.661,1.591,12.019c-0.354,1.591,0.177,3.358,1.413,4.772
								l20.498,22.094c0.53,0.53,0.884,1.061,1.237,1.767c6.715,10.782,17.671,30.048,16.787,36.587
								c-0.177,0.708-0.177,1.768,2.297,2.829c5.302,2.121,8.129,7.423,6.716,12.726c-1.591,6.54-3.182,8.13-4.418,9.015
								c-0.53,0.353-1.943,2.828-3.888,9.014c-0.53,1.414-0.354,3.005,0.354,4.418l14.137,26.336c0,0.177,0.176,0.177,0.176,0.354
								c1.768,3.004,17.848,28.987,22.619,37.825c2.297,4.242,9.365,9.368,19.615,14.14c3.887,1.767,6.36,5.833,6.36,10.074v3.889
								c0,0.707,0.178,1.414,0.354,2.121l10.603,27.22c0.353,0.884,0.706,1.591,1.413,2.121
								c10.426,9.897,18.024,16.262,22.266,19.089l-2.297-10.605c-0.354-1.767,0-3.711,1.236-5.302
								c1.237-1.414,3.004-2.298,4.771-2.298h8.658c2.828,0,5.125,1.768,6.008,4.419l3.357,11.665
								c0.177,0.354,0.531,0.707,0.884,0.707h15.021c2.12,0,4.064,1.061,5.301,3.005l18.555,29.871c0,0.177,0.177,0.177,0.177,0.354
								l17.141,32.169c0.177,0.176,0.354,0.354,0.53,0.354c7.068,2.651,12.723,4.241,14.49,4.241c1.236,0,4.947,0,19.261,16.085
								c0,0.177,0.177,0.177,0.354,0.177l36.225,16.262c0.177,0,0.177,0,0.354,0l33.221,1.943c0.177,0,0.177,0,0.354,0l32.867-9.545
								c0.53-0.176,1.061-0.176,1.768-0.176h17.141c3.356,0,6.185,2.827,6.185,6.186v23.508c0,0.177,0.177,0.531,0.354,0.708
								l11.133,11.135c0.177,0.177,0.177,0.177,0.354,0.177l30.394,9.544h0.177l58.667,5.833h12.369c0.53,0,1.061,0,1.414,0.177
								l5.124,1.237v-16.968c0-9.191,5.831-17.145,14.491-19.797l9.011-2.827c4.418-1.414,7.952-4.596,9.719-8.837
								C570.59,429.682,570.413,424.909,568.293,420.668z"/>
						</g>
						<g id="Vector-5" transform="translate(241.000000, 688.000000)">
							<path id="Path_4_" fill="#EAEAEA" d="M279.424,71.879c0.353-0.178,0.706-0.71,0.529-1.243
								c-0.884-4.082-2.296-11.713-2.296-17.57c0-1.419-2.297-9.583-31.793-52.711C245.688,0,245.334,0,245.158,0
								c-0.178,0-0.53,0-0.884,0.178l-8.831,6.744c-1.061,0.887-2.297,1.242-3.709,1.242l-39.918,0.888h-0.177l-41.86,9.406
								c-0.354,0-0.707,0.354-0.707,0.71l-7.771,25.201c-0.177,0.533-0.354,1.065-0.707,1.598l-11.304,17.925
								c-1.59,2.485-4.593,3.55-7.419,2.662l-23.491-7.809h-0.177l-43.803-3.018H32.853c-1.236,0-2.296-0.354-3.356-0.887
								l-8.831-5.502c-0.177-0.178-0.353-0.178-0.529-0.178s-0.354,0-0.53,0.178s-0.529,0.354-0.529,0.888
								c1.236,27.509,0,28.219-1.767,29.105c-0.53,0.179-1.943,0.888-16.603,5.325C0.177,84.834,0,85.189,0,85.722v36.383
								c0,0.355,0.177,0.533,0.354,0.71l7.948,8.696c1.06,1.242,1.589,2.663,1.589,4.26v18.28c0,0.355,0.177,0.71,0.53,0.888
								l9.538,5.856c1.59,1.064,2.649,2.662,3.002,4.614l4.239,30.704c0,0.532,0.53,0.887,1.06,0.887h27.907
								c0.354,0,0.53-0.178,0.707-0.354l22.608-20.765c1.236-1.065,2.649-1.775,4.238-1.775h37.445c0.354,0,0.529-0.178,0.706-0.354
								l20.842-20.942c1.767-1.774,4.593-2.308,6.889-1.42l7.419,3.018c0.353,0.177,0.883,0.177,1.06-0.179l26.847-23.249
								c1.236-1.064,2.649-1.597,4.239-1.597h24.904c0.177,0,0.53,0,0.707-0.179l15.543-11.891c0.176-0.178,0.529-0.354,0.706-0.532
								l12.717-7.276c0.884-0.533,2.12-0.888,3.18-0.888h9.185c0.53,0,1.06-0.532,1.06-1.064V86.787c0-2.485,1.413-4.615,3.533-5.68
								L279.424,71.879z"/>
						</g>
						<g id="Vector-4" transform="translate(486.000000, 467.000000)">
							<path id="Path_5_" fill="#EAEAEA" d="M114.749,34.908l-2.656-2.651c-1.416-1.415-1.947-3.183-1.771-4.951l2.479-24.222
								c0-0.354-0.177-0.707-0.532-0.884l-5.135-2.122c-0.354-0.177-0.709,0-0.886,0s-0.354,0.354-0.53,0.708l-1.949,12.729
								c-0.177,1.591-1.063,3.006-2.479,4.066l-9.209,6.719l-0.177,0.177L81.28,38.798L60.739,69.385
								c-1.239,1.945-3.364,3.006-5.667,2.829L29.75,70.446C18.416,71.86,5.489,73.981,3.011,75.043
								C2.302,75.396,1.239,75.75,0,75.75l9.208,19.271c2.833,4.95,5.667,8.31,6.906,8.486c3.011,0.884,10.094,3.536,12.927,4.773
								c0.178,0,0.178,0,0.354,0c6.552-0.354,18.063-0.707,21.427,0.177c1.948,0.531,8.323,0.531,16.292,0
								c0.886,0,1.771,0,2.656,0.354L86.238,115V92.723c0-3.359,2.834-6.188,6.199-6.188h0.354c0.354,0,0.708-0.177,0.708-0.354
								c0-0.178,0.178-0.354,0.178-0.885l-1.771-5.304c-0.708-1.944-0.354-4.066,0.886-5.657c1.24-1.592,3.01-2.652,5.135-2.652
								h8.323c0.354,0,0.709-0.177,0.886-0.53l1.416-3.713c0.178-0.354,0-0.707-0.177-0.884c-0.177-0.178-0.354-0.354-0.708-0.354
								h-4.25c-3.364,0-6.197-2.828-6.197-6.188v-8.663c0-3.359,2.833-6.188,6.197-6.188h10.625c0.531,0,0.886-0.354,0.886-0.884
								v-8.84C115.104,35.439,114.927,35.085,114.749,34.908z"/>
						</g>
						<g id="Vector-2" transform="translate(484.000000, 493.000000)">
							<path id="Shape" fill="#E2E2E2" d="M91.101,272.763c-2.644,1.945-6.346-0.354-5.816-3.714l0.528-2.829
								c0.177-0.531-0.177-0.885-0.353-0.885c-0.176-0.178-0.528-0.354-0.881-0.354l-40.191,8.843
								c-2.115,0.53-4.23-0.177-5.816-1.592c-1.058-0.885-1.587-2.299-1.939-3.537c-1.058-4.776-2.115-11.319-2.115-16.448
								c0-1.415-2.292-9.728-32.61-53.589c-0.705-1.063-1.234-1.77-1.41-2.123c-0.529-0.885-0.705-1.945-0.177-2.83
								c0.705-1.592,1.938-4.421,63.282-12.026c0.177,0,0.354,0,0.354-0.177l22.21-15.21c0.353-0.178,0.529-0.53,0.529-0.885v-3.184
								c0-1.945,0.882-3.714,2.292-4.952l2.644-2.299c0.353-0.354,0.528-0.708,0.353-1.062l-4.406-15.741
								c-0.706-2.652,0.352-5.659,2.82-7.251l9.871-6.189c0.352-0.178,0.528-0.708,0.528-1.062
								c-1.763-16.095-1.763-26.353,0.353-30.42c-1.058-0.354-3.35-1.062-8.284-1.415c-3.35-0.178-5.994-3.007-5.994-6.367V63.004
								c0-3.537,2.82-5.836,6.347-5.836c0.528,0,0.704-0.354,0.881-0.531c0.177-0.177,0.353-0.53,0.177-0.884l-1.587-4.952
								c-0.705-1.945-0.353-4.068,0.881-5.66c1.234-1.591,3.173-2.652,5.112-2.652h7.933c0.529,0,0.881-0.354,1.058-0.708
								l1.233-3.36c0.177-0.53,0-0.884-0.176-1.061s-0.353-0.531-0.882-0.531h-3.701c-3.526,0-6.347-2.829-6.347-6.366v-8.313
								c0-3.538,2.82-6.367,6.347-6.367h10.224c0.528,0,1.058-0.531,1.058-1.062V3.225c0-3.714,5.112-4.422,6.346-1.062
								l9.519,29.536c0,0.177,0.177,0.177,0.177,0.354l12.516,16.094c0.177,0.177,0.353,0.354,0.705,0.354l39.309,8.135
								c1.94,0.354,3.526,1.592,4.408,3.36l12.339,24.761c0.176,0.178,0.353,0.354,0.528,0.531l10.577,4.067
								c1.586,0.708,2.996,1.946,3.701,3.537c0.705,1.593,0.529,3.538-0.176,5.129c-5.465,11.497-18.686,38.91-25.384,45.454
								c-6.875,6.897-23.974,28.652-27.323,33.073c-0.176,0.177-0.176,0.53-0.176,0.884l3.702,19.455
								c0.177,1.238,0.177,2.653-0.353,3.891c-1.058,2.477-3.35,3.892-5.817,3.892h-14.983c-1.41,1.061-4.055,8.136-5.993,23.7
								c-0.353,3.536-3.702,5.835-7.051,5.482l-24.854-3.007c-0.353,0-0.706,0.177-0.882,0.177
								c-0.177,0.177-0.353,0.354-0.353,0.707l-1.587,28.829c-0.176,1.945-1.058,3.714-2.644,4.775L91.101,272.763z M6.665,196.005
								c29.791,43.508,33.316,53.059,33.316,56.419c0,4.952,1.233,11.85,2.115,15.563c0,0.354,0.353,0.531,0.528,0.708
								c0.177,0.176,0.353,0.176,0.882,0.176l40.19-8.843c2.115-0.53,4.23,0.177,5.817,1.592c1.233,1.238,1.939,3.007,1.939,4.775
								l7.051-5.129c0.176-0.177,0.353-0.53,0.528-0.884l1.586-28.829c0.177-1.769,0.882-3.36,2.292-4.598
								c1.41-1.062,3.173-1.593,4.76-1.416l24.854,3.007c0.529,0,1.058-0.354,1.234-0.884c3.525-28.298,8.813-28.298,11.104-28.298
								h15.16c0.353,0,0.705-0.177,0.882-0.354c0.176-0.177,0.352-0.53,0.176-0.884l-4.055-19.632
								c-0.352-1.769,0.177-3.714,1.234-5.129c4.759-6.19,20.801-26.529,27.676-33.427c6.169-6.19,20.271-35.196,24.325-44.039
								c0.177-0.354,0.177-0.707,0-0.884c0-0.178-0.177-0.53-0.705-0.53l-10.577-4.068c-1.586-0.53-2.82-1.592-3.524-3.184
								l-12.34-24.761c-0.176-0.354-0.353-0.53-0.705-0.53l-39.309-8.136c-1.411-0.354-2.821-1.062-3.702-2.3l-12.34-16.094
								c-0.528-0.531-0.881-1.238-1.057-1.946l-5.465-17.509c-0.529,2.83-3.174,4.952-6.17,4.952h-10.224
								c-0.529,0-1.058,0.53-1.058,1.061v8.313c0,0.531,0.528,1.062,1.058,1.062h3.701c2.116,0,4.055,1.062,5.288,2.653
								c1.234,1.769,1.41,3.891,0.706,5.836l-1.234,3.36c-0.882,2.477-3.35,4.245-5.993,4.245h-7.933
								c-0.529,0-0.705,0.354-0.882,0.53c-0.176,0.177-0.352,0.531-0.176,0.885l1.586,4.952c0.706,1.945,0.353,4.067-0.881,5.659
								s-3.173,2.653-5.111,2.653c-0.529,0-1.059,0.53-1.059,1.061v22.285c0,0.53,0.353,1.061,1.059,1.061
								c10.224,0.53,12.515,2.653,13.396,4.422c0.353,0.885,0.881,2.476-0.529,4.422c-1.233,1.769-1.586,11.143,0.177,27.414
								c0.353,2.476-0.881,4.774-2.997,6.189l-9.871,6.19c-0.353,0.177-0.528,0.707-0.528,1.237l4.406,15.741
								c0.705,2.476-0.176,4.952-2.115,6.722l-2.645,2.299c-0.176,0.177-0.353,0.53-0.353,0.885v3.183
								c0,2.122-1.058,4.067-2.82,5.306l-22.21,15.388c-0.882,0.53-1.763,0.884-2.821,1.061
								C40.157,189.991,14.421,193.882,6.665,196.005z"/>
						</g>
					</g>
					<g id="Group-91" transform="translate(0.000000, 95.000000)" opacity="0.7">
						<g id="Group-3" transform="translate(1763.000000, 920.000000)">
							<g id="Clip-2">
							</g>
							<defs>
								<filter id="Adobe_OpacityMaskFilter" filterUnits="userSpaceOnUse" x="0" y="0" width="535" height="109">
									<feColorMatrix  type="matrix" values="1 0 0 0 0  0 1 0 0 0  0 0 1 0 0  0 0 0 1 0"/>
								</filter>
							</defs>
							<mask maskUnits="userSpaceOnUse" x="0" y="0" width="535" height="109" id="mask-2">
								<g filter="url(#Adobe_OpacityMaskFilter)">
									<path id="path-1" fill="#FFFFFF" d="M0.209,2.182c34.91,59.446,99.114,83.903,163.561,96.733l0,0
										c30.029,5.974,60.357,10.075,90.851,10.085l0,0h0.193c11.327,0,22.664-0.572,34.03-1.823l0,0
										c40.535-4.471,79.852-16.34,117.487-31.817l0,0c44.179-18.183,86.173-41.166,127.954-64.236l0,0
										c1.634-0.893,0.174-3.413-1.459-2.512l0,0c-69.849,38.558-141.805,78.152-221.173,92.34l0,0
										c-43.126,7.709-86.299,5.935-129.317-1.542l0,0c-32.852-5.722-65.925-13.14-96.524-26.765l0,0
										C51.23,57.234,22.042,33.621,2.722,0.698l0,0C2.432,0.204,1.997,0,1.563,0l0,0C0.566,0-0.448,1.057,0.209,2.182"/>
								</g>
							</mask>
							<path id="Fill-1" mask="url(#mask-2)" fill="#C9C9C9" d="M0.209,2.182c34.91,59.446,99.114,83.903,163.561,96.733l0,0
								c30.029,5.974,60.357,10.075,90.851,10.085l0,0h0.193c11.327,0,22.664-0.572,34.03-1.823l0,0
								c40.535-4.471,79.852-16.34,117.487-31.817l0,0c44.179-18.183,86.173-41.166,127.954-64.236l0,0
								c1.634-0.893,0.174-3.413-1.459-2.512l0,0c-69.849,38.558-141.805,78.152-221.173,92.34l0,0
								c-43.126,7.709-86.299,5.935-129.317-1.542l0,0c-32.852-5.722-65.925-13.14-96.524-26.765l0,0
								C51.23,57.234,22.042,33.621,2.722,0.698l0,0C2.432,0.204,1.997,0,1.563,0l0,0C0.566,0-0.448,1.057,0.209,2.182"/>
						</g>
						<g id="Group-6" transform="translate(1792.000000, 937.000000)">
							<g id="Clip-5">
							</g>
							<defs>
								<filter id="Adobe_OpacityMaskFilter_1_" filterUnits="userSpaceOnUse" x="0" y="0" width="488" height="51">
									<feColorMatrix  type="matrix" values="1 0 0 0 0  0 1 0 0 0  0 0 1 0 0  0 0 0 1 0"/>
								</filter>
							</defs>
							<mask maskUnits="userSpaceOnUse" x="0" y="0" width="488" height="51" id="mask-6">
								<g filter="url(#Adobe_OpacityMaskFilter_1_)">
									<path id="path-5" fill="#FFFFFF" d="M486.219,0.089c-82.557,28.526-168.945,45.101-256.176,47.633l0,0
										C152.77,49.948,71.287,41.159,2.199,3.291l0,0c-1.654-0.896-3.125,1.655-1.48,2.563l0,0
										C68.878,43.199,149.16,52.569,225.467,50.796l0,0c89.011-2.079,177.276-18.752,261.536-47.859l0,0
										C488.59,2.385,488.125,0,486.713,0l0,0C486.558,0,486.393,0.029,486.219,0.089"/>
								</g>
							</mask>
							<path id="Fill-4" mask="url(#mask-6)" fill="#C9C9C9" d="M486.219,0.089c-82.557,28.526-168.945,45.101-256.176,47.633l0,0
								C152.77,49.948,71.287,41.159,2.199,3.291l0,0c-1.654-0.896-3.125,1.655-1.48,2.563l0,0
								C68.878,43.199,149.16,52.569,225.467,50.796l0,0c89.011-2.079,177.276-18.752,261.536-47.859l0,0
								C488.59,2.385,488.125,0,486.713,0l0,0C486.558,0,486.393,0.029,486.219,0.089"/>
						</g>
						<g id="Group-9" transform="translate(1300.000000, 601.000000)">
							<g id="Clip-8">
							</g>
							<defs>
								<filter id="Adobe_OpacityMaskFilter_2_" filterUnits="userSpaceOnUse" x="0" y="0" width="369" height="52">
									<feColorMatrix  type="matrix" values="1 0 0 0 0  0 1 0 0 0  0 0 1 0 0  0 0 0 1 0"/>
								</filter>
							</defs>
							<mask maskUnits="userSpaceOnUse" x="0" y="0" width="369" height="52" id="mask-10">
								<g filter="url(#Adobe_OpacityMaskFilter_2_)">
									<path id="path-9" fill="#FFFFFF" d="M218.135,0.915c-72.94,6.44-142.496,38.933-216.753,29.96l0,0
										c-1.857-0.222-1.828,2.666,0,2.888l0,0c68.144,8.251,132.562-18.302,199.001-27.881l0,0
										c56.68-8.154,126.041,0.279,166.169,45.653l0,0c1.248,1.396,3.299-0.665,2.07-2.051l0,0
										C337.221,13.988,285.997,0,238.895,0l0,0C231.853,0,224.916,0.317,218.135,0.915"/>
								</g>
							</mask>
							<path id="Fill-7" mask="url(#mask-10)" fill="#C9C9C9" d="M218.135,0.915c-72.94,6.44-142.496,38.933-216.753,29.96l0,0
								c-1.857-0.222-1.828,2.666,0,2.888l0,0c68.144,8.251,132.562-18.302,199.001-27.881l0,0
								c56.68-8.154,126.041,0.279,166.169,45.653l0,0c1.248,1.396,3.299-0.665,2.07-2.051l0,0C337.221,13.988,285.997,0,238.895,0
								l0,0C231.853,0,224.916,0.317,218.135,0.915"/>
						</g>
						<g id="Group-12">
							<g id="Clip-11">
							</g>
							<defs>
								<filter id="Adobe_OpacityMaskFilter_3_" filterUnits="userSpaceOnUse" x="0" y="0" width="662" height="150">
									<feColorMatrix  type="matrix" values="1 0 0 0 0  0 1 0 0 0  0 0 1 0 0  0 0 0 1 0"/>
								</filter>
							</defs>
							<mask maskUnits="userSpaceOnUse" x="0" y="0" width="662" height="150" id="mask-14">
								<g filter="url(#Adobe_OpacityMaskFilter_3_)">
									<path id="path-13" fill="#FFFFFF" d="M2.304,0C1.607,0.029,0.872,0.491,0.746,1.367l0,0C0.281,5.092,0.039,8.827,0,12.561
										l0,0v2.118c0.358,34.228,17.903,68.253,43.048,91.018l0,0c14.979,13.552,34.14,24.034,54.405,26.546l0,0
										c25.474,3.167,51.655,1.261,77.062-1.54l0,0c53.408-5.872,106.361-17.277,160.331-11.55l0,0
										c54.076,5.727,105.857,24.728,159.991,29.858l0,0c57.659,5.467,112.307-12.677,166.169-30.744l0,0
										c1.753-0.597,0.995-3.378-0.774-2.782l0,0c-45.807,15.362-92.398,31.494-141.314,31.716l0,0
										c-51.035,0.241-100.502-16.748-150.25-25.912l0,0c-48.015-8.846-94.48-6.795-142.65-0.25l0,0
										c-26.114,3.552-52.217,7.575-78.563,9.134l0,0c-26.045,1.53-53.786,2.339-77.604-9.654l0,0
										C27.498,99.218-2.275,48.752,3.669,1.367l0,0C3.776,0.481,3.166,0.029,2.469,0l0,0H2.304z"/>
								</g>
							</mask>
							<path id="Fill-10" mask="url(#mask-14)" fill="#C9C9C9" d="M2.304,0C1.607,0.029,0.872,0.491,0.746,1.367l0,0
								C0.281,5.092,0.039,8.827,0,12.561l0,0v2.118c0.358,34.228,17.903,68.253,43.048,91.018l0,0
								c14.979,13.552,34.14,24.034,54.405,26.546l0,0c25.474,3.167,51.655,1.261,77.062-1.54l0,0
								c53.408-5.872,106.361-17.277,160.331-11.55l0,0c54.076,5.727,105.857,24.728,159.991,29.858l0,0
								c57.659,5.467,112.307-12.677,166.169-30.744l0,0c1.753-0.597,0.995-3.378-0.774-2.782l0,0
								c-45.807,15.362-92.398,31.494-141.314,31.716l0,0c-51.035,0.241-100.502-16.748-150.25-25.912l0,0
								c-48.015-8.846-94.48-6.795-142.65-0.25l0,0c-26.114,3.552-52.217,7.575-78.563,9.134l0,0
								c-26.045,1.53-53.786,2.339-77.604-9.654l0,0C27.498,99.218-2.275,48.752,3.669,1.367l0,0C3.776,0.481,3.166,0.029,2.469,0
								l0,0H2.304z"/>
						</g>
						<g id="Group-15" transform="translate(470.000000, 107.000000)">
							<g id="Clip-14">
							</g>
							<defs>
								<filter id="Adobe_OpacityMaskFilter_4_" filterUnits="userSpaceOnUse" x="0" y="0" width="105" height="38">
									<feColorMatrix  type="matrix" values="1 0 0 0 0  0 1 0 0 0  0 0 1 0 0  0 0 0 1 0"/>
								</filter>
							</defs>
							<mask maskUnits="userSpaceOnUse" x="0" y="0" width="105" height="38" id="mask-18">
								<g filter="url(#Adobe_OpacityMaskFilter_4_)">
									<path id="path-17" fill="#FFFFFF" d="M102.768,0.153C70.236,15.607,34.486,22.175,0.979,35.128l0,0
										c-1.726,0.668-0.985,3.437,0.78,2.768l0,0c33.75-13.049,69.715-19.702,102.5-35.281l0,0C105.713,1.928,104.806,0,103.44,0
										l0,0C103.226,0,102.992,0.048,102.768,0.153"/>
								</g>
							</mask>
							<path id="Fill-13" mask="url(#mask-18)" fill="#C9C9C9" d="M102.768,0.153C70.236,15.607,34.486,22.175,0.979,35.128l0,0
								c-1.726,0.668-0.985,3.437,0.78,2.768l0,0c33.75-13.049,69.715-19.702,102.5-35.281l0,0C105.713,1.928,104.806,0,103.44,0
								l0,0C103.226,0,102.992,0.048,102.768,0.153"/>
						</g>
						<g id="Group-18" transform="translate(455.000000, 40.000000)">
							<g id="Clip-17">
							</g>
							<defs>
								<filter id="Adobe_OpacityMaskFilter_5_" filterUnits="userSpaceOnUse" x="0" y="0" width="13" height="109">
									<feColorMatrix  type="matrix" values="1 0 0 0 0  0 1 0 0 0  0 0 1 0 0  0 0 0 1 0"/>
								</filter>
							</defs>
							<mask maskUnits="userSpaceOnUse" x="0" y="0" width="13" height="109" id="mask-22">
								<g filter="url(#Adobe_OpacityMaskFilter_5_)">
									<path id="path-21" fill="#FFFFFF" d="M0.098,1.758c12.73,33.491,7.823,70.904,9.903,105.844l0,0
										c0.12,1.854,3.096,1.874,2.997,0l0,0C10.897,72.42,15.785,34.728,2.974,0.985l0,0C2.715,0.299,2.107,0,1.511,0l0,0
										C0.595,0-0.301,0.695,0.098,1.758"/>
								</g>
							</mask>
							<path id="Fill-16" mask="url(#mask-22)" fill="#C9C9C9" d="M0.098,1.758c12.73,33.491,7.823,70.904,9.903,105.844l0,0
								c0.12,1.854,3.096,1.874,2.997,0l0,0C10.897,72.42,15.785,34.728,2.974,0.985l0,0C2.715,0.299,2.107,0,1.511,0l0,0
								C0.595,0-0.301,0.695,0.098,1.758"/>
						</g>
						<g id="Group-21" transform="translate(204.000000, 123.000000)">
							<g id="Clip-20">
							</g>
							<defs>
								<filter id="Adobe_OpacityMaskFilter_6_" filterUnits="userSpaceOnUse" x="0" y="0" width="293" height="103">
									<feColorMatrix  type="matrix" values="1 0 0 0 0  0 1 0 0 0  0 0 1 0 0  0 0 0 1 0"/>
								</filter>
							</defs>
							<mask maskUnits="userSpaceOnUse" x="0" y="0" width="293" height="103" id="mask-26">
								<g filter="url(#Adobe_OpacityMaskFilter_6_)">
									<path id="path-25" fill="#FFFFFF" d="M1.382,2.44c-1.838,0.215-1.847,3.143,0,2.928l0,0
										c56.677-6.471,113.838,0.41,168.802,15.06l0,0c26.592,7.095,53.929,15.225,79.051,26.654l0,0
										c21.427,9.74,31.69,34.911,41.094,55.162l0,0c0.793,1.708,3.298,0.225,2.524-1.474l0,0
										c-8.474-18.212-17.422-39.625-34.128-51.805l0,0c-10.244-7.476-24.136-10.921-35.918-15.147l0,0
										C208.491,28.693,194,24.038,179.374,19.91l0,0C135.65,7.593,90.407,0,45.048,0l0,0C30.49,0,15.921,0.781,1.382,2.44"/>
								</g>
							</mask>
							<path id="Fill-19" mask="url(#mask-26)" fill="#C9C9C9" d="M1.382,2.44c-1.838,0.215-1.847,3.143,0,2.928l0,0
								c56.677-6.471,113.838,0.41,168.802,15.06l0,0c26.592,7.095,53.929,15.225,79.051,26.654l0,0
								c21.427,9.74,31.69,34.911,41.094,55.162l0,0c0.793,1.708,3.298,0.225,2.524-1.474l0,0
								c-8.474-18.212-17.422-39.625-34.128-51.805l0,0c-10.244-7.476-24.136-10.921-35.918-15.147l0,0
								C208.491,28.693,194,24.038,179.374,19.91l0,0C135.65,7.593,90.407,0,45.048,0l0,0C30.49,0,15.921,0.781,1.382,2.44"/>
						</g>
						<g id="Group-24" transform="translate(522.000000, 229.000000)">
							<g id="Clip-23">
							</g>
							<defs>
								<filter id="Adobe_OpacityMaskFilter_7_" filterUnits="userSpaceOnUse" x="0" y="0" width="63" height="42">
									<feColorMatrix  type="matrix" values="1 0 0 0 0  0 1 0 0 0  0 0 1 0 0  0 0 0 1 0"/>
								</filter>
							</defs>
							<mask maskUnits="userSpaceOnUse" x="0" y="0" width="63" height="42" id="mask-30">
								<g filter="url(#Adobe_OpacityMaskFilter_7_)">
									<path id="path-29" fill="#FFFFFF" d="M0.674,2.759c20.067,13.002,40.124,26.005,60.181,38.998l0,0
										c1.58,1.033,3.042-1.492,1.473-2.516l0,0C42.271,26.239,22.223,13.236,2.156,0.244l0,0C1.894,0.078,1.64,0,1.405,0l0,0
										C0.167,0-0.642,1.91,0.674,2.759"/>
								</g>
							</mask>
							<path id="Fill-22" mask="url(#mask-30)" fill="#C9C9C9" d="M0.674,2.759c20.067,13.002,40.124,26.005,60.181,38.998l0,0
								c1.58,1.033,3.042-1.492,1.473-2.516l0,0C42.271,26.239,22.223,13.236,2.156,0.244l0,0C1.894,0.078,1.64,0,1.405,0l0,0
								C0.167,0-0.642,1.91,0.674,2.759"/>
						</g>
						<g id="Group-27" transform="translate(515.000000, 230.000000)">
							<g id="Clip-26">
							</g>
							<defs>
								<filter id="Adobe_OpacityMaskFilter_8_" filterUnits="userSpaceOnUse" x="0" y="0" width="71" height="63">
									<feColorMatrix  type="matrix" values="1 0 0 0 0  0 1 0 0 0  0 0 1 0 0  0 0 0 1 0"/>
								</filter>
							</defs>
							<mask maskUnits="userSpaceOnUse" x="0" y="0" width="71" height="63" id="mask-34">
								<g filter="url(#Adobe_OpacityMaskFilter_8_)">
									<path id="path-33" fill="#FFFFFF" d="M0.105,1.713c12.08,29.96,41.432,45.658,68.685,61.08l0,0
										c1.646,0.933,3.133-1.541,1.508-2.464l0,0C43.822,45.363,14.697,30.094,2.963,0.951l0,0C2.687,0.285,2.076,0,1.484,0l0,0
										C0.568,0-0.309,0.685,0.105,1.713"/>
								</g>
							</mask>
							<path id="Fill-25" mask="url(#mask-34)" fill="#C9C9C9" d="M0.105,1.713c12.08,29.96,41.432,45.658,68.685,61.08l0,0
								c1.646,0.933,3.133-1.541,1.508-2.464l0,0C43.822,45.363,14.697,30.094,2.963,0.951l0,0C2.687,0.285,2.076,0,1.484,0l0,0
								C0.568,0-0.309,0.685,0.105,1.713"/>
						</g>
						<g id="Group-30" transform="translate(582.000000, 291.000000)">
							<g id="Clip-29">
							</g>
							<defs>
								<filter id="Adobe_OpacityMaskFilter_9_" filterUnits="userSpaceOnUse" x="0" y="0" width="125" height="168">
									<feColorMatrix  type="matrix" values="1 0 0 0 0  0 1 0 0 0  0 0 1 0 0  0 0 0 1 0"/>
								</filter>
							</defs>
							<mask maskUnits="userSpaceOnUse" x="0" y="0" width="125" height="168" id="mask-38">
								<g filter="url(#Adobe_OpacityMaskFilter_9_)">
									<path id="path-37" fill="#FFFFFF" d="M0.285,2.06c41.901,54.202,80.023,111.128,121.896,165.331l0,0
										c1.13,1.463,3.672,0.019,2.532-1.453l0,0C82.821,111.734,44.699,54.809,2.827,0.606l0,0C2.486,0.173,2.028,0,1.58,0l0,0
										C0.509,0-0.514,1.021,0.285,2.06"/>
								</g>
							</mask>
							<path id="Fill-28" mask="url(#mask-38)" fill="#C9C9C9" d="M0.285,2.06c41.901,54.202,80.023,111.128,121.896,165.331l0,0
								c1.13,1.463,3.672,0.019,2.532-1.453l0,0C82.821,111.734,44.699,54.809,2.827,0.606l0,0C2.486,0.173,2.028,0,1.58,0l0,0
								C0.509,0-0.514,1.021,0.285,2.06"/>
						</g>
						<g id="Group-33" transform="translate(720.000000, 454.000000)">
							<g id="Clip-32">
							</g>
							<defs>
								<filter id="Adobe_OpacityMaskFilter_10_" filterUnits="userSpaceOnUse" x="0" y="0" width="52" height="65">
									<feColorMatrix  type="matrix" values="1 0 0 0 0  0 1 0 0 0  0 0 1 0 0  0 0 0 1 0"/>
								</filter>
							</defs>
							<mask maskUnits="userSpaceOnUse" x="0" y="0" width="52" height="65" id="mask-42">
								<g filter="url(#Adobe_OpacityMaskFilter_10_)">
									<path id="path-41" fill="#FFFFFF" d="M0.233,2.106C14.784,24.362,31.297,45.26,49.57,64.558l0,0
										c1.273,1.35,3.293-0.698,2.029-2.029l0,0C33.488,43.402,17.129,22.706,2.723,0.66l0,0C2.416,0.191,1.976,0,1.535,0l0,0
										C0.53,0-0.465,1.024,0.233,2.106"/>
								</g>
							</mask>
							<path id="Fill-31" mask="url(#mask-42)" fill="#C9C9C9" d="M0.233,2.106C14.784,24.362,31.297,45.26,49.57,64.558l0,0
								c1.273,1.35,3.293-0.698,2.029-2.029l0,0C33.488,43.402,17.129,22.706,2.723,0.66l0,0C2.416,0.191,1.976,0,1.535,0l0,0
								C0.53,0-0.465,1.024,0.233,2.106"/>
						</g>
						<g id="Group-36" transform="translate(709.000000, 456.000000)">
							<g id="Clip-35">
							</g>
							<defs>
								<filter id="Adobe_OpacityMaskFilter_11_" filterUnits="userSpaceOnUse" x="0" y="0" width="157" height="333.001">
									<feColorMatrix  type="matrix" values="1 0 0 0 0  0 1 0 0 0  0 0 1 0 0  0 0 0 1 0"/>
								</filter>
							</defs>
							<mask maskUnits="userSpaceOnUse" x="0" y="0" width="157" height="333.001" id="mask-46">
								<g filter="url(#Adobe_OpacityMaskFilter_11_)">
									<path id="path-45" fill="#FFFFFF" d="M0.036,1.816C12.747,63.71,51.094,117.95,80.907,172.365l0,0
										c28.07,51.24,52.116,105.15,73.206,159.663l0,0c0.664,1.719,3.457,0.972,2.782-0.787l0,0
										c-20.348-52.6-43.517-104.479-70.153-154.165l0,0C56.447,120.543,15.964,65.04,2.81,1.039l0,0C2.665,0.311,2.135,0,1.577,0
										l0,0C0.729,0-0.195,0.719,0.036,1.816"/>
								</g>
							</mask>
							<path id="Fill-34" mask="url(#mask-46)" fill="#C9C9C9" d="M0.036,1.816C12.747,63.71,51.094,117.95,80.907,172.365l0,0
								c28.07,51.24,52.116,105.15,73.206,159.663l0,0c0.664,1.719,3.457,0.972,2.782-0.787l0,0
								c-20.348-52.6-43.517-104.479-70.153-154.165l0,0C56.447,120.543,15.964,65.04,2.81,1.039l0,0C2.665,0.311,2.135,0,1.577,0
								l0,0C0.729,0-0.195,0.719,0.036,1.816"/>
						</g>
						<g id="Group-39" transform="translate(629.000000, 271.000000)">
							<g id="Clip-38">
							</g>
							<defs>
								<filter id="Adobe_OpacityMaskFilter_12_" filterUnits="userSpaceOnUse" x="0" y="0" width="14" height="80">
									<feColorMatrix  type="matrix" values="1 0 0 0 0  0 1 0 0 0  0 0 1 0 0  0 0 0 1 0"/>
								</filter>
							</defs>
							<mask maskUnits="userSpaceOnUse" x="0" y="0" width="14" height="80" id="mask-50">
								<g filter="url(#Adobe_OpacityMaskFilter_12_)">
									<path id="path-49" fill="#FFFFFF" d="M11.024,0.965C6.075,13.194,3.76,26.573,2.027,39.546l0,0
										c-1.723,12.905-3.078,26.485-0.901,39.42l0,0c0.317,1.814,3.178,1.042,2.861-0.782l0,0
										C1.839,65.452,3.313,51.891,5.056,39.198l0,0c1.713-12.606,4.019-25.589,8.83-37.461l0,0C14.32,0.686,13.439,0,12.52,0l0,0
										C11.916,0,11.302,0.29,11.024,0.965"/>
								</g>
							</mask>
							<path id="Fill-37" mask="url(#mask-50)" fill="#C9C9C9" d="M11.024,0.965C6.075,13.194,3.76,26.573,2.027,39.546l0,0
								c-1.723,12.905-3.078,26.485-0.901,39.42l0,0c0.317,1.814,3.178,1.042,2.861-0.782l0,0
								C1.839,65.452,3.313,51.891,5.056,39.198l0,0c1.713-12.606,4.019-25.589,8.83-37.461l0,0C14.32,0.686,13.439,0,12.52,0l0,0
								C11.916,0,11.302,0.29,11.024,0.965"/>
						</g>
						<g id="Group-42" transform="translate(1018.000000, 268.000000)">
							<g id="Clip-41">
							</g>
							<defs>
								<filter id="Adobe_OpacityMaskFilter_13_" filterUnits="userSpaceOnUse" x="0" y="0" width="42" height="103">
									<feColorMatrix  type="matrix" values="1 0 0 0 0  0 1 0 0 0  0 0 1 0 0  0 0 0 1 0"/>
								</filter>
							</defs>
							<mask maskUnits="userSpaceOnUse" x="0" y="0" width="42" height="103" id="mask-54">
								<g filter="url(#Adobe_OpacityMaskFilter_13_)">
									<path id="path-53" fill="#FFFFFF" d="M0.101,1.763c6.67,17.391,11.055,35.556,16.814,53.228l0,0
										c5.354,16.413,11.281,34.017,22.613,47.525l0,0c1.227,1.433,3.305-0.63,2.117-2.063l0,0
										C30.037,86.645,24.268,68.275,18.895,51.476l0,0C13.521,34.685,9.284,17.479,2.961,0.987l0,0C2.703,0.3,2.1,0,1.506,0l0,0
										C0.586,0-0.305,0.697,0.101,1.763"/>
								</g>
							</mask>
							<path id="Fill-40" mask="url(#mask-54)" fill="#C9C9C9" d="M0.101,1.763c6.67,17.391,11.055,35.556,16.814,53.228l0,0
								c5.354,16.413,11.281,34.017,22.613,47.525l0,0c1.227,1.433,3.305-0.63,2.117-2.063l0,0
								C30.037,86.645,24.268,68.275,18.895,51.476l0,0C13.521,34.685,9.284,17.479,2.961,0.987l0,0C2.703,0.3,2.1,0,1.506,0l0,0
								C0.586,0-0.305,0.697,0.101,1.763"/>
						</g>
						<g id="Group-45" transform="translate(1029.000000, 273.000000)">
							<g id="Clip-44">
							</g>
							<defs>
								<filter id="Adobe_OpacityMaskFilter_14_" filterUnits="userSpaceOnUse" x="0" y="0" width="166" height="109">
									<feColorMatrix  type="matrix" values="1 0 0 0 0  0 1 0 0 0  0 0 1 0 0  0 0 0 1 0"/>
								</filter>
							</defs>
							<mask maskUnits="userSpaceOnUse" x="0" y="0" width="166" height="109" id="mask-58">
								<g filter="url(#Adobe_OpacityMaskFilter_14_)">
									<path id="path-57" fill="#FFFFFF" d="M0.625,2.821C30.594,25.21,55.099,55.681,88.3,73.513l0,0
										c6.988,3.762,14.12,6.152,21.523,8.808l0,0c7.885,2.842,14.371,7.407,20.828,12.698l0,0
										c10.442,8.563,20.259,13.688,33.944,13.981l0,0c1.872,0.029,1.872-2.91,0-2.949l0,0
										c-16.302-0.333-25.354-8.515-37.737-17.764l0,0c-12.47-9.327-28.038-11.885-41.377-19.723l0,0
										C54.433,50.331,30.815,21.741,2.082,0.284l0,0C1.822,0.088,1.562,0,1.32,0l0,0C0.162,0-0.601,1.9,0.625,2.821"/>
								</g>
							</mask>
							<path id="Fill-43" mask="url(#mask-58)" fill="#C9C9C9" d="M0.625,2.821C30.594,25.21,55.099,55.681,88.3,73.513l0,0
								c6.988,3.762,14.12,6.152,21.523,8.808l0,0c7.885,2.842,14.371,7.407,20.828,12.698l0,0
								c10.442,8.563,20.259,13.688,33.944,13.981l0,0c1.872,0.029,1.872-2.91,0-2.949l0,0
								c-16.302-0.333-25.354-8.515-37.737-17.764l0,0c-12.47-9.327-28.038-11.885-41.377-19.723l0,0
								C54.433,50.331,30.815,21.741,2.082,0.284l0,0C1.822,0.088,1.562,0,1.32,0l0,0C0.162,0-0.601,1.9,0.625,2.821"/>
						</g>
						<g id="Group-48" transform="translate(1096.000000, 378.000000)">
							<g id="Clip-47">
							</g>
							<defs>
								<filter id="Adobe_OpacityMaskFilter_15_" filterUnits="userSpaceOnUse" x="0" y="0" width="103" height="24">
									<feColorMatrix  type="matrix" values="1 0 0 0 0  0 1 0 0 0  0 0 1 0 0  0 0 0 1 0"/>
								</filter>
							</defs>
							<mask maskUnits="userSpaceOnUse" x="0" y="0" width="103" height="24" id="mask-62">
								<g filter="url(#Adobe_OpacityMaskFilter_15_)">
									<path id="path-61" fill="#FFFFFF" d="M45.356,3.452C29.938,7.521,15.725,14.878,0.98,20.92l0,0
										c-1.734,0.698-0.974,3.688,0.771,2.969l0,0c13.829-5.65,27.155-12.535,41.523-16.665l0,0
										c19.244-5.549,38.902-5.692,57.953,0.821l0,0c1.772,0.606,2.535-2.373,0.771-2.969l0,0C91.967,1.644,81.714,0,71.432,0l0,0
										C62.721,0,53.99,1.182,45.356,3.452"/>
								</g>
							</mask>
							<path id="Fill-46" mask="url(#mask-62)" fill="#C9C9C9" d="M45.356,3.452C29.938,7.521,15.725,14.878,0.98,20.92l0,0
								c-1.734,0.698-0.974,3.688,0.771,2.969l0,0c13.829-5.65,27.155-12.535,41.523-16.665l0,0
								c19.244-5.549,38.902-5.692,57.953,0.821l0,0c1.772,0.606,2.535-2.373,0.771-2.969l0,0C91.967,1.644,81.714,0,71.432,0l0,0
								C62.721,0,53.99,1.182,45.356,3.452"/>
						</g>
						<g id="Group-51" transform="translate(1227.000000, 410.000000)">
							<g id="Clip-50">
							</g>
							<defs>
								<filter id="Adobe_OpacityMaskFilter_16_" filterUnits="userSpaceOnUse" x="0" y="0" width="297" height="154">
									<feColorMatrix  type="matrix" values="1 0 0 0 0  0 1 0 0 0  0 0 1 0 0  0 0 0 1 0"/>
								</filter>
							</defs>
							<mask maskUnits="userSpaceOnUse" x="0" y="0" width="297" height="154" id="mask-66">
								<g filter="url(#Adobe_OpacityMaskFilter_16_)">
									<path id="path-65" fill="#FFFFFF" d="M1.391,2.9c32.733,2.823,65.67,6.498,97.136,16.398l0,0
										c30.982,9.746,57.987,26.646,84.083,45.588l0,0c38.674,28.068,74.021,60.284,112.298,88.836l0,0
										c1.499,1.111,2.951-1.402,1.48-2.505l0,0c-40.571-30.253-77.938-64.461-119.226-93.814l0,0
										c-24.78-17.607-50.75-32.671-79.961-41.557l0,0C66.122,6.372,33.65,2.775,1.391,0.01l0,0C1.343,0,1.294,0,1.246,0l0,0
										C-0.467,0-0.409,2.756,1.391,2.9"/>
								</g>
							</mask>
							<path id="Fill-49" mask="url(#mask-66)" fill="#C9C9C9" d="M1.391,2.9c32.733,2.823,65.67,6.498,97.136,16.398l0,0
								c30.982,9.746,57.987,26.646,84.083,45.588l0,0c38.674,28.068,74.021,60.284,112.298,88.836l0,0
								c1.499,1.111,2.951-1.402,1.48-2.505l0,0c-40.571-30.253-77.938-64.461-119.226-93.814l0,0
								c-24.78-17.607-50.75-32.671-79.961-41.557l0,0C66.122,6.372,33.65,2.775,1.391,0.01l0,0C1.343,0,1.294,0,1.246,0l0,0
								C-0.467,0-0.409,2.756,1.391,2.9"/>
						</g>
						<g id="Group-54" transform="translate(1269.000000, 387.000000)">
							<g id="Clip-53">
							</g>
							<defs>
								<filter id="Adobe_OpacityMaskFilter_17_" filterUnits="userSpaceOnUse" x="0" y="0" width="264" height="33">
									<feColorMatrix  type="matrix" values="1 0 0 0 0  0 1 0 0 0  0 0 1 0 0  0 0 0 1 0"/>
								</filter>
							</defs>
							<mask maskUnits="userSpaceOnUse" x="0" y="0" width="264" height="33" id="mask-70">
								<g filter="url(#Adobe_OpacityMaskFilter_17_)">
									<path id="path-69" fill="#FFFFFF" d="M1.043,2.935c46.271,9.604,91.469,27.351,139.123,28.353l0,0
										c23.924,0.511,45.72-10.205,69.411-10.256l0,0c8.365-0.02,16.759,0.371,25.065,1.402l0,0
										c7.871,0.962,21.97,2.033,26.621,9.865l0,0c0.986,1.632,3.491,0.12,2.515-1.522l0,0
										c-6.634-11.157-26.535-11.348-37.549-12.158l0,0c-7.746-0.571-15.598-0.892-23.354-0.451l0,0
										c-12.639,0.691-24.397,5.358-36.727,7.872l0,0C111.697,37.226,54.499,10.967,1.826,0.04l0,0C1.711,0.01,1.604,0,1.498,0
										l0,0C-0.088,0-0.678,2.574,1.043,2.935"/>
								</g>
							</mask>
							<path id="Fill-52" mask="url(#mask-70)" fill="#C9C9C9" d="M1.043,2.935c46.271,9.604,91.469,27.351,139.123,28.353l0,0
								c23.924,0.511,45.72-10.205,69.411-10.256l0,0c8.365-0.02,16.759,0.371,25.065,1.402l0,0
								c7.871,0.962,21.97,2.033,26.621,9.865l0,0c0.986,1.632,3.491,0.12,2.515-1.522l0,0
								c-6.634-11.157-26.535-11.348-37.549-12.158l0,0c-7.746-0.571-15.598-0.892-23.354-0.451l0,0
								c-12.639,0.691-24.397,5.358-36.727,7.872l0,0C111.697,37.226,54.499,10.967,1.826,0.04l0,0C1.711,0.01,1.604,0,1.498,0l0,0
								C-0.088,0-0.678,2.574,1.043,2.935"/>
						</g>
						<g id="Group-57" transform="translate(1517.000000, 420.000000)">
							<g id="Clip-56">
							</g>
							<defs>
								<filter id="Adobe_OpacityMaskFilter_18_" filterUnits="userSpaceOnUse" x="1.111" y="0" width="6.778" height="146">
									<feColorMatrix  type="matrix" values="1 0 0 0 0  0 1 0 0 0  0 0 1 0 0  0 0 0 1 0"/>
								</filter>
							</defs>
							<mask maskUnits="userSpaceOnUse" x="1.111" y="0" width="6.778" height="146" id="mask-74">
								<g filter="url(#Adobe_OpacityMaskFilter_18_)">
									<path id="path-73" fill="#FFFFFF" d="M4.465,1.395c1.63,47.781,0.514,95.59-3.348,143.217l0,0
										c-0.152,1.856,2.557,1.847,2.7,0l0,0C7.67,96.984,8.795,49.176,7.166,1.395l0,0C7.139,0.462,6.445,0,5.771,0l0,0
										C5.096,0,4.438,0.462,4.465,1.395"/>
								</g>
							</mask>
							<path id="Fill-55" mask="url(#mask-74)" fill="#C9C9C9" d="M4.465,1.395c1.63,47.781,0.514,95.59-3.348,143.217l0,0
								c-0.152,1.856,2.557,1.847,2.7,0l0,0C7.67,96.984,8.795,49.176,7.166,1.395l0,0C7.139,0.462,6.445,0,5.771,0l0,0
								C5.096,0,4.438,0.462,4.465,1.395"/>
						</g>
						<g id="Group-60" transform="translate(1423.000000, 412.000000)">
							<g id="Clip-59">
							</g>
							<defs>
								<filter id="Adobe_OpacityMaskFilter_19_" filterUnits="userSpaceOnUse" x="0.001" y="0" width="466.999" height="539">
									<feColorMatrix  type="matrix" values="1 0 0 0 0  0 1 0 0 0  0 0 1 0 0  0 0 0 1 0"/>
								</filter>
							</defs>
							<mask maskUnits="userSpaceOnUse" x="0.001" y="0" width="466.999" height="539" id="mask-78">
								<g filter="url(#Adobe_OpacityMaskFilter_19_)">
									<path id="path-77" fill="#FFFFFF" d="M95.717,0.077C53.488,14.292-10.3,41.706,1.412,97.927l0,0
										c5.19,24.946,25.082,44.135,43.188,60.623l0,0c20.047,18.24,41.637,34.662,63.245,50.986l0,0
										c47.73,36.055,95.257,72.399,127.113,124.005l0,0c30.002,48.644,48.117,105.522,86.319,148.902l0,0
										c35.077,39.829,91.481,70.774,144.743,49.786l0,0c1.727-0.688,0.979-3.483-0.776-2.797l0,0
										c-49.903,19.663-102.466-7.335-136.923-43.583l0,0c-37.095-39.045-55.657-91.607-81.545-137.881l0,0
										c-24.754-44.271-58.463-79.261-98.022-110.71l0,0C109.312,205.917,66.336,178.02,31.2,141.636l0,0
										C7.156,116.757-6.797,84.728,13.948,52.97l0,0c18.514-28.313,51.979-39.8,82.545-50.086l0,0
										C98.095,2.342,97.619,0,96.192,0l0,0C96.047,0,95.882,0.02,95.717,0.077"/>
								</g>
							</mask>
							<path id="Fill-58" mask="url(#mask-78)" fill="#C9C9C9" d="M95.717,0.077C53.488,14.292-10.3,41.706,1.412,97.927l0,0
								c5.19,24.946,25.082,44.135,43.188,60.623l0,0c20.047,18.24,41.637,34.662,63.245,50.986l0,0
								c47.73,36.055,95.257,72.399,127.113,124.005l0,0c30.002,48.644,48.117,105.522,86.319,148.902l0,0
								c35.077,39.829,91.481,70.774,144.743,49.786l0,0c1.727-0.688,0.979-3.483-0.776-2.797l0,0
								c-49.903,19.663-102.466-7.335-136.923-43.583l0,0c-37.095-39.045-55.657-91.607-81.545-137.881l0,0
								c-24.754-44.271-58.463-79.261-98.022-110.71l0,0C109.312,205.917,66.336,178.02,31.2,141.636l0,0
								C7.156,116.757-6.797,84.728,13.948,52.97l0,0c18.514-28.313,51.979-39.8,82.545-50.086l0,0C98.095,2.342,97.619,0,96.192,0
								l0,0C96.047,0,95.882,0.02,95.717,0.077"/>
						</g>
						<g id="Group-63" transform="translate(862.000000, 562.000000)">
							<g id="Clip-62">
							</g>
							<defs>
								<filter id="Adobe_OpacityMaskFilter_20_" filterUnits="userSpaceOnUse" x="0" y="0" width="828" height="228">
									<feColorMatrix  type="matrix" values="1 0 0 0 0  0 1 0 0 0  0 0 1 0 0  0 0 0 1 0"/>
								</filter>
							</defs>
							<mask maskUnits="userSpaceOnUse" x="0" y="0" width="828" height="228" id="mask-82">
								<g filter="url(#Adobe_OpacityMaskFilter_20_)">
									<path id="path-81" fill="#FFFFFF" d="M547.262,9.898c-26.257,9.044-50.567,23.125-74.993,36.147l0,0
										c-53.765,28.666-107.395,57.614-161.344,85.95l0,0c-45.48,23.882-91.795,46.531-140.065,64.222l0,0
										c-53.32,19.545-111.939,35.236-169.027,26.483l0,0c-1.841-0.292-2.626,2.513-0.775,2.804l0,0
										c46.198,7.094,93.316-1.854,137.547-15.342l0,0c49.191-15.022,96.33-36.332,142.217-59.399l0,0
										c50.742-25.512,100.545-52.955,150.666-79.681l0,0C487.529,41.214,542.438,4.26,607.868,2.921l0,0
										c72.727-1.484,146.015,3.202,218.722,5.026l0,0c1.88,0.049,1.88-2.872,0-2.911l0,0
										c-64.703-1.63-129.408-3.435-194.121-4.871l0,0C627.934,0.068,623.399,0,618.885,0l0,0
										C594.564,0,570.594,1.863,547.262,9.898"/>
								</g>
							</mask>
							<path id="Fill-61" mask="url(#mask-82)" fill="#C9C9C9" d="M547.262,9.898c-26.257,9.044-50.567,23.125-74.993,36.147l0,0
								c-53.765,28.666-107.395,57.614-161.344,85.95l0,0c-45.48,23.882-91.795,46.531-140.065,64.222l0,0
								c-53.32,19.545-111.939,35.236-169.027,26.483l0,0c-1.841-0.292-2.626,2.513-0.775,2.804l0,0
								c46.198,7.094,93.316-1.854,137.547-15.342l0,0c49.191-15.022,96.33-36.332,142.217-59.399l0,0
								c50.742-25.512,100.545-52.955,150.666-79.681l0,0C487.529,41.214,542.438,4.26,607.868,2.921l0,0
								c72.727-1.484,146.015,3.202,218.722,5.026l0,0c1.88,0.049,1.88-2.872,0-2.911l0,0c-64.703-1.63-129.408-3.435-194.121-4.871
								l0,0C627.934,0.068,623.399,0,618.885,0l0,0C594.564,0,570.594,1.863,547.262,9.898"/>
						</g>
						<g id="Group-66" transform="translate(911.000000, 437.000000)">
							<g id="Clip-65">
							</g>
							<defs>
								<filter id="Adobe_OpacityMaskFilter_21_" filterUnits="userSpaceOnUse" x="0" y="0" width="485" height="326">
									<feColorMatrix  type="matrix" values="1 0 0 0 0  0 1 0 0 0  0 0 1 0 0  0 0 0 1 0"/>
								</filter>
							</defs>
							<mask maskUnits="userSpaceOnUse" x="0" y="0" width="485" height="326" id="mask-86">
								<g filter="url(#Adobe_OpacityMaskFilter_21_)">
									<path id="path-85" fill="#FFFFFF" d="M376.952,2.879c41.872,11.526,95.877,28.616,104.335,78.495l0,0
										c7.905,46.572-40.989,69.81-75.926,85.021l0,0c-46.605,20.29-92.919,41.854-140.396,59.995l0,0
										c-22.464,8.589-45.713,14.872-68.128,23.5l0,0c-20.466,7.879-38.234,19.269-56.14,31.768l0,0
										c-20.029,13.997-41.367,27.283-64.636,35.123l0,0c-24.539,8.287-49.253,7.51-74.248,1.741l0,0
										c-1.823-0.418-2.6,2.393-0.767,2.812l0,0c20.572,4.756,41.514,6.614,62.309,2.032l0,0
										c21.93-4.814,42.454-15.688,61.396-27.478l0,0c22.948-14.309,43.424-31.311,68.729-41.553l0,0
										c25.801-10.438,52.832-17.479,78.749-27.653l0,0c49.863-19.561,99.407-41.3,148.06-63.729l0,0
										c31.668-14.61,68.807-38.363,64.345-78.603l0,0c-5.907-53.167-63.308-72.279-106.915-84.292l0,0
										C377.583,0.02,377.438,0,377.311,0l0,0C375.808,0,375.284,2.422,376.952,2.879"/>
								</g>
							</mask>
							<path id="Fill-64" mask="url(#mask-86)" fill="#C9C9C9" d="M481.287,81.374c7.905,46.572-40.989,69.81-75.926,85.021
								c-27.792,12.1-46.469,30.877-74.362,42.886C312.117,217.411,303.166,227.677,284,235l-19.035,4
								c-22.464,8.589-45.713,2.263-68.128,10.891c-20.466,7.879-38.234,19.269-56.14,31.768
								c-20.029,13.997-41.367,27.283-64.636,35.123c-24.539,8.287-49.253,7.51-74.248,1.741c-1.823-0.418-2.6,2.393-0.767,2.812
								c20.572,4.756,41.514,6.614,62.309,2.032c21.93-4.814,42.454-15.688,61.396-27.478
								c22.948-14.309,43.424-31.311,68.729-41.553c25.801-10.438,54.926-5.162,80.842-15.336h3.521
								c49.864-19.561,93.794-53.617,142.446-76.047c31.668-14.61,68.807-38.363,64.345-78.603
								c-5.907-53.167-63.308-72.279-106.915-84.292C377.583,0.02,377.438,0,377.311,0c-1.503,0-2.026,2.422-0.358,2.879
								C418.824,14.405,472.829,31.495,481.287,81.374z"/>
						</g>
						<g id="Group-69" transform="translate(1278.000000, 427.000000)">
							<g id="Clip-68">
							</g>
							<defs>
								<filter id="Adobe_OpacityMaskFilter_22_" filterUnits="userSpaceOnUse" x="0" y="0" width="72" height="168">
									<feColorMatrix  type="matrix" values="1 0 0 0 0  0 1 0 0 0  0 0 1 0 0  0 0 0 1 0"/>
								</filter>
							</defs>
							<mask maskUnits="userSpaceOnUse" x="0" y="0" width="72" height="168" id="mask-90">
								<g filter="url(#Adobe_OpacityMaskFilter_22_)">
									<path id="path-89" fill="#FFFFFF" d="M0.751,2.673c28.17,12.536,49.993,42.391,61.447,70.515l0,0
										c6.308,15.51,8.66,32.031,5.328,48.562l0,0c-3.043,15.102-8.094,29.465-9.879,44.858l0,0c-0.222,1.866,2.669,1.847,2.89,0
										l0,0c1.968-17.064,8.449-33.012,10.772-49.951l0,0c2.15-15.704-0.874-31.312-6.961-45.811l0,0
										C52.521,42.691,30.563,12.77,2.211,0.146l0,0C1.999,0.049,1.788,0,1.587,0l0,0C0.204,0-0.728,2.002,0.751,2.673"/>
								</g>
							</mask>
							<path id="Fill-67" mask="url(#mask-90)" fill="#C9C9C9" d="M0.751,2.673c28.17,12.536,49.993,42.391,61.447,70.515l0,0
								c6.308,15.51,8.66,32.031,5.328,48.562l0,0c-3.043,15.102-8.094,29.465-9.879,44.858l0,0c-0.222,1.866,2.669,1.847,2.89,0
								l0,0c1.968-17.064,8.449-33.012,10.772-49.951l0,0c2.15-15.704-0.874-31.312-6.961-45.811l0,0
								C52.521,42.691,30.563,12.77,2.211,0.146l0,0C1.999,0.049,1.788,0,1.587,0l0,0C0.204,0-0.728,2.002,0.751,2.673"/>
						</g>
						<g id="Group-72" transform="translate(1025.000000, 638.000000)">
							<g id="Clip-71">
							</g>
							<defs>
								<filter id="Adobe_OpacityMaskFilter_23_" filterUnits="userSpaceOnUse" x="0.002" y="0" width="918.998" height="322">
									<feColorMatrix  type="matrix" values="1 0 0 0 0  0 1 0 0 0  0 0 1 0 0  0 0 0 1 0"/>
								</filter>
							</defs>
							<mask maskUnits="userSpaceOnUse" x="0.002" y="0" width="918.998" height="322" id="mask-94">
								<g filter="url(#Adobe_OpacityMaskFilter_23_)">
									<path id="path-93" fill="#FFFFFF" d="M288.735,22.962c-48.248,18.702-93.984,43.185-142.397,61.587l0,0
										c-47.347,17.986-96.109,31.674-145.298,43.63l0,0c-1.823,0.445-1.04,3.242,0.775,2.797l0,0
										c43.797-10.648,87.274-22.604,129.703-37.859l0,0c42.1-15.15,82.231-34.424,123.031-52.633l0,0
										c42.294-18.867,86.653-35.827,133.485-37.482l0,0c36.067-1.278,74.656,5.324,109.327,15.247l0,0
										c27.446,7.86,52.962,20.522,74.239,39.699l0,0c24.285,21.877,42.527,49.767,58.664,77.927l0,0
										c15.537,27.135,24.411,57.725,36.912,86.282l0,0c10.91,24.946,22.975,48.982,47.725,62.38l0,0
										c30.627,16.563,66.888,23.281,100.938,28.528l0,0c33.643,5.198,67.722,8.258,101.763,8.936l0,0
										c1.862,0.038,1.862-2.856,0-2.904l0,0c-31.577-0.639-63.174-3.34-94.422-7.86l0,0
										c-33.332-4.812-67.993-11.084-98.795-25.228l0,0c-12.928-5.934-24.42-13.417-32.964-24.956l0,0
										c-9.388-12.701-16.128-27.425-22.394-41.849l0,0c-12.685-29.264-21.956-60.231-38.045-87.907l0,0
										C602.181,81.81,566.617,38.731,510.949,19.477l0,0c-30.451-10.532-63.29-15.595-95.304-18.596l0,0
										C409.216,0.28,402.806,0,396.424,0l0,0C359.445,0,323.232,9.603,288.735,22.962"/>
								</g>
							</mask>
							<path id="Fill-70" mask="url(#mask-94)" fill="#C9C9C9" d="M288.735,22.962c-48.248,18.702-93.984,43.185-142.397,61.587l0,0
								c-47.347,17.986-96.109,31.674-145.298,43.63l0,0c-1.823,0.445-1.04,3.242,0.775,2.797l0,0
								c43.797-10.648,87.274-22.604,129.703-37.859l0,0c42.1-15.15,82.231-34.424,123.031-52.633l0,0
								c42.294-18.867,86.653-35.827,133.485-37.482l0,0c36.067-1.278,74.656,5.324,109.327,15.247l0,0
								c27.446,7.86,52.962,20.522,74.239,39.699l0,0c24.285,21.877,42.527,49.767,58.664,77.927l0,0
								c15.537,27.135,24.411,57.725,36.912,86.282l0,0c10.91,24.946,22.975,48.982,47.725,62.38l0,0
								c30.627,16.563,66.888,23.281,100.938,28.528l0,0c33.643,5.198,67.722,8.258,101.763,8.936l0,0
								c1.862,0.038,1.862-2.856,0-2.904l0,0c-31.577-0.639-63.174-3.34-94.422-7.86l0,0c-33.332-4.812-67.993-11.084-98.795-25.228
								l0,0c-12.928-5.934-24.42-13.417-32.964-24.956l0,0c-9.388-12.701-16.128-27.425-22.394-41.849l0,0
								c-12.685-29.264-21.956-60.231-38.045-87.907l0,0C602.181,81.81,566.617,38.731,510.949,19.477l0,0
								c-30.451-10.532-63.29-15.595-95.304-18.596l0,0C409.216,0.28,402.806,0,396.424,0l0,0
								C359.445,0,323.232,9.603,288.735,22.962"/>
						</g>
						<g id="Group-75" transform="translate(1671.000000, 577.000000)">
							<g id="Clip-74">
							</g>
							<defs>
								<filter id="Adobe_OpacityMaskFilter_24_" filterUnits="userSpaceOnUse" x="0" y="0" width="266" height="380">
									<feColorMatrix  type="matrix" values="1 0 0 0 0  0 1 0 0 0  0 0 1 0 0  0 0 0 1 0"/>
								</filter>
							</defs>
							<mask maskUnits="userSpaceOnUse" x="0" y="0" width="266" height="380" id="mask-98">
								<g filter="url(#Adobe_OpacityMaskFilter_24_)">
									<path id="path-97" fill="#FFFFFF" d="M14.829,0.968C3.434,28.431-3.229,55.458,1.581,85.137l0,0
										c2.628,16.282,7.206,32.216,11.279,48.179l0,0c4.558,17.82,7.671,35.797,10.765,53.928l0,0
										c2.687,15.827,5.257,32.303,11.773,47.104l0,0c6.023,13.668,17.516,23.774,27.311,34.771l0,0
										c25.875,29.03,50.799,62.291,82.783,84.972l0,0c34.662,24.588,77.993,27.298,119.104,25.439l0,0
										c1.872-0.077,1.872-3.001,0-2.914l0,0c-36.988,1.675-76.149,0.059-108.823-19.321l0,0
										c-31.868-18.886-56.075-50.84-80.311-78.177l0,0c-11.386-12.846-26.495-25.643-34.846-40.676l0,0
										c-7.468-13.437-10.222-29.534-12.898-44.48l0,0c-5.702-31.779-13.103-62.688-20.259-94.149l0,0
										C-0.514,64.75,3.918,34.79,17.632,1.742l0,0C18.068,0.697,17.205,0,16.293,0l0,0C15.711,0,15.101,0.29,14.829,0.968"/>
								</g>
							</mask>
							<path id="Fill-73" mask="url(#mask-98)" fill="#C9C9C9" d="M14.829,0.968C3.434,28.431-3.229,55.458,1.581,85.137l0,0
								c2.628,16.282,7.206,32.216,11.279,48.179l0,0c4.558,17.82,7.671,35.797,10.765,53.928l0,0
								c2.687,15.827,5.257,32.303,11.773,47.104l0,0c6.023,13.668,17.516,23.774,27.311,34.771l0,0
								c25.875,29.03,50.799,62.291,82.783,84.972l0,0c34.662,24.588,77.993,27.298,119.104,25.439l0,0
								c1.872-0.077,1.872-3.001,0-2.914l0,0c-36.988,1.675-76.149,0.059-108.823-19.321l0,0
								c-31.868-18.886-56.075-50.84-80.311-78.177l0,0c-11.386-12.846-26.495-25.643-34.846-40.676l0,0
								c-7.468-13.437-10.222-29.534-12.898-44.48l0,0c-5.702-31.779-13.103-62.688-20.259-94.149l0,0
								C-0.514,64.75,3.918,34.79,17.632,1.742l0,0C18.068,0.697,17.205,0,16.293,0l0,0C15.711,0,15.101,0.29,14.829,0.968"/>
						</g>
						<g id="Group-78" transform="translate(1889.000000, 723.000000)">
							<g id="Clip-77">
							</g>
							<defs>
								<filter id="Adobe_OpacityMaskFilter_25_" filterUnits="userSpaceOnUse" x="0" y="0" width="552" height="219.001">
									<feColorMatrix  type="matrix" values="1 0 0 0 0  0 1 0 0 0  0 0 1 0 0  0 0 0 1 0"/>
								</filter>
							</defs>
							<mask maskUnits="userSpaceOnUse" x="0" y="0" width="552" height="219.001" id="mask-102">
								<g filter="url(#Adobe_OpacityMaskFilter_25_)">
									<path id="path-101" fill="#FFFFFF" d="M116.484,0.058C77.057,0.677,37.213,7.046,0.765,22.414l0,0
										c-1.718,0.726-0.242,3.229,1.485,2.504l0,0C38.174,9.762,77.61,3.557,116.484,2.958l0,0
										c37.467-0.561,77.67,3.16,112.564,17.63l0,0c20.51,8.506,35.283,25.14,51.629,39.551l0,0
										c16.18,14.257,32.875,27.953,49.891,41.195l0,0c32.458,25.236,66.101,48.897,100.082,72.018l0,0
										c19.656,13.377,39.302,29.306,60.685,39.832l0,0c19.345,9.521,39.554,5.587,59.626,0.677l0,0
										c0.709-0.175,1.02-0.696,1.039-1.247l0,0v-0.106c-0.029-0.841-0.738-1.711-1.814-1.45l0,0
										c-11.493,2.813-23.306,5.771-35.234,5.307l0,0c-13.92-0.531-25.295-6.882-36.564-14.354l0,0
										c-17.986-11.908-35.855-24.028-53.646-36.207l0,0c-37.409-25.585-74.371-51.895-109.586-80.379l0,0
										c-16.792-13.58-33.108-27.682-48.979-42.306l0,0c-12.86-11.859-25.362-21.573-42.048-27.557l0,0
										C192.165,4.099,157.096,0,123.143,0l0,0C120.92,0,118.697,0.02,116.484,0.058"/>
								</g>
							</mask>
							<path id="Fill-76" mask="url(#mask-102)" fill="#C9C9C9" d="M116.484,0.058C77.057,0.677,37.213,7.046,0.765,22.414l0,0
								c-1.718,0.726-0.242,3.229,1.485,2.504l0,0C38.174,9.762,77.61,3.557,116.484,2.958l0,0
								c37.467-0.561,77.67,3.16,112.564,17.63l0,0c20.51,8.506,35.283,25.14,51.629,39.551l0,0
								c16.18,14.257,32.875,27.953,49.891,41.195l0,0c32.458,25.236,66.101,48.897,100.082,72.018l0,0
								c19.656,13.377,39.302,29.306,60.685,39.832l0,0c19.345,9.521,39.554,5.587,59.626,0.677l0,0
								c0.709-0.175,1.02-0.696,1.039-1.247l0,0v-0.106c-0.029-0.841-0.738-1.711-1.814-1.45l0,0
								c-11.493,2.813-23.306,5.771-35.234,5.307l0,0c-13.92-0.531-25.295-6.882-36.564-14.354l0,0
								c-17.986-11.908-35.855-24.028-53.646-36.207l0,0c-37.409-25.585-74.371-51.895-109.586-80.379l0,0
								c-16.792-13.58-33.108-27.682-48.979-42.306l0,0c-12.86-11.859-25.362-21.573-42.048-27.557l0,0
								C192.165,4.099,157.096,0,123.143,0l0,0C120.92,0,118.697,0.02,116.484,0.058"/>
						</g>
						<g id="Group-81" transform="translate(1898.000000, 752.000000)">
							<g id="Clip-80">
							</g>
							<defs>
								<filter id="Adobe_OpacityMaskFilter_26_" filterUnits="userSpaceOnUse" x="-0.001" y="0" width="85.001" height="197">
									<feColorMatrix  type="matrix" values="1 0 0 0 0  0 1 0 0 0  0 0 1 0 0  0 0 0 1 0"/>
								</filter>
							</defs>
							<mask maskUnits="userSpaceOnUse" x="-0.001" y="0" width="85.001" height="197" id="mask-106">
								<g filter="url(#Adobe_OpacityMaskFilter_26_)">
									<path id="path-105" fill="#FFFFFF" d="M0.281,2.096c25.186,33.808,50.707,67.946,68.914,106.246l0,0
										c8.738,18.335,24.252,56.79,1.906,71.381l0,0c-18.689,12.185-45.077,15.24-66.721,14.173l0,0
										c-1.856-0.097-1.856,2.813,0,2.901l0,0c22.365,1.115,48.859-2.164,68.174-14.571l0,0
										c16.841-10.808,13.28-35.729,8.372-52.173l0,0c-6.938-23.205-19.882-44.916-32.759-65.191l0,0
										C34.128,42.694,18.432,21.644,2.765,0.611l0,0C2.447,0.185,1.995,0,1.562,0l0,0C0.503,0-0.508,1.028,0.281,2.096"/>
								</g>
							</mask>
							<path id="Fill-79" mask="url(#mask-106)" fill="#C9C9C9" d="M0.281,2.096c25.186,33.808,50.707,67.946,68.914,106.246l0,0
								c8.738,18.335,24.252,56.79,1.906,71.381l0,0c-18.689,12.185-45.077,15.24-66.721,14.173l0,0
								c-1.856-0.097-1.856,2.813,0,2.901l0,0c22.365,1.115,48.859-2.164,68.174-14.571l0,0
								c16.841-10.808,13.28-35.729,8.372-52.173l0,0c-6.938-23.205-19.882-44.916-32.759-65.191l0,0
								C34.128,42.694,18.432,21.644,2.765,0.611l0,0C2.447,0.185,1.995,0,1.562,0l0,0C0.503,0-0.508,1.028,0.281,2.096"/>
						</g>
						<g id="Group-84" transform="translate(1897.000000, 901.000000)">
							<g id="Clip-83">
							</g>
							<defs>
								<filter id="Adobe_OpacityMaskFilter_27_" filterUnits="userSpaceOnUse" x="0" y="0" width="526" height="58">
									<feColorMatrix  type="matrix" values="1 0 0 0 0  0 1 0 0 0  0 0 1 0 0  0 0 0 1 0"/>
								</filter>
							</defs>
							<mask maskUnits="userSpaceOnUse" x="0" y="0" width="526" height="58" id="mask-110">
								<g filter="url(#Adobe_OpacityMaskFilter_27_)">
									<path id="path-109" fill="#FFFFFF" d="M180.482,7.919c-18.816,7.573-35.07,19.874-52.563,29.873l0,0
										C88.149,60.523,40.75,60.993,2.121,35.28l0,0c-1.557-1.035-3.007,1.447-1.46,2.483l0,0
										c24.435,16.269,54.148,23.238,83.36,19.04l0,0c30.768-4.42,54.187-23.124,80.478-37.869l0,0
										c36.985-20.737,75.286-17.008,115.452-9.069l0,0c36.686,7.267,73.449,13.46,110.705,17.074l0,0
										c44.508,4.324,89.248,5.503,133.94,3.825l0,0c1.866-0.076,1.876-2.952,0-2.876l0,0
										c-48.608,1.831-97.293,0.259-145.64-5.023l0,0c-26.389-2.886-52.631-6.854-78.681-11.869l0,0
										C279.352,6.96,258.505,2.07,237.203,0.479l0,0C233.026,0.173,228.84,0,224.672,0l0,0
										C209.578,0,194.639,2.225,180.482,7.919"/>
								</g>
							</mask>
							<path id="Fill-82" mask="url(#mask-110)" fill="#C9C9C9" d="M180.482,7.919c-18.816,7.573-35.07,19.874-52.563,29.873l0,0
								C88.149,60.523,40.75,60.993,2.121,35.28l0,0c-1.557-1.035-3.007,1.447-1.46,2.483l0,0
								c24.435,16.269,54.148,23.238,83.36,19.04l0,0c30.768-4.42,54.187-23.124,80.478-37.869l0,0
								c36.985-20.737,75.286-17.008,115.452-9.069l0,0c36.686,7.267,73.449,13.46,110.705,17.074l0,0
								c44.508,4.324,89.248,5.503,133.94,3.825l0,0c1.866-0.076,1.876-2.952,0-2.876l0,0c-48.608,1.831-97.293,0.259-145.64-5.023
								l0,0c-26.389-2.886-52.631-6.854-78.681-11.869l0,0C279.352,6.96,258.505,2.07,237.203,0.479l0,0
								C233.026,0.173,228.84,0,224.672,0l0,0C209.578,0,194.639,2.225,180.482,7.919"/>
						</g>
						<g id="Group-87" transform="translate(1881.000000, 747.000000)">
							<g id="Clip-86">
							</g>
							<defs>
								<filter id="Adobe_OpacityMaskFilter_28_" filterUnits="userSpaceOnUse" x="0" y="0" width="544" height="186">
									<feColorMatrix  type="matrix" values="1 0 0 0 0  0 1 0 0 0  0 0 1 0 0  0 0 0 1 0"/>
								</filter>
							</defs>
							<mask maskUnits="userSpaceOnUse" x="0" y="0" width="544" height="186" id="mask-114">
								<g filter="url(#Adobe_OpacityMaskFilter_28_)">
									<path id="path-113" fill="#FFFFFF" d="M1.033,2.833c75.326,17.689,150.662,35.34,225.989,53.02l0,0
										c41.297,9.673,84.788,16.765,123.118,35.523l0,0c31.594,15.474,61.235,34.589,92.896,50.071l0,0
										c32.521,15.907,65.517,31.169,99.218,44.445l0,0c1.739,0.685,2.493-2.101,0.772-2.784l0,0
										c-31.304-12.333-61.94-26.457-92.21-41.083l0,0c-31.274-15.126-60.714-32.989-91.39-49.146l0,0
										c-36.561-19.26-77.201-27.045-117.097-36.4l0,0c-37.856-8.893-75.703-17.767-113.55-26.64l0,0
										C86.459,19.905,44.128,9.981,1.816,0.048l0,0C1.69,0.02,1.564,0,1.449,0l0,0C-0.098,0-0.658,2.438,1.033,2.833"/>
								</g>
							</mask>
							<path id="Fill-85" mask="url(#mask-114)" fill="#C9C9C9" d="M1.033,2.833c75.326,17.689,150.662,35.34,225.989,53.02l0,0
								c41.297,9.673,84.788,16.765,123.118,35.523l0,0c31.594,15.474,61.235,34.589,92.896,50.071l0,0
								c32.521,15.907,65.517,31.169,99.218,44.445l0,0c1.739,0.685,2.493-2.101,0.772-2.784l0,0
								c-31.304-12.333-61.94-26.457-92.21-41.083l0,0c-31.274-15.126-60.714-32.989-91.39-49.146l0,0
								c-36.561-19.26-77.201-27.045-117.097-36.4l0,0c-37.856-8.893-75.703-17.767-113.55-26.64l0,0
								C86.459,19.905,44.128,9.981,1.816,0.048l0,0C1.69,0.02,1.564,0,1.449,0l0,0C-0.098,0-0.658,2.438,1.033,2.833"/>
						</g>
						<g id="Group-90" transform="translate(1918.000000, 920.000000)">
							<g id="Clip-89">
							</g>
							<defs>
								<filter id="Adobe_OpacityMaskFilter_29_" filterUnits="userSpaceOnUse" x="0" y="0" width="284" height="24">
									<feColorMatrix  type="matrix" values="1 0 0 0 0  0 1 0 0 0  0 0 1 0 0  0 0 0 1 0"/>
								</filter>
							</defs>
							<mask maskUnits="userSpaceOnUse" x="0" y="0" width="284" height="24" id="mask-118">
								<g filter="url(#Adobe_OpacityMaskFilter_29_)">
									<path id="path-117" fill="#FFFFFF" d="M282.2,0.066C190.609,25.05,95.48,22.343,1.407,19.073l0,0
										c-1.881-0.058-1.871,2.802,0,2.869l0,0c94.335,3.26,189.726,5.919,281.568-19.121l0,0C284.624,2.364,284.12,0,282.617,0
										l0,0C282.481,0,282.346,0.02,282.2,0.066"/>
								</g>
							</mask>
							<path id="Fill-88" mask="url(#mask-118)" fill="#C9C9C9" d="M282.2,0.066C190.609,25.05,95.48,22.343,1.407,19.073l0,0
								c-1.881-0.058-1.871,2.802,0,2.869l0,0c94.335,3.26,189.726,5.919,281.568-19.121l0,0C284.624,2.364,284.12,0,282.617,0l0,0
								C282.481,0,282.346,0.02,282.2,0.066"/>
						</g>
					</g>
				</g>
			</g>
		</g>
	</g>
</g>
</svg>
