<?xml version="1.0" encoding="utf-8"?>
<!-- Generator: Adobe Illustrator 16.0.0, SVG Export Plug-In . SVG Version: 6.00 Build 0)  -->
<!DOCTYPE svg PUBLIC "-//W3C//DTD SVG 1.1//EN" "http://www.w3.org/Graphics/SVG/1.1/DTD/svg11.dtd">
<svg version="1.1" id="Layer_1" xmlns="http://www.w3.org/2000/svg" xmlns:xlink="http://www.w3.org/1999/xlink" x="0px" y="0px"
	 width="250px" height="250px" viewBox="0 0 250 250" enable-background="new 0 0 250 250" xml:space="preserve">
<path fill="#EB5454" d="M132.224,61.552l44.114,25.469c1.3-1.153,3.012-1.853,4.887-1.853c4.071,0,7.372,3.3,7.372,7.372
	c0,3.252-2.106,6.013-5.03,6.991v50.938c2.924,0.979,5.03,3.74,5.03,6.992c0,4.07-3.301,7.371-7.372,7.371
	c-1.875,0-3.586-0.7-4.887-1.853l-44.114,25.47c0.096,0.477,0.147,0.968,0.147,1.475c0,4.071-3.3,7.37-7.371,7.37
	c-4.071,0-7.371-3.299-7.371-7.37c0-0.505,0.052-0.997,0.147-1.475l-44.114-25.47c-1.3,1.152-3.011,1.853-4.888,1.853
	c-4.071,0-7.371-3.301-7.371-7.371c0-3.252,2.106-6.014,5.03-6.992V99.531c-2.924-0.979-5.03-3.739-5.03-6.991
	c0-4.072,3.3-7.372,7.371-7.372c1.876,0,3.585,0.7,4.888,1.853l44.114-25.469c-0.096-0.477-0.147-0.969-0.147-1.474
	c0-4.072,3.3-7.372,7.371-7.372c4.071,0,7.371,3.3,7.371,7.372C132.371,60.583,132.321,61.075,132.224,61.552L132.224,61.552z
	 M87.476,149.647l-0.375-0.074l9.224-5.324c1.116-0.642,1.5-2.066,0.859-3.183c-0.642-1.116-2.066-1.502-3.182-0.859l-9.235,5.331
	l0.127-0.373c0.415-1.222-0.24-2.548-1.462-2.963c-1.222-0.414-2.549,0.24-2.964,1.462l-2.093,6.147
	c-0.527,1.352,0.292,2.866,1.73,3.148l6.475,1.282c1.268,0.246,2.496-0.581,2.744-1.848
	C89.571,151.124,88.744,149.896,87.476,149.647L87.476,149.647z M165.233,104.463l-0.127,0.373
	c-0.416,1.223,0.239,2.549,1.462,2.964c1.223,0.414,2.549-0.241,2.965-1.462l2.091-6.146c0.527-1.353-0.291-2.867-1.729-3.149
	l-6.475-1.282c-1.269-0.247-2.496,0.58-2.745,1.847c-0.247,1.269,0.581,2.496,1.848,2.745l0.375,0.075l-9.225,5.325
	c-1.115,0.642-1.499,2.066-0.858,3.182c0.642,1.116,2.066,1.501,3.182,0.859L165.233,104.463L165.233,104.463z M87.1,100.427
	l0.376-0.075c1.269-0.248,2.095-1.476,1.848-2.745c-0.247-1.269-1.477-2.094-2.744-1.847l-6.475,1.283
	c-1.385,0.272-2.22,1.7-1.767,3.043l2.127,6.249c0.415,1.222,1.742,1.877,2.964,1.463c1.223-0.416,1.877-1.742,1.463-2.964
	l-0.127-0.373L94,109.792c1.116,0.643,2.542,0.257,3.182-0.859c0.642-1.116,0.257-2.542-0.859-3.182L87.1,100.427L87.1,100.427z
	 M127.342,79.895l0.25,0.285c0.85,0.97,2.323,1.068,3.293,0.219c0.971-0.849,1.068-2.323,0.22-3.293l-4.331-4.949
	c-0.921-1.073-2.591-1.09-3.53-0.019l-4.348,4.967c-0.849,0.97-0.75,2.444,0.219,3.293c0.97,0.849,2.444,0.75,3.293-0.219
	l0.25-0.285v10.654c0,1.293,1.048,2.341,2.342,2.341c1.293,0,2.342-1.048,2.342-2.341V79.895L127.342,79.895z M162.9,149.573
	l-0.377,0.074c-1.269,0.248-2.095,1.477-1.848,2.745c0.248,1.269,1.477,2.095,2.745,1.848l6.475-1.283
	c1.385-0.272,2.22-1.7,1.766-3.045l-2.127-6.249c-0.415-1.223-1.742-1.877-2.964-1.462c-1.223,0.414-1.877,1.741-1.462,2.963
	l0.126,0.373l-9.235-5.331c-1.115-0.643-2.542-0.258-3.182,0.858c-0.642,1.116-0.258,2.543,0.859,3.183L162.9,149.573L162.9,149.573
	z M122.658,170.105l-0.25-0.284c-0.849-0.971-2.324-1.069-3.293-0.22c-0.97,0.849-1.068,2.323-0.219,3.294l4.332,4.948
	c0.92,1.073,2.59,1.089,3.528,0.018l4.349-4.966c0.849-0.971,0.749-2.445-0.22-3.294c-0.97-0.85-2.443-0.75-3.293,0.22l-0.25,0.284
	v-10.652c0-1.294-1.049-2.343-2.342-2.343c-1.293,0-2.342,1.049-2.342,2.343V170.105L122.658,170.105z M76.148,92.54
	c0,3.252-2.106,6.013-5.03,6.991v50.938c2.924,0.979,5.03,3.74,5.03,6.992c0,0.504-0.051,0.998-0.147,1.475l44.114,25.468
	c1.3-1.151,3.011-1.852,4.887-1.852c1.875,0,3.585,0.7,4.886,1.852l44.116-25.468c-0.098-0.477-0.148-0.969-0.148-1.475
	c0-3.253,2.106-6.014,5.03-6.992V99.531c-2.924-0.979-5.03-3.739-5.03-6.991c0-0.504,0.051-0.998,0.148-1.474l-44.117-25.469
	c-1.3,1.152-3.011,1.852-4.887,1.852s-3.585-0.7-4.887-1.852L76,91.065C76.097,91.542,76.148,92.034,76.148,92.54z"/>
<g>
	<path fill="none" stroke="#EB5454" stroke-width="3" stroke-linecap="round" stroke-linejoin="round" stroke-miterlimit="10" d="
		M124.999,100.09L124.999,100.09c20.037,11.268,20.037,39.178,0,50.446"/>
	<path fill="none" stroke="#EB5454" stroke-width="3" stroke-linecap="round" stroke-linejoin="round" stroke-miterlimit="10" d="
		M124.999,100.09L124.999,100.09c-20.217,11.268-20.217,39.178,0,50.446"/>
	
		<line fill="none" stroke="#EB5454" stroke-width="3" stroke-linecap="round" stroke-linejoin="round" stroke-miterlimit="10" x1="150.223" y1="125.313" x2="99.777" y2="125.313"/>
	<path fill="none" stroke="#EB5454" stroke-width="3" stroke-linecap="round" stroke-linejoin="round" stroke-miterlimit="10" d="
		M143.749,108.46c-10.73,9.019-26.769,9.018-37.499,0"/>
	<path fill="none" stroke="#EB5454" stroke-width="3" stroke-linecap="round" stroke-linejoin="round" stroke-miterlimit="10" d="
		M143.749,142.166c-10.729-9.018-26.769-9.018-37.499,0"/>
	
		<line fill="none" stroke="#EB5454" stroke-width="3" stroke-linecap="round" stroke-linejoin="round" stroke-miterlimit="10" x1="124.999" y1="100.09" x2="124.999" y2="150.536"/>
	<path fill="none" stroke="#EB5454" stroke-width="3" stroke-linecap="round" stroke-linejoin="round" stroke-miterlimit="10" d="
		M124.999,100.09c13.908,0,25.224,11.315,25.224,25.223s-11.315,25.223-25.224,25.223c-13.908,0-25.223-11.314-25.223-25.223
		S111.091,100.09,124.999,100.09"/>
</g>
</svg>
