<?xml version="1.0" encoding="utf-8"?>
<!-- Generator: Adobe Illustrator 16.0.0, SVG Export Plug-In . SVG Version: 6.00 Build 0)  -->
<!DOCTYPE svg PUBLIC "-//W3C//DTD SVG 1.1//EN" "http://www.w3.org/Graphics/SVG/1.1/DTD/svg11.dtd">
<svg version="1.1" id="Layer_1" xmlns="http://www.w3.org/2000/svg" xmlns:xlink="http://www.w3.org/1999/xlink" x="0px" y="0px"
	 width="250px" height="250px" viewBox="0 0 250 250" enable-background="new 0 0 250 250" xml:space="preserve">
<g>
	<g>
		<g>
			
				<circle fill="none" stroke="#EB5454" stroke-width="4" stroke-linecap="round" stroke-linejoin="round" stroke-miterlimit="10" cx="124.661" cy="113.047" r="17.999"/>
			<path fill="none" stroke="#EB5454" stroke-width="4" stroke-linecap="round" stroke-linejoin="round" stroke-miterlimit="10" d="
				M160.957,175.998c0-19.914-16.145-36.059-36.059-36.059h-0.02c-19.914,0-36.059,16.145-36.059,36.059"/>
		</g>
		<g>
			
				<circle fill="none" stroke="#EB5454" stroke-width="4" stroke-linecap="round" stroke-linejoin="round" stroke-miterlimit="10" cx="171.335" cy="102.968" r="12.948"/>
			<path fill="none" stroke="#EB5454" stroke-width="4" stroke-linecap="round" stroke-linejoin="round" stroke-miterlimit="10" d="
				M151.807,131.001c4.752-5.331,11.67-8.688,19.371-8.688c14.326,0,25.938,11.612,25.938,25.938"/>
		</g>
		<g>
			
				<circle fill="none" stroke="#EB5454" stroke-width="4" stroke-linecap="round" stroke-linejoin="round" stroke-miterlimit="10" cx="78.665" cy="102.968" r="12.948"/>
			<path fill="none" stroke="#EB5454" stroke-width="4" stroke-linecap="round" stroke-linejoin="round" stroke-miterlimit="10" d="
				M98.193,131.001c-4.752-5.331-11.67-8.688-19.371-8.688c-14.326,0-25.938,11.612-25.938,25.938"/>
		</g>
		<path fill="none" stroke="#EB5454" stroke-width="4" stroke-linecap="round" stroke-linejoin="round" stroke-miterlimit="10" d="
			M79.859,83v-2.612c0-3.526,2.859-6.385,6.387-6.385h77.133c3.525,0,6.385,2.859,6.385,6.385V83"/>
		
			<line fill="none" stroke="#EB5454" stroke-width="4" stroke-linecap="round" stroke-linejoin="round" stroke-miterlimit="10" x1="124.932" y1="74.002" x2="124.932" y2="83"/>
	</g>
</g>
</svg>
