<?xml version="1.0" encoding="utf-8"?>
<!-- Generator: Adobe Illustrator 16.0.0, SVG Export Plug-In . SVG Version: 6.00 Build 0)  -->
<!DOCTYPE svg PUBLIC "-//W3C//DTD SVG 1.1//EN" "http://www.w3.org/Graphics/SVG/1.1/DTD/svg11.dtd">
<svg version="1.1" id="Layer_1" xmlns="http://www.w3.org/2000/svg" xmlns:xlink="http://www.w3.org/1999/xlink" x="0px" y="0px"
	 width="250px" height="250px" viewBox="0 0 250 250" enable-background="new 0 0 250 250" xml:space="preserve">
<g>
	<g>
		
			<rect x="110.48" y="155.874" fill="none" stroke="#EB5454" stroke-width="4" stroke-linecap="round" stroke-linejoin="round" stroke-miterlimit="10" width="29.433" height="29.427"/>
		
			<rect x="51.617" y="155.874" fill="none" stroke="#EB5454" stroke-width="4" stroke-linecap="round" stroke-linejoin="round" stroke-miterlimit="10" width="29.432" height="29.427"/>
		
			<rect x="168.951" y="155.874" fill="none" stroke="#EB5454" stroke-width="4" stroke-linecap="round" stroke-linejoin="round" stroke-miterlimit="10" width="29.432" height="29.427"/>
		
			<line fill="none" stroke="#EB5454" stroke-width="4" stroke-linecap="round" stroke-linejoin="round" stroke-miterlimit="10" x1="125.195" y1="139.795" x2="125.195" y2="126.136"/>
		
			<polyline fill="none" stroke="#EB5454" stroke-width="4" stroke-linecap="round" stroke-linejoin="round" stroke-miterlimit="10" points="
			66.333,139.795 66.333,132.335 183.667,132.335 183.667,139.795 		"/>
	</g>
	<g>
		<path fill="none" stroke="#EB5454" stroke-width="3" stroke-linecap="round" stroke-linejoin="round" stroke-miterlimit="10" d="
			M125.198,64.699L125.198,64.699c18.892,10.623,18.892,36.938,0,47.563"/>
		<path fill="none" stroke="#EB5454" stroke-width="3" stroke-linecap="round" stroke-linejoin="round" stroke-miterlimit="10" d="
			M125.198,64.699L125.198,64.699c-19.063,10.623-19.063,36.938,0,47.563"/>
		
			<line fill="none" stroke="#EB5454" stroke-width="3" stroke-linecap="round" stroke-linejoin="round" stroke-miterlimit="10" x1="148.98" y1="88.481" x2="101.415" y2="88.481"/>
		<path fill="none" stroke="#EB5454" stroke-width="3" stroke-linecap="round" stroke-linejoin="round" stroke-miterlimit="10" d="
			M142.876,72.59c-10.117,8.505-25.24,8.504-35.357,0"/>
		<path fill="none" stroke="#EB5454" stroke-width="3" stroke-linecap="round" stroke-linejoin="round" stroke-miterlimit="10" d="
			M142.876,104.371c-10.117-8.504-25.24-8.504-35.357,0"/>
		
			<line fill="none" stroke="#EB5454" stroke-width="3" stroke-linecap="round" stroke-linejoin="round" stroke-miterlimit="10" x1="125.198" y1="64.699" x2="125.198" y2="112.263"/>
		<path fill="none" stroke="#EB5454" stroke-width="3" stroke-linecap="round" stroke-linejoin="round" stroke-miterlimit="10" d="
			M125.198,64.699c13.112,0,23.782,10.667,23.782,23.782c0,13.112-10.67,23.781-23.782,23.781
			c-13.115,0-23.783-10.669-23.783-23.781C101.415,75.366,112.083,64.699,125.198,64.699"/>
	</g>
</g>
</svg>
