<?xml version="1.0" encoding="utf-8"?>
<!-- Generator: Adobe Illustrator 16.0.0, SVG Export Plug-In . SVG Version: 6.00 Build 0)  -->
<!DOCTYPE svg PUBLIC "-//W3C//DTD SVG 1.1//EN" "http://www.w3.org/Graphics/SVG/1.1/DTD/svg11.dtd">
<svg version="1.1" id="Layer_1" xmlns="http://www.w3.org/2000/svg" xmlns:xlink="http://www.w3.org/1999/xlink" x="0px" y="0px"
	 width="250px" height="250px" viewBox="0 0 250 250" enable-background="new 0 0 250 250" xml:space="preserve">
<g>
	<path fill="#EB5454" d="M153.105,184.767H96.895c-5.02,0-9.106-4.087-9.106-9.107V74.341c0-5.021,4.086-9.107,9.106-9.107h56.211
		c5.02,0,9.107,4.087,9.107,9.107v101.318C162.213,180.68,158.125,184.767,153.105,184.767z M96.895,68.969
		c-2.958,0-5.371,2.406-5.371,5.372v101.318c0,2.959,2.406,5.379,5.371,5.379h56.211c2.957,0,5.371-2.398,5.371-5.379V74.341
		c0-2.959-2.406-5.372-5.371-5.372H96.895z"/>
	<rect x="87.788" y="80.877" fill="#EB5454" width="74.425" height="3.735"/>
	<rect x="87.788" y="161.42" fill="#EB5454" width="74.425" height="3.735"/>
	<path fill="#EB5454" d="M127.988,179.216c-3.473,0-6.305-2.832-6.305-6.306c0-3.481,2.832-6.313,6.305-6.313
		c3.475,0,6.305,2.832,6.305,6.313C134.293,176.384,131.463,179.216,127.988,179.216z M127.988,170.332
		c-1.412,0-2.57,1.151-2.57,2.578s1.158,2.57,2.57,2.57s2.57-1.144,2.57-2.57S129.4,170.332,127.988,170.332z"/>
	<path fill="#EB5454" d="M137.723,75.035c0,1.031-0.844,1.868-1.867,1.868h-10.437c-1.031,0-1.868-0.837-1.868-1.868l0,0
		c0-1.031,0.837-1.867,1.868-1.867h10.437C136.871,73.168,137.723,74.004,137.723,75.035L137.723,75.035z"/>
	<circle fill="#EB5454" cx="120.128" cy="75.036" r="1.868"/>
	<path fill="#EB5454" d="M117.183,138.896c0,0.797-0.647,1.443-1.444,1.443l0,0c-0.797,0-1.444-0.646-1.444-1.443v-8.664
		c0-0.803,0.647-1.444,1.444-1.444l0,0c0.797,0,1.444,0.642,1.444,1.444V138.896z"/>
	<path fill="#EB5454" d="M128.734,138.896c0,0.797-0.641,1.443-1.443,1.443l0,0c-0.797,0-1.445-0.646-1.445-1.443v-20.216
		c0-0.797,0.648-1.443,1.445-1.443l0,0c0.803,0,1.443,0.646,1.443,1.443V138.896z"/>
	<path fill="#EB5454" d="M122.958,138.896c0,0.797-0.646,1.443-1.443,1.443l0,0c-0.798,0-1.445-0.646-1.445-1.443v-14.439
		c0-0.797,0.647-1.444,1.445-1.444l0,0c0.797,0,1.443,0.647,1.443,1.444V138.896z"/>
	<path fill="#EB5454" d="M134.51,138.896c0,0.797-0.652,1.443-1.443,1.443l0,0c-0.803,0-1.443-0.646-1.443-1.443v-25.991
		c0-0.797,0.641-1.444,1.443-1.444l0,0c0.791,0,1.443,0.647,1.443,1.444V138.896z"/>
	<path fill="#EB5454" d="M140.287,138.896c0,0.797-0.654,1.443-1.445,1.443l0,0c-0.803,0-1.443-0.646-1.443-1.443v-31.768
		c0-0.797,0.641-1.443,1.443-1.443l0,0c0.791,0,1.445,0.646,1.445,1.443V138.896z"/>
	<path fill="#EB5454" d="M111.407,138.896c0,0.797-0.647,1.443-1.444,1.443l0,0c-0.797,0-1.444-0.646-1.444-1.443v-2.889
		c0-0.802,0.647-1.443,1.444-1.443l0,0c0.797,0,1.444,0.642,1.444,1.443V138.896z"/>
</g>
</svg>
